<svg width="20" height="20" viewBox="0 0 20 20" fill="none" xmlns="http://www.w3.org/2000/svg">
<g clip-path="url(#clip0_2248_709)">
<path fill-rule="evenodd" clip-rule="evenodd" d="M12.2586 0.0598115C11.3283 0.285397 10.5247 1.03333 10.2114 1.96516L10.1106 2.26501H5.28603C-0.0900283 2.26501 0.291612 2.24524 0.0957139 2.53356C0.0242295 2.63872 0.000440462 2.72567 0.000440462 2.88149C0.000440462 3.13309 0.0709092 3.28008 0.261026 3.42508L0.404503 3.53454L5.26548 3.55407L10.1265 3.5736L10.1929 3.78852C10.4699 4.68356 11.2211 5.4213 12.1489 5.70923C12.3997 5.78708 12.5234 5.80001 13.0083 5.79919C13.5413 5.79829 13.5948 5.79106 13.9169 5.67672C14.402 5.50454 14.6596 5.3402 15.0397 4.96032C15.414 4.58626 15.6268 4.25215 15.7538 3.83891L15.8403 3.55739L17.7222 3.54594C19.5615 3.53481 19.6067 3.5327 19.7144 3.45282C20.094 3.17145 20.1051 2.60727 19.7361 2.35692C19.6368 2.28962 19.4965 2.28317 17.7397 2.26501L15.8501 2.24548L15.7638 1.99157C15.4358 1.02645 14.6544 0.292702 13.7089 0.06196C13.3904 -0.0157744 12.5752 -0.0169853 12.2586 0.0598115ZM13.2895 1.29333C13.7921 1.40005 14.2279 1.74223 14.459 2.21141C14.6212 2.54102 14.6602 3.02743 14.5513 3.36423C14.2251 4.37297 13.0588 4.83555 12.164 4.31114C11.9557 4.18907 11.6344 3.84891 11.5252 3.63477C11.049 2.7013 11.5942 1.55688 12.6356 1.30387C12.891 1.2418 13.0359 1.2395 13.2895 1.29333ZM6.44575 7.12532C5.86478 7.24821 5.37786 7.51051 4.96083 7.92536C4.61317 8.27118 4.40536 8.59797 4.25267 9.03895L4.14333 9.35485L2.25567 9.37438C0.521573 9.39231 0.359269 9.39965 0.26048 9.46438C-0.092333 9.69567 -0.092333 10.3031 0.26048 10.5344C0.359269 10.5991 0.521691 10.6065 2.25896 10.6244L4.14989 10.6439L4.21638 10.8588C4.45454 11.6288 4.99267 12.2571 5.7231 12.618C6.18923 12.8483 6.45989 12.9083 7.03169 12.9081C7.59661 12.9079 7.89982 12.8333 8.40853 12.5696C9.06513 12.2291 9.64986 11.5032 9.84161 10.7904L9.88626 10.6244L14.7383 10.6242C19.5109 10.6241 19.5924 10.6228 19.7176 10.5465C19.9082 10.4302 20.0002 10.2522 20.0002 9.99938C20.0002 9.74653 19.9082 9.56852 19.7176 9.45231C19.5924 9.37594 19.5109 9.37465 14.7383 9.37454L9.88626 9.37438L9.84192 9.20837C9.78064 8.97872 9.56044 8.50969 9.43017 8.3313C9.02208 7.77239 8.45599 7.3679 7.82157 7.18188C7.47712 7.08087 6.78962 7.05262 6.44575 7.12532ZM7.4565 8.43235C7.78345 8.53411 8.0072 8.67376 8.21681 8.90688C8.79267 9.54735 8.79267 10.4514 8.21681 11.0919C8.0072 11.325 7.78345 11.4647 7.4565 11.5664C6.70556 11.8001 5.89372 11.4192 5.53208 10.6634C5.41997 10.4291 5.4106 10.3779 5.4106 9.99938C5.4106 9.62087 5.41997 9.56962 5.53208 9.33532C5.89384 8.57934 6.70536 8.19856 7.4565 8.43235ZM12.3637 14.2352C11.3224 14.4787 10.496 15.2306 10.1929 16.2102L10.1265 16.4252L5.26161 16.4447C0.40173 16.4642 0.396651 16.4643 0.286495 16.5459C-0.119052 16.8465 -0.0970595 17.4687 0.326222 17.6696C0.449386 17.728 0.891925 17.7338 5.28634 17.7338H10.1112L10.2127 18.0384C10.5238 18.9726 11.3326 19.7183 12.2761 19.9407C12.6091 20.0192 13.3798 20.0171 13.7089 19.9368C14.6594 19.7048 15.5036 18.9033 15.7807 17.9697L15.8449 17.7533L17.7371 17.7338C19.4964 17.7156 19.6368 17.7091 19.7361 17.6418C20.1051 17.3915 20.094 16.8273 19.7144 16.5459C19.6067 16.4661 19.5615 16.464 17.7222 16.4528L15.8403 16.4414L15.7538 16.1598C15.6258 15.7435 15.4145 15.412 15.039 15.0384C14.6533 14.6548 14.3954 14.4907 13.9169 14.3248C13.6206 14.222 13.5091 14.2043 13.0864 14.1932C12.7618 14.1847 12.5195 14.1988 12.3637 14.2352ZM13.6409 15.6131C14.0824 15.8197 14.4047 16.1814 14.5513 16.6345C14.6016 16.7902 14.6147 16.9319 14.6026 17.1864C14.5887 17.4769 14.5663 17.5694 14.4547 17.796C14.2155 18.2818 13.7721 18.6149 13.2323 18.7144C12.7482 18.8036 12.2119 18.6231 11.8349 18.2442C11.2119 17.6182 11.1902 16.6485 11.7848 16.0109C12.1552 15.6138 12.5188 15.4609 13.048 15.4796C13.3236 15.4893 13.4254 15.5122 13.6409 15.6131Z" fill="#26665A"/>
</g>
<defs>
<clipPath id="clip0_2248_709">
<rect width="20" height="20" fill="white"/>
</clipPath>
</defs>
</svg>
