<svg width="24" height="24" viewBox="0 0 24 24" fill="none" xmlns="http://www.w3.org/2000/svg">
<mask id="mask0_2107_1812" style="mask-type:alpha" maskUnits="userSpaceOnUse" x="0" y="0" width="24" height="24">
<rect width="24" height="24" fill="#D9D9D9"/>
</mask>
<g mask="url(#mask0_2107_1812)">
<path d="M8.3 20.5238C7.66667 20.5238 7.125 20.3135 6.675 19.8927C6.225 19.472 6 18.9709 6 18.3895V9.87514L4.175 5.83598H2V4H5.525L7.175 7.67196H21.95C22.3333 7.67196 22.625 7.81731 22.825 8.10801C23.025 8.3987 23.0333 8.69705 22.85 9.00305L20 14.1208C20.85 14.2432 21.5625 14.6028 22.1375 15.1995C22.7125 15.7962 23 16.5 23 17.3109C23 18.1982 22.6625 18.9556 21.9875 19.5829C21.3125 20.2102 20.4917 20.5238 19.525 20.5238C18.5417 20.5238 17.7125 20.2102 17.0375 19.5829C16.3625 18.9556 16.025 18.1982 16.025 17.3109C16.025 17.0049 16.0667 16.7218 16.15 16.4617C16.2333 16.2016 16.35 15.9492 16.5 15.7044L13.225 15.429L10.225 19.5599C10.0083 19.8659 9.72917 20.1031 9.3875 20.2714C9.04583 20.4397 8.68333 20.5238 8.3 20.5238ZM17.85 13.9831L20.325 9.50794H8L9.25 12.2619C9.38333 12.5679 9.59583 12.8242 9.8875 13.0307C10.1792 13.2373 10.5167 13.3559 10.9 13.3865L17.85 13.9831ZM8.325 18.6649C8.35833 18.6649 8.43333 18.6266 8.55 18.5501L10.975 15.2454C10.1583 15.1689 9.51667 14.9891 9.05 14.7061C8.58333 14.423 8.23333 14.1285 8 13.8225V18.4124C8 18.4889 8.03333 18.5501 8.1 18.596C8.16667 18.6419 8.24167 18.6649 8.325 18.6649ZM19.5 18.6878C19.9333 18.6878 20.2917 18.554 20.575 18.2862C20.8583 18.0185 21 17.6934 21 17.3109C21 16.9131 20.8583 16.5841 20.575 16.324C20.2917 16.0639 19.9333 15.9339 19.5 15.9339C19.0833 15.9339 18.7292 16.0639 18.4375 16.324C18.1458 16.5841 18 16.9131 18 17.3109C18 17.6934 18.1458 18.0185 18.4375 18.2862C18.7292 18.554 19.0833 18.6878 19.5 18.6878Z" fill="#26665A"/>
</g>
</svg>
