<svg width="20" height="20" fill="none" xmlns="http://www.w3.org/2000/svg"><g clip-path="url(#a)"><path fill-rule="evenodd" clip-rule="evenodd" d="M12.259.06c-.93.225-1.734.973-2.048 1.905l-.1.3H5.286c-5.376 0-4.994-.02-5.19.269A.54.54 0 0 0 0 2.88c0 .252.07.4.261.544l.144.11 4.86.02 4.862.019.066.215c.277.895 1.028 1.632 1.956 1.92.25.078.374.091.86.09.532 0 .586-.008.908-.122.485-.172.743-.337 1.123-.717.374-.374.587-.708.714-1.121l.086-.282 1.882-.011c1.84-.011 1.885-.013 1.992-.093.38-.282.391-.846.022-1.096-.1-.067-.24-.074-1.996-.092l-1.89-.02-.086-.253c-.328-.966-1.11-1.7-2.055-1.93-.319-.078-1.134-.079-1.45-.002Zm1.03 1.233c.503.107.939.45 1.17.918.162.33.201.816.092 1.153-.326 1.009-1.492 1.472-2.387.947a2.158 2.158 0 0 1-.639-.676c-.476-.934.07-2.078 1.11-2.331.256-.062.4-.065.655-.01ZM6.447 7.125a2.895 2.895 0 0 0-1.485.8 2.733 2.733 0 0 0-.708 1.114l-.11.316-1.887.02C.522 9.391.359 9.4.26 9.464c-.352.23-.352.838 0 1.07.1.064.262.072 1.999.09l1.89.019.067.215c.239.77.777 1.398 1.507 1.759.466.23.737.29 1.309.29.565 0 .868-.075 1.377-.338.656-.34 1.24-1.067 1.433-1.78l.044-.166h4.852c4.773 0 4.854-.001 4.98-.078.19-.116.282-.294.282-.547 0-.252-.092-.43-.282-.547-.126-.076-.207-.077-4.98-.077H9.886l-.044-.167a3.73 3.73 0 0 0-.412-.877 3.076 3.076 0 0 0-1.608-1.15c-.345-.1-1.032-.128-1.376-.056Zm1.01 1.307c.327.102.551.242.76.475.577.64.577 1.544 0 2.185a1.565 1.565 0 0 1-.76.474c-.75.234-1.562-.147-1.924-.903-.112-.234-.121-.285-.121-.664 0-.378.009-.43.121-.664.362-.756 1.173-1.136 1.925-.903Zm4.908 5.803c-1.042.244-1.868.996-2.171 1.975l-.066.215-4.865.02c-4.86.02-4.865.02-4.976.1-.405.301-.383.924.04 1.125.123.058.566.064 4.96.064h4.825l.102.304c.31.935 1.12 1.68 2.063 1.903.333.078 1.104.076 1.433-.004.95-.232 1.795-1.034 2.072-1.967l.064-.217 1.892-.02c1.76-.017 1.9-.024 2-.091.368-.25.357-.815-.023-1.096-.107-.08-.152-.082-1.992-.093l-1.882-.012-.086-.281c-.128-.417-.34-.748-.715-1.122-.386-.383-.644-.547-1.122-.713-.296-.103-.408-.12-.83-.132-.325-.008-.567.006-.723.042Zm1.277 1.378c.441.207.764.568.91 1.021.05.156.064.298.052.552-.014.29-.037.383-.148.61-.24.486-.683.819-1.223.918-.484.09-1.02-.09-1.397-.47a1.594 1.594 0 0 1-.05-2.233c.37-.397.734-.55 1.263-.531.276.01.377.032.593.133Z" fill="#26665A"/></g><defs><clipPath id="a"><path fill="#fff" d="M0 0h20v20H0z"/></clipPath></defs></svg>