<svg width="24" height="24" fill="none" xmlns="http://www.w3.org/2000/svg"><mask id="a" style="mask-type:alpha" maskUnits="userSpaceOnUse" x="0" y="0" width="24" height="24"><path fill="#D9D9D9" d="M0 0h24v24H0z"/></mask><g mask="url(#a)"><path d="M8.3 20.524c-.633 0-1.175-.21-1.625-.631C6.225 19.472 6 18.97 6 18.39V9.875L4.175 5.836H2V4h3.525l1.65 3.672H21.95c.383 0 .675.145.875.436.2.29.208.59.025.895L20 14.121c.85.122 1.563.482 2.137 1.079.575.596.863 1.3.863 2.11 0 .888-.337 1.646-1.012 2.273-.675.627-1.496.94-2.463.94-.983 0-1.813-.313-2.487-.94-.675-.627-1.013-1.385-1.013-2.272 0-.306.042-.59.125-.85.083-.26.2-.512.35-.757l-3.275-.275-3 4.13a2.2 2.2 0 0 1-.838.712 2.429 2.429 0 0 1-1.087.253Zm9.55-6.54 2.475-4.476H8l1.25 2.754c.133.306.346.562.637.769.292.206.63.325 1.013.355l6.95.597Zm-9.525 4.68c.033 0 .108-.037.225-.114l2.425-3.305c-.817-.076-1.458-.256-1.925-.539-.467-.283-.817-.577-1.05-.883v4.59c0 .076.033.137.1.183a.388.388 0 0 0 .225.069Zm11.175.024c.433 0 .792-.134 1.075-.402.283-.268.425-.593.425-.975 0-.398-.142-.727-.425-.987-.283-.26-.642-.39-1.075-.39-.417 0-.77.13-1.063.39-.291.26-.437.59-.437.987 0 .382.146.707.438.975a1.51 1.51 0 0 0 1.062.402Z" fill="#26665A"/></g></svg>