<svg width="22" height="22" fill="none" xmlns="http://www.w3.org/2000/svg"><path d="M10.946 5.33a5.601 5.601 0 0 0-5.61 5.611 5.601 5.601 0 0 0 5.61 5.61 5.601 5.601 0 0 0 5.61-5.61 5.601 5.601 0 0 0-5.61-5.61Zm0 9.259a3.654 3.654 0 0 1-3.647-3.648 3.651 3.651 0 0 1 3.647-3.647 3.65 3.65 0 0 1 3.648 3.647 3.654 3.654 0 0 1-3.648 3.648ZM18.095 5.1c0 .728-.586 1.309-1.31 1.309a1.309 1.309 0 1 1 1.31-1.309Zm3.715 1.33c-.083-1.752-.483-3.305-1.767-4.585C18.763.565 17.21.164 15.458.077c-1.807-.103-7.222-.103-9.029 0C4.681.16 3.13.56 1.844 1.84.56 3.119.164 4.672.077 6.425c-.103 1.806-.103 7.221 0 9.028.083 1.753.483 3.306 1.767 4.585 1.285 1.28 2.833 1.68 4.585 1.767 1.807.103 7.222.103 9.029 0 1.753-.083 3.305-.483 4.585-1.767 1.279-1.28 1.68-2.832 1.767-4.585.103-1.807.103-7.217 0-9.024Zm-2.334 10.962a3.692 3.692 0 0 1-2.08 2.08c-1.44.572-4.858.44-6.45.44-1.592 0-5.015.127-6.45-.44a3.692 3.692 0 0 1-2.08-2.08c-.572-1.44-.44-4.858-.44-6.45 0-1.592-.127-5.014.44-6.45a3.693 3.693 0 0 1 2.08-2.08c1.44-.571 4.858-.44 6.45-.44 1.592 0 5.015-.127 6.45.44a3.692 3.692 0 0 1 2.08 2.08c.572 1.44.44 4.858.44 6.45 0 1.592.132 5.015-.44 6.45Z" fill="#26665A"/></svg>