<svg width="374" height="415" fill="none" xmlns="http://www.w3.org/2000/svg"><g clip-path="url(#a)"><mask id="b" style="mask-type:luminance" maskUnits="userSpaceOnUse" x="-1" y="-1" width="375" height="416"><path d="m8.959 32.182-.115-.096.047.038.068.058Zm-8.724-10.5c.147-.203.324-.357.522-.467.31-.296.734-.503 1.242-.556.886-.106 1.73.27 2.484.69.12.07.234.145.35.217.318.125.642.285.972.492 1.779 1.096 3.247 2.598 4.876 3.894.898.63 1.796 1.532 2.928 1.652.762-3.593-10.045-14.128-6.974-17.814 4.346-3.884 9.443 9.047 13.663 9.882.364-1.4-.257-2.873-.498-4.259a61.578 61.578 0 0 0-.442-1.954c-1.28-3.775-3.22-8.615-1.507-11.852C18.466.33 20.105-.423 21.418.25c1.68.939 2.307 2.942 3.064 4.6 1.345 3.185 2.34 6.501 3.642 9.702.498 1.147 2.239 5.025 3.641 2.737a6.65 6.65 0 0 0 .58-1.43c.082-1.096.17-2.192.267-3.288.392-3.278.658-6.962 2.78-9.637 1.196-1.585 3.652-1.156 4.045.84.735 3.568.392 7.286.76 10.908.45 4.386.451 11.733 3.865 14.828a3.13 3.13 0 0 0 1.669.65c1.781-1.017 3.46-2.645 4.782-3.653 2.054-1.611 4.135-3.233 6.455-4.444.617-.285 1.328-.652 2.022-.609.749.004 1.504.477 1.796 1.173.274.455.396.934.4 1.423.138.569.096 1.205-.2 1.882-.4 1.05-1.04 2-1.632 2.952-3.02 4.84-7.266 9.213-8.428 14.97-.447 3.254.208 6.544.877 9.722 1.74 8.047 6.776 15.05 13.084 20.207 5.897 4.517 12.45 8.099 18.929 11.719 6.327 3.607 12.833 6.787 19.501 9.732 7.647 3.352 15.604 6.338 23.964 7.2 9.618 1.053 19.363-.717 28.67-3.273 1.685-.828 3.26-1.865 4.75-3.007 1.717-1.378 3.805-3.193 4.665-5.379.685-1.728.841-3.926-.722-5.23-2.015-1.746-4.675-1.731-7.182-2.431-3.312-.845-6.198-3.52-6.764-6.964-.362-3.575.27-3.018-3.314-4.41-9.602-3.096-8.715-13.901-5.969-21.693 3.686-10.141 11.584-18.356 20.407-24.32 7.517-5.099 16.052-8.823 25.022-10.375 8.952-1.502 30.817-2.973 32.569 9.162.294 3.01-1.069 5.906-2.852 8.254-1.488 1.943-3.409 3.469-5.338 4.956-.347.345-.991.616-1.049 1.14.3 1.165 1.007 2.174 1.239 3.37.919 3.906-.726 7.98-3.312 10.897-1.734 2.005-4.065 3.358-6.231 4.835 6.223 4.167 3.901 11.887-.528 16.477-6.3 6.317-10.148 9.59-4.844 18.456 5.095 8.407 12.399 15.403 20.891 20.432 3.294 1.883 6.849 3.398 10.518 4.38 1.747.419 3.52.619 5.301.844.026.005.053.007.079.015 8.458.207 16.817-2.6 24.841-5.014 9.624-3.288 18.435-8.945 26.548-15.096 8.804-6.886 15.793-15.834 20.669-25.95.256-.497.513-.995.779-1.489.038-.174.064-.32.077-.428.302-1.55.455-3.13.427-4.714a33.82 33.82 0 0 0-.749-4.94c-.819-3.545-1.99-6.995-3.175-10.43-.498-1.622-1.224-3.282-1.598-4.976a15.787 15.787 0 0 1-.862-2.32c-.371-1.385-.69-3.09.283-4.303.951-1.102 2.496-.47 3.273.507 2.701 2.498 5.738 9.979 9.539 12.348 1.064-.145 2.054-.935 2.754-1.905 1.613-2.214 2.2-4.944 3.071-7.504.074-.311.138-.577.191-.781.894-3.625 1.552-7.498 2.716-11.082 1.043-3.784 4.069-3.62 5.15-.475.249.485.437 1 .558 1.488.585 2.392.164 4.865-.294 7.24-.43 2.586-1.145 5.15-1.232 7.779-.043 1.89 1.262 2.824 2.826 1.553.188-.157.362-.325.53-.502.1-.17.194-.34.283-.51.43-.818.871-1.627 1.316-2.433a85.44 85.44 0 0 1 1.587-2.703c.224-.362.449-.726.679-1.083 1.386-2.965 2.731-5.955 4.714-8.566.575-.662 1.175-1.358 1.958-1.77.935-.467 2.15-.116 2.622.835.092.19.164.383.228.58.347.62.515 1.459.436 2.423-.042.485-.115.964-.206 1.441-.407 2.922-1.667 5.67-2.878 8.387a95.658 95.658 0 0 1-1.504 3.474c-.679 1.558-1.356 3.116-1.965 4.701-.172.54-.455 1.11-.344 1.69 2.62-.962 4.371-3.412 6.399-5.225 2.765-2.443 5.625-4.986 8.95-6.621 2.564-.928 3.928 1.698 3.054 3.873-.754 2.124-2.258 3.806-3.784 5.415-2.948 3.126-6.155 5.99-9.152 9.066 3.15-.926 6.115-2.426 9.296-3.28 1.865-.476 5.376-2.055 6.628.137.906 2.5-2.088 4.139-3.789 5.38-2.711 1.777-5.582 3.286-8.353 4.974-5.395 3.286-10.316 7.791-14.704 12.382-7.955 8.947-15.53 18.222-23.364 27.271-1.022 1.498-2.475 2.722-3.697 4.052-6.319 6.617-13.763 12.012-21.55 16.788-3.389 2.103-6.792 4.201-10.395 5.925-3.856 1.794-7.853 3.28-11.846 4.754-8.787 3.186-17.458 6.132-26.592 8.318-6.715 1.649-13.472 3.166-20.316 4.173-3.486.49-6.783.673-10.282 1.445-.03.009-.057.013-.085.019-2.59 2.158-3.478 5.681-3.997 8.916-.67 3.935-.911 7.927-1.256 11.901-.232 2.962-.395 5.933-.427 8.909.087.561.183 1.121.285 1.681.179 1.045.362 2.081.555 3.116.711.798 1.562 1.481 2.373 2.158.226.174.449.351.675.528.111.123.226.242.338.361.098.081.198.158.296.239 4.997 4.06 9.873 8.376 13.583 13.691 3.575 5.05 6.476 10.549 9.011 16.183a81.327 81.327 0 0 1 4.686 12.778c1.277 4.318 2.328 8.7 3.15 13.125.16.892.332 1.781.538 2.66 4.189-3.548 6.666-8.349 10.08-12.61 2.513-3.256 5.135-5.98 7.927-8.232.032-.034.064-.068.098-.1.532-.506 1.09-.975 1.675-1.421l-.202.155c.547-.419 1.083-.854 1.626-1.277.771-.581 1.592-1.088 2.418-1.586a24.28 24.28 0 0 1 2.124-1.119c.387-.17.779-.33 1.17-.498.43-.185.856-.381 1.288-.564.787-.33 1.594-.628 2.403-.9.683-.217 1.372-.411 2.053-.628.813-.258 1.607-.549 2.437-.743.918-.179 1.848-.287 2.773-.423a42.765 42.765 0 0 0 3.097-.586c.958-.213 1.901-.479 2.865-.653.991-.179 1.985-.349 2.979-.509.539-.083 1.073-.151 1.609-.247.439-.076.881-.136 1.326-.191.917-.111 1.83-.221 2.743-.381 2.052-.36 4.106-.726 6.155-1.094.747-.134 1.473-.33 2.194-.558.362-.115.724-.223 1.082-.349.402-.14.793-.31 1.181-.483.672-.293 1.338-.6 1.992-.926.319-.157.634-.321.938-.51.322-.203.635-.417.95-.628a25.24 25.24 0 0 1 1.168-.711c.443-.253.896-.487 1.334-.747.435-.255.85-.549 1.269-.83.494-.33.981-.673 1.462-1.024a46.265 46.265 0 0 0 2.418-1.926 61.468 61.468 0 0 0 2.356-2.083c.779-.732 1.498-1.522 2.213-2.309.687-.758 1.377-1.512 2.032-2.295.66-.787 1.282-1.604 1.905-2.415.441-.571.896-1.128 1.341-1.692l.028-.026a17.33 17.33 0 0 0 1.638-1.243c.337-.283.654-.585.99-.868.304-.243.615-.479.926-.715.457-.179.919-.349 1.39-.49.483-.119.968-.204 1.46-.274.787-.094 1.57-.143 2.36-.138.477.019.949.061 1.422.129.578.1 1.153.222 1.717.388.241.083.479.176.711.281.302.159.594.334.881.519.685.449 1.379.892 2.009 1.413.281.258.547.532.804.815.262.311.509.634.739.971.181.289.345.585.498.889.145.334.27.673.385 1.015.258.899.417 1.812.596 2.729.187.968.43 1.92.696 2.871.275.979.521 1.958.749 2.95a17.828 17.828 0 0 0 1.105 3.298c.451 1.009.987 1.967 1.507 2.94a29.78 29.78 0 0 0 1.713 2.836c.406.592.847 1.154 1.309 1.703a107.808 107.808 0 0 0 4.746 4.835c2.458 2.322 5.303 4.178 8.285 5.757 2.107 1.143 4.386 2.209 6.7 3.193 2.407 1.055 4.924 1.879 7.251 3.111.83.417 1.817 1.122 2.324 2.033.551.559.962 1.255 1.034 1.956.009.029.013.061.021.091a9.785 9.785 0 0 1 .1.436c-.057.071-.117.139-.176.209-.105.383-.337.751-.728 1.085-1.558 1.196-3.863 1.207-5.751 1.358-.602.03-1.2.045-1.798.045-8.492 0-16.698-2.995-24.458-6.247-3.412-1.451-6.8-2.998-10.286-4.265-3.535-.708-7.151-1.017-10.767-.793a50.134 50.134 0 0 0-9.104 1.504c-5.219 2.171-9.982 5.336-14.096 8.871-4.207 3.782-7.851 8.102-11.613 12.244-3.578 3.909-7.007 7.951-10.523 11.928-.097.09-.195.179-.295.267-.556.502-1.113 1-1.645 1.53-.541.538-1.056 1.1-1.607 1.628l.204-.194-.428.407.205-.194c-1.835 1.739-3.597 3.552-5.481 5.24-.617.551-1.232 1.106-1.843 1.662l-.132.119c-.357.324-.717.645-1.077.968-.193.175-.389.349-.583.524-.498.443-.998.885-1.5 1.322l-.051.044c-.211.183-.426.36-.643.537l-.038.029c-.175.137-.351.271-.528.407-.26.2-.517.4-.777.598l-.438.338c-.575.449-1.145.903-1.726 1.341a.195.195 0 0 1-.015.011l-.083.059c-.243.179-.488.352-.734.526-.145.102-.288.209-.433.311-.395.279-.793.555-1.191.83-.873.602-1.739 1.217-2.603 1.824l-.015.01c-1.179.79-2.42 1.494-3.659 2.182-.63.349-1.289.647-1.938.955-.707.335-1.409.679-2.122.994h-.128l-.013.007c-.234.093-.466.183-.702.272-.389.149-.779.296-1.168.447l-.258.096c-.143.053-.289.104-.434.153h-.004c-.028.011-.058.019-.085.028-.13.042-.256.083-.386.123l-.168.051a18.56 18.56 0 0 1-.547.151c-.081.019-.162.032-.245.049-.272.058-.547.115-.821.166-.094.019-.189.032-.283.051-.326.06-.649.117-.975.175-.277.047-.555.096-.832.145-.121.021-.24.044-.36.066-.264.046-.527.095-.791.146h-.149l-.037.213h.007s-.011-.179-.015-.179-.013-.034-.013-.034h-.004l-.015.213h.004s.032-.181.047-.183l-.736.149-.251.051c-.058.011-.115.024-.173.034-.008 0-.027-.051-.027-.051h-.005l-.151.213h-.151c-.157.032-.313.064-.47.094-.247.042-.494.081-.739.117-.353.01-.702.017-1.047.017-8.366 0-14.353-3.224-20.476-8.63-.2-.151-.402-.298-.596-.451-2.654-2.156-5.225-4.44-7.608-6.896-.3-.243-.596-.485-.894-.728a30.964 30.964 0 0 1-1.905-1.826 45.871 45.871 0 0 0-2.073-2.017c-.664-.605-1.336-1.203-1.983-1.824a403.103 403.103 0 0 1-1.882-1.816c-.406-.402-.804-.808-1.206-1.215a355.37 355.37 0 0 1-31.628-31.894 103.137 103.137 0 0 1-6.572 8.049c-6.294 7.023-13.874 12.848-22.049 17.516-4.122 2.287-8.413 4.262-12.81 5.963a40.03 40.03 0 0 0-.726.277c.081.747.143 1.498.177 2.251.236 3.942.126 7.941-.464 11.859-.004.345-.006.687-.013 1.032a20.092 20.092 0 0 1-.272 2.637 70.629 70.629 0 0 1-.57 2.884c-.228 1.036-.475 2.058-.811 3.062a22.823 22.823 0 0 1-1.133 2.573c-.464.873-.944 1.737-1.506 2.552-.571.826-1.173 1.633-1.76 2.45-.605.84-1.154 1.715-1.694 2.596-.569.922-1.154 1.835-1.744 2.741-.564.869-1.191 1.697-1.745 2.576-.53.842-1.057 1.689-1.611 2.519a48.179 48.179 0 0 1-1.807 2.488 59.183 59.183 0 0 0-1.968 2.742c-1.064 1.568-2.029 3.205-2.971 4.85-.996 1.736-2.063 3.443-2.865 5.282.009-.023.02-.045.028-.068l-.043.098.013-.03c-.421.992-.756 2.011-1.102 3.031-.311.919-.654 1.826-.96 2.747-.339 1.022-.567 2.063-.826 3.105-.151.598-.328 1.19-.456 1.795a13.736 13.736 0 0 0-.231 1.617 29.324 29.324 0 0 0-.1 2.409c-.007.473.03.92.102 1.386.034.217.091.432.168.638a37.92 37.92 0 0 0-.09.641c.053.061.105.125.158.185.421.453.879.868 1.347 1.271h-.136c.025.025.05.046.076.068a49.1 49.1 0 0 0 2.156 1.706c.72.541 1.435 1.09 2.099 1.697a17.577 17.577 0 0 1 2.969 3.537 19.27 19.27 0 0 1 1.849 3.722c.368 1.03.681 2.092.732 3.19.122.745.077 1.509-.087 2.261-.057 1.343-.53 2.702-1.547 4.058-.681.875-1.462 1.641-2.294 2.343-.296.311-.607.622-.926.928-.15.151-.3.294-.454.43-.146.136-.293.273-.442.407-1.141 1.03-2.324 2.009-3.5 3.001a133.38 133.38 0 0 0-3.547 3.098c-.228.209-.46.426-.692.652-2.707 4.533-3.688 10.098-3.72 15.329.113 5.136.983 10.212 1.394 15.326.045.943.181 2.154.207 3.369.415 3.25.349 5.761-.86 6.6-.315.142-.628.21-.939.21h.051c-2.234 0-4.337-3.479-6.08-7.606a28.309 28.309 0 0 1-1.392-3.597c-.751-2.098-1.4-4.163-1.922-5.85-.3-.941-.555-1.784-.762-2.456a30.116 30.116 0 0 0-.278-.841c-.777-2.835-1.43-5.702-2.04-8.579-.074-.783-.438-1.686-.433-2.509a99.17 99.17 0 0 1-1.452-9.535c-.445-3.02-.783-6.055-1.007-9.098a194.5 194.5 0 0 1-.59-5.783 98.635 98.635 0 0 1-.406-3.264c-.774-6.972-.821-13.989-.755-20.995.002-11.448.728-22.92 3.03-34.15 1.592-8.056 3.804-15.973 6.456-23.739l.108-.315a237.5 237.5 0 0 1 2.341-6.504c.224-.779.45-1.556.681-2.33 3.156-10.75 6.896-21.493 13.197-30.845 5.23-7.974 11.042-15.523 17.18-22.845 4.993-5.993 10.019-11.935 15.589-17.411.23-.247 1.307-1.302 2.665-2.543a266.265 266.265 0 0 1 5.522-6.449c.115-.206.222-.417.328-.627 2.692-5.527 1.737-12.4-2.662-16.765-5.661-5.75-11.327-11.201-10.099-20.037.324-2.224 1.035-4.399 2.188-6.336.681-1.243 1.596-2.228 2.109-3.601.258-2.256-3.111-4.342-4.952-5.616-4.333-2.197-8.72-4.295-13.078-6.436-2.742-1.375-5.453-2.801-8.192-4.184-5.272-2.648-10.733-4.923-15.762-8.03-7.661-4.823-15.202-9.897-22.28-15.551-8.075-6.634-15.896-13.755-22.77-21.67l-.011-.013c-.434-.628-.875-1.258-1.286-1.905l-.255-.404a57.433 57.433 0 0 1-2.456-3.56c-.281-.388-.56-.777-.826-1.175-.279-.46-.528-.937-.777-1.411-.147-.243-.291-.486-.436-.728-3.807-5.706-6.904-11.861-9.835-18.054-3.654-7.988-5.512-11.455-12.488-17.167-2.26-1.836-4.53-3.67-6.787-5.512-1.66-1.36-6.37-4.603-5.07-7.085l.013.005v-.01Zm234.442 270.103.025-.006c-.01 0-.019.004-.03.006a.253.253 0 0 1-.034.007c.009 0 .015-.002.024-.004.004 0 .008 0 .013-.003h.002Zm15.964-6.384c.063-.045.129-.09.193-.132-.064.044-.127.089-.191.132h-.002Zm-.143 0s-.004.004-.006.004l-.094.064c.013-.009.026-.017.038-.028l-.144.1c.068-.047.136-.096.206-.142v.002Z" fill="#fff"/></mask><g mask="url(#b)" fill="#F5F5F5"><path d="M57.355 22.443a.498.498 0 0 0-.053.05.574.574 0 0 0 .053-.05Zm-.121.112s-.016.014-.026.02l.026-.02Zm-48.345 9.57-.047-.038.115.096-.068-.058Zm12.988 12.787.047.083-.049-.083h.002Z"/><path d="m212.516 283.823.104-.815.119-.828.128-.836.13-.836.127-.828.126-.813.121-.794.117-.773.115-.751.115-.732.117-.722.126-.71.136-.703.153-.702.173-.707.191-.711.211-.717.23-.723.246-.741.258-.755.266-.773.275-.8.278-.818.279-.836.281-.853.281-.862.285-.875.29-.885.293-.894.3-.9.305-.899.308-.891.313-.879.315-.862.317-.843.32-.819.325-.803.33-.779.334-.759.343-.745.349-.735.355-.721.358-.707.359-.685.36-.668.358-.647.357-.628.354-.609.344-.583.334-.557.324-.535.309-.51.293-.49.279-.475.266-.468.253-.462.243-.459.236-.46.232-.462.232-.468.236-.475.245-.485.258-.498.272-.511.29-.521.266-.456a73.234 73.234 0 0 1-.673-2.426c-.323-1.243-.596-2.503-.949-3.735-.217-.674-.477-1.334-.726-1.998-.251-.664-.481-1.337-.732-2.003-.26-.694-.532-1.381-.79-2.075-.221-.6-.434-1.2-.668-1.796-.372-.909-.794-1.794-1.17-2.701-.407-.975-.76-1.969-1.145-2.954-.401-.992-.813-1.975-1.29-2.933a82.291 82.291 0 0 0-1.494-2.873 49.326 49.326 0 0 0-.822-1.383c-.308-.509-.608-1.026-.93-1.526-.542-.841-1.143-1.641-1.736-2.448l.008.011c-.449-.604-.921-1.19-1.37-1.794-.441-.594-.867-1.198-1.301-1.796-.564-.73-1.187-1.409-1.79-2.105-.581-.671-1.155-1.345-1.762-1.992a143.334 143.334 0 0 0-2.09-2.109c-.804-.801-1.564-1.639-2.337-2.467-.54-.547-1.108-1.06-1.662-1.594-.536-.517-1.066-1.039-1.598-1.558a24.219 24.219 0 0 1-1.198-1.243c-.224-.176-.449-.353-.675-.528-1.107-.923-2.281-1.851-3.077-3.066 0-.06 0-.117-.007-.179-.366-.315-.625-.775-.387-1.254a.823.823 0 0 1 .272-.306 46.79 46.79 0 0 1-.023-1.873c.023-3.071.189-6.138.43-9.196.345-3.976.585-7.97 1.255-11.908.52-3.235 1.407-6.759 3.999-8.919 3.533-.792 6.858-.973 10.374-1.464 6.848-1.007 13.61-2.529 20.329-4.176 9.138-2.186 17.815-5.133 26.607-8.322 3.995-1.474 7.994-2.96 11.852-4.756 3.605-1.726 7.011-3.827 10.401-5.929 7.791-4.781 15.24-10.178 21.563-16.799 1.22-1.328 2.676-2.554 3.699-4.054 7.841-9.056 15.419-18.337 23.379-27.288 4.391-4.593 9.313-9.103 14.713-12.389 2.771-1.688 5.642-3.199 8.357-4.976 1.703-1.238 4.697-2.88 3.791-5.382-1.252-2.192-4.765-.613-6.632-.136-3.184.853-6.151 2.356-9.303 3.281 2.999-3.077 6.209-5.944 9.158-9.072 1.526-1.611 3.033-3.29 3.786-5.419.875-2.177-.489-4.801-3.056-3.875-3.322 1.636-6.187 4.18-8.953 6.625-2.031 1.813-3.782 4.265-6.404 5.227-.111-.58.172-1.147.345-1.69.751-1.952 1.606-3.865 2.436-5.783 1.656-4.06 4.016-8.095 4.051-12.586-.09-1.683-.599-2.782-1.335-3.39-.089.01-.179.025-.266.042a4.153 4.153 0 0 0-.306.09 8.462 8.462 0 0 0-.549.234c-.094.05-.183.106-.275.162a10.1 10.1 0 0 0-.609.476 15.71 15.71 0 0 0-.896.862c-.202.224-.398.453-.585.69-.251.353-.481.723-.734 1.077-.256.353-.509.708-.747 1.072a8.019 8.019 0 0 0-.215.388c-.16.35-.311.704-.488 1.049-.202.39-.449.751-.71 1.102-.441.583-.894 1.156-1.331 1.745a40.19 40.19 0 0 0-1.528 2.346 76.804 76.804 0 0 0-1.587 2.705c-.445.808-.886 1.62-1.316 2.434-.376.714-.819 1.482-1.557 1.867a1.94 1.94 0 0 1-.905.221c-.432 0-.86-.144-1.205-.432-.363-.304-.581-.745-.672-1.204-.085-.424-.141-.91-.109-1.341.03-.4.122-.785.198-1.18.107-.533.207-1.068.352-1.593.112-.409.231-.82.321-1.235.083-.5.117-1.008.17-1.513.072-.69.121-1.379.224-2.064.168-1.109.444-2.2.598-3.312.053-.549.085-1.1.17-1.645.066-.425.151-.849.225-1.273a20.82 20.82 0 0 0-.27-1.572c-.815-3.88-4.244-4.382-5.367-.305-1.167 3.586-1.824 7.46-2.718 11.088-.192.756-.545 2.35-1.062 4.076a17 17 0 0 1 .079 1.256c.01.545.021 1.102-.107 1.634-.221.926-.791 1.711-1.238 2.54-.254.468-.539.917-.964 1.25-.594.465-1.362.769-2.12.769h-.053c-1.101-.02-2.105-.681-2.65-1.624l-.104-.185a8.344 8.344 0 0 1-.954-.983c-.434-.526-.84-1.073-1.275-1.6a25.819 25.819 0 0 1-1.274-1.722l.136.197c-.492-.704-.971-1.413-1.454-2.123-.232-.32-.479-.628-.706-.95-.111-.155-.217-.31-.324-.47-1.273-.158-2.633.613-2.941 1.907-.436 2.869.749 5.736 1.545 8.451 1.066 3.301 2.075 6.476 2.592 9.873.281 2.25.143 4.533-.289 6.747a4.076 4.076 0 0 1-.077.427c-.266.492-.523.99-.779 1.49-4.88 10.122-11.873 19.076-20.682 25.965-8.117 6.155-16.935 11.812-26.563 15.104-8.028 2.413-16.392 5.223-24.856 5.016-.025-.008-.053-.01-.078-.015-1.782-.223-3.557-.425-5.304-.845-3.673-.981-7.227-2.496-10.524-4.382-8.498-5.033-15.807-12.033-20.904-20.444-5.308-8.872-1.458-12.148 4.846-18.466 4.431-4.595 6.753-12.319.528-16.488 2.169-1.477 4.501-2.83 6.236-4.837 2.588-2.92 4.233-6.994 3.313-10.904-.231-1.193-.938-2.206-1.238-3.373.057-.523.702-.794 1.049-1.138 1.928-1.488 3.852-3.014 5.34-4.96 1.783-2.349 3.148-5.245 2.854-8.257-1.752-12.144-23.632-10.67-32.588-9.168-8.977 1.553-17.515 5.28-25.037 10.381-8.828 5.968-16.732 14.187-20.42 24.335-2.746 7.796-3.635 18.607 5.974 21.706 3.588 1.392 2.954.832 3.316 4.412.566 3.445 3.452 6.123 6.767 6.968 2.51.702 5.172.687 7.188 2.432 1.562 1.305 1.406 3.505.721 5.233-.86 2.19-2.95 4.006-4.667 5.383-1.49 1.143-3.067 2.18-4.753 3.01-9.313 2.557-19.062 4.328-28.686 3.274-8.366-.859-16.328-3.85-23.979-7.204-6.67-2.945-13.18-6.129-19.512-9.739-6.483-3.62-13.038-7.206-18.94-11.724-6.312-5.161-11.351-12.17-13.092-20.22-.669-3.182-1.324-6.475-.877-9.729 1.162-5.759 5.41-10.137 8.432-14.978.592-.95 1.232-1.905 1.632-2.954.843-1.94-.347-3.555-2.06-4.144a1.17 1.17 0 0 1-.462.064l-.08.023c-.392.277-.754.594-1.11.915l.007-.006c-.26.232-.523.462-.809.666-.38.273-.783.505-1.19.734-.646.364-1.321.694-1.945 1.099-.364.261-.704.553-1.068.815-.296.212-.596.421-.888.64a41.02 41.02 0 0 0-1.921 1.51 8.98 8.98 0 0 0-.6.608l.091-.102c-.298.332-.609.657-.979.91-.41.282-.851.514-1.326.665-.449.14-.907.255-1.377.283a2.468 2.468 0 0 1-.172.004c-1.075 0-2.075-.581-2.705-1.447a4.785 4.785 0 0 1-.8-1.856 31.223 31.223 0 0 1-.15-.777c-.09-.504-.187-1.007-.272-1.513a46.138 46.138 0 0 1-.442-3.33c-.098-1.035-.26-2.059-.366-3.091a73.906 73.906 0 0 1-.252-3.067c-.068-1.183-.24-2.356-.315-3.54-.03-.493-.034-.987-.044-1.482-.011-.51-.037-1.02-.06-1.529a56.542 56.542 0 0 1-.036-3.664 9.011 9.011 0 0 0-.366-.639c-.1-.145-.202-.287-.309-.426-1.464-1.072-3.454-.127-4.388 2.476-1.46 2.928-.826 10.434-2.963 12.262a1.63 1.63 0 0 1-.8.256h.162a1.075 1.075 0 0 1-.505-.077c-3.518-2.552-4.412-11.837-6.974-15.966C21.735.038 18.19.86 17.936 4.308c-.298 3.769.966 7.368 1.72 11.01.238 1.385.862 2.86.498 4.26C15.93 18.74 10.83 5.802 6.482 9.69c-3.075 3.688 7.74 14.23 6.978 17.824-1.132-.12-2.032-1.021-2.93-1.651-1.628-1.297-3.099-2.801-4.878-3.897-1.022-.64-2.01-.875-2.863-.796-.042.021-.087.04-.132.06-.227.097-.46.18-.687.276a4.236 4.236 0 0 0-.213.121 6.18 6.18 0 0 0-.36.26 6.704 6.704 0 0 0-.217.209 6.476 6.476 0 0 0-.302.383 6.585 6.585 0 0 0-.21.33c-.007.012-.011.023-.017.036 0 .004-.003.008-.005.015 0 .008-.002.015-.004.023v.03c.004.06.013.117.017.18l.006.039c.026.08.056.162.088.238.087.19.183.375.283.556.219.364.45.72.7 1.064.317.43.628.866.956 1.288.261.34.538.668.817.996h.002c.657.457 1.309.917 1.905 1.457.56.51 1.12 1.013 1.713 1.482.555.402 1.12.791 1.656 1.22l-.077-.063c.03.024.06.05.09.073l-.013-.01c.491.401.966.825 1.445 1.244.753.62 1.547 1.181 2.311 1.786.862.679 1.67 1.422 2.473 2.169.402.374.81.744 1.194 1.138a40.48 40.48 0 0 1 1.464 1.618c.762.879 1.626 1.679 2.311 2.622.699.964 1.273 2.013 1.856 3.052l.028.046.19.296a15.39 15.39 0 0 1 1.013 1.954c.106.213.21.428.319.638.342.647.71 1.282 1.032 1.94.221.45.436.904.623 1.37.126.308.243.617.373.921.255.552.52 1.099.807 1.633.291.547.591 1.085.842 1.651.564 1.269 1.1 2.548 1.714 3.793.695 1.353 1.447 2.686 2.192 4.011.378.673.764 1.343 1.117 2.029.326.63.647 1.26.979 1.885.407.737.839 1.456 1.245 2.19.396.718.753 1.46 1.177 2.158.732 1.1 1.556 2.14 2.303 3.227.43.628.83 1.272 1.236 1.915.411.645.85 1.27 1.286 1.903l.004.006c6.88 7.924 14.708 15.053 22.79 21.691 7.082 5.657 14.627 10.735 22.293 15.56 5.03 3.109 10.496 5.384 15.77 8.034 2.739 1.383 5.453 2.812 8.196 4.186 4.363 2.144 8.751 4.242 13.086 6.44 1.839 1.277 5.213 3.363 4.955 5.621-.517 1.371-1.432 2.358-2.111 3.603-1.156 1.939-1.867 4.114-2.19 6.34-1.228 8.841 4.439 14.296 10.105 20.051 4.401 4.371 5.359 11.243 2.664 16.774a21.9 21.9 0 0 1-.327.628c-6.502 7.324-12.463 15.094-18.699 22.638-1.967 2.414-3.944 4.829-5.915 7.256-.01.176-.049.353-.108.523-.166.466-.511.845-.811 1.224a6.015 6.015 0 0 1-.204.245c-.767.845-1.528 1.692-2.314 2.522-.379.402-.764.798-1.155 1.185a440.456 440.456 0 0 0-3.233 4.097l.185.043.685.163.692.171.7.178.715.183.722.188.725.189.724.194.724.198.723.204.72.215.713.228.702.238.685.256.668.27.652.289.634.311.611.328.589.344.568.364.543.379.522.392.506.408.505.426.506.449.521.475.543.506.564.537.588.566.604.589.613.607.613.615.604.617.596.619.579.62.558.615.538.613.519.61.507.611.492.613.478.617.467.62.451.621.434.62.421.621.411.624.404.634.405.649.402.664.406.689.407.711.404.728.4.743.396.753.388.76.381.771.374.776.37.788.364.798.288.645c.515-.349 1.023-.705 1.53-1.062.717-.52 1.424-1.049 2.137-1.571.723-.532 1.46-1.047 2.177-1.588 1.447-1.089 2.799-2.292 4.127-3.522.651-.623 1.277-1.273 1.911-1.909.664-.664 1.338-1.322 1.992-1.996.651-.673 1.272-1.375 1.894-2.073a77.465 77.465 0 0 0 1.711-2.001c.419-.515.836-1.03 1.234-1.562.413-.549.826-1.1 1.269-1.626.415-.494.841-.981 1.287-1.445.364-.377.735-.76 1.173-1.045.019-.013.041-.025.06-.036.232-.121.445-.187.691-.209.077-.117.169-.225.271-.319.649-.596 1.779-.598 2.366.102.417.501.886.958 1.335 1.428.421.441.847.877 1.277 1.311.676.677 1.364 1.341 2.009 2.048.608.664 1.2 1.345 1.817 2.002.949 1.003 1.843 2.052 2.752 3.091.832.932 1.677 1.856 2.52 2.779.845.926 1.798 1.743 2.677 2.635.798.809 1.55 1.658 2.331 2.479.755.794 1.515 1.584 2.281 2.365.8.817 1.626 1.607 2.401 2.447.74.803 1.411 1.667 2.122 2.495.553.598 1.126 1.177 1.698 1.755a65.316 65.316 0 0 0 1.839 1.809c.889.796 1.798 1.575 2.647 2.414.837.826 1.65 1.673 2.484 2.501.626.61 1.254 1.215 1.886 1.819.649.624 1.321 1.224 1.987 1.828a45.56 45.56 0 0 1 2.078 2.022 31.723 31.723 0 0 0 1.909 1.831c.581.478 1.17.949 1.753 1.423.586.473 1.156.96 1.726 1.448 1.12.932 2.299 1.783 3.457 2.666.932.711 1.843 1.445 2.777 2.154.507.383 1.017.756 1.532 1.124l.068-.669v-.017l.003-.002ZM70.901 365.495l.007.026c0-.009-.005-.016-.007-.026Zm1.309 7.083Z"/><path d="M83.667 410.68c.183-.043.364-.091.543-.147a9.2 9.2 0 0 0 .72-.291 3.12 3.12 0 0 0 .167-.096 1.31 1.31 0 0 0 .064-.049c.008-.011.02-.019.026-.028a9.44 9.44 0 0 0 .474-.668c-.064-2.09-.6-4.308-.915-5.87-2.345-9.379-4.214-18.826-.277-28.071 1.741-4.389 5.413-7.8 9.76-9.537 1.592-.658 3.274-1.13 4.791-1.956 3.31-1.524 4.885-5.648 3.237-8.941-1.581-3.228-4.79-5.148-7.853-6.77.04.024.08.047.121.073-1.904-.954-2.462-3.105-2.752-5.123.045-.794.13-1.598.254-2.407a3.394 3.394 0 0 1-.168-.641 8.64 8.64 0 0 1-.102-1.387c.008-.807.025-1.609.1-2.414a13.78 13.78 0 0 1 .231-1.621c.128-.607.307-1.199.456-1.799.262-1.045.492-2.088.828-3.111.304-.924.649-1.833.962-2.754.345-1.022.683-2.043 1.104-3.037l-.012.03c.012-.032.027-.066.042-.098-.008.023-.019.044-.028.068.805-1.843 1.873-3.552 2.871-5.293.945-1.647 1.912-3.288 2.978-4.861a59.572 59.572 0 0 1 1.973-2.748 49.925 49.925 0 0 0 1.811-2.492c.555-.83 1.081-1.679 1.615-2.524.556-.879 1.181-1.709 1.75-2.579.593-.911 1.179-1.824 1.747-2.748.545-.883 1.092-1.76 1.698-2.603.59-.817 1.192-1.626 1.765-2.454.561-.815 1.045-1.681 1.509-2.556.432-.84.808-1.692 1.134-2.577.34-1.007.585-2.03.813-3.069.211-.96.406-1.922.572-2.89.141-.877.243-1.756.273-2.643.03-1.839.03-3.684-.028-5.521-.03-.913-.07-1.824-.168-2.733-.019-.185-.04-.37-.062-.555l-.078-.079c-.498-.515-.837-1.164-1.067-1.837a7.827 7.827 0 0 1-.408-1.907c-.045-.57-.045-1.128.072-1.681a1.727 1.727 0 0 1-.315-1.049 1.46 1.46 0 0 1-.113-.432v-.021a1.632 1.632 0 0 1 1.405-1.79c.528-.077 1.079-.03 1.613-.009a2.16 2.16 0 0 1 .754-.164c.444-.189.891-.378 1.349-.538a27.82 27.82 0 0 1 1.238-.398c.232-.102.464-.204.699-.304.434-.186.872-.356 1.311-.53 1.213-.509 2.413-1.047 3.573-1.665 1.4-.762 2.818-1.489 4.227-2.232 1.721-.947 3.347-2.05 4.95-3.182.717-.519 1.424-1.049 2.137-1.571.723-.532 1.46-1.047 2.177-1.587l.119-.09-.33-.644-.457-.873-.466-.862-.469-.845-.472-.826-.471-.8-.466-.77-.468-.756-.468-.736-.477-.724-.489-.721-.503-.72-.523-.721-.541-.719-.555-.716-.571-.71-.587-.709-.602-.709-.626-.711-.649-.713-.673-.717-.691-.719-.703-.715-.71-.713-.711-.703-.703-.683-.681-.655-.655-.624-.63-.587-.607-.551-.589-.522-.585-.494-.59-.474-.606-.456-.63-.438-.66-.421-.685-.401-.709-.381-.734-.359-.756-.336-.777-.315-.796-.296-.815-.279-.826-.262-.836-.251-.841-.238-.84-.23-.841-.224-.841-.221-.838-.219-.828-.213-.813-.206-.802-.201-.56-.134c-.162.162-.324.322-.488.479-.508.6-1.036 1.19-1.553 1.784-.651.885-1.326 1.756-2.003 2.62l-.145.185c-.272.349-.536.691-.91.938l-.06.039a316.142 316.142 0 0 0-3.99 5.433c-.392.594-.78 1.19-1.177 1.779-.67.996-1.354 1.982-2.024 2.976a63.097 63.097 0 0 0-1.969 3.298c-.653 1.167-1.32 2.329-1.96 3.501a97.267 97.267 0 0 0-1.009 1.909l-.236.594c-.456 1.209-.87 2.433-1.354 3.633-.417 1.039-.847 2.071-1.268 3.109a97.897 97.897 0 0 1-1.352 3.144c-.415.928-.849 1.845-1.251 2.777a78.88 78.88 0 0 0-1.513 3.999c-.496 1.426-.903 2.882-1.362 4.318a78.292 78.292 0 0 1-1.48 4.18c-.512 1.339-1.049 2.665-1.474 4.035-.211.705-.413 1.411-.628 2.116a83.067 83.067 0 0 1-.881 2.671 59.171 59.171 0 0 0-1.286 5.759 64.943 64.943 0 0 1-.632 3.239c-.221.971-.43 1.941-.617 2.918a49.183 49.183 0 0 0-.385 3.067c-.094.96-.187 1.922-.31 2.879a38.771 38.771 0 0 1-.578 3.391c-.198.885-.436 1.76-.632 2.645-.232 1.232-.385 2.469-.517 3.716-.13 1.213-.253 2.428-.357 3.643l.023-.293c-.11 1.394-.217 2.792-.406 4.18-.17 1.232-.354 2.462-.477 3.701a71.478 71.478 0 0 0-.23 3.997c-.036 1.449-.028 2.902-.05 4.354-.018 1.381-.101 2.758-.152 4.139a77.434 77.434 0 0 0-.026 3.912c.04 2.064.096 4.123.036 6.185a357.347 357.347 0 0 0-.132 6.414c0 2.141.088 4.282.215 6.419.135 2.258.275 4.51.505 6.757l.064.59.357 1.532c.004.011.004.019.007.028a51.89 51.89 0 0 1 .742 3.775c.17 1.073.36 2.141.547 3.21.15.751.366 1.483.54 2.228.205.86.314 1.743.435 2.618.123.892.236 1.781.39 2.669.108.623.182 1.251.302 1.87.087.379.183.756.266 1.137.115.534.215 1.072.308 1.611.005.019.007.036.011.055l.013.077-.013-.077a.314.314 0 0 1-.009-.047c.17 1.054.226 2.116.354 3.176.076.557.149 1.117.227 1.675.083.568.196 1.13.322 1.69.145.604.3 1.204.44 1.809.183.761.32 1.534.509 2.296.155.632.309 1.262.434 1.9.115.584.23 1.154.404 1.72.235.666.494 1.32.745 1.979.281.732.498 1.492.82 2.209.294.656.596 1.303.838 1.98.275.766.524 1.538.775 2.311.06.17.124.338.196.504.13.243.27.479.417.711.175.249.355.49.549.722.25.279.509.551.783.808.109.092.222.179.334.264.094.06.188.117.283.173.058.027.118.053.175.078a.97.97 0 0 0 .096.028h.079a6.4 6.4 0 0 0 .438-.055v-.013h.002Z"/><path d="M72.21 372.578c.015.075.026.149.04.224a8.355 8.355 0 0 0-.04-.224Zm1.15 5.737c.502-.038.945-.51.881-1.028-.177-1.44-.36-2.879-.523-4.32-.377-4.195-.91-8.377-1.254-12.578-.277-2.901-.464-5.81-.487-8.724-.007-.825.004-1.649.012-2.473-.015-.574.073-1.181-.127-1.728-.115-.244-.415-.383-.664-.251-.494.343-.507 1.134-.647 1.675-.654 5.536-.164 11.116.368 16.66.29 1.243.536 2.488.736 3.75.17 1.073.358 2.141.55 3.211.146.752.363 1.484.54 2.229.204.86.313 1.743.434 2.618.045.321.087.642.132.964.017 0 .036 0 .053-.003h-.004v-.002Z"/><path d="M72.21 372.578c.015.075.026.149.04.224a8.355 8.355 0 0 0-.04-.224Z"/><path d="M83.197 410.762c.147-.013.293-.032.438-.056.145-.034.285-.07.426-.11.098-.835-.262-1.875-.686-2.405-.208-.217-.538-.334-.774-.083-.309.436-.088 1.06-.081 1.553-2.022-3.09-3.105-6.906-4.142-10.377-1.97-6.838-3.307-13.861-4.237-20.91-1.213-8.832-2.099-17.809-.902-26.69.166-1.565.338-3.127.523-4.691.062-.515-.398-.977-.894-1.007a.965.965 0 0 0-1.006.894 555.043 555.043 0 0 0-.477 4.225c-.296 2.794-.739 5.582-.737 8.398a108 108 0 0 0 .162 5.804l.064.281v.012c.296 1.252.545 2.505.745 3.778.168 1.073.358 2.141.547 3.209.149.752.364 1.484.54 2.229.205.859.313 1.743.435 2.617.123.892.236 1.782.39 2.669.108.622.182 1.252.3 1.871.087.379.184.755.267 1.136.115.53.213 1.067.307 1.605 0-.011-.004-.023-.004-.034.008.038.012.077.019.115a5.328 5.328 0 0 0-.013-.066c.17 1.053.226 2.115.353 3.175.077.558.15 1.118.228 1.675.083.566.196 1.128.32 1.688.144.604.3 1.205.442 1.809.18.762.32 1.534.509 2.294.155.632.308 1.264.434 1.903.115.581.227 1.153.404 1.719.232.667.494 1.32.745 1.98.29.76.515 1.551.858 2.292.285.619.566 1.243.798 1.886.276.77.525 1.545.779 2.321a8.3 8.3 0 0 0 .195.505c.13.242.273.479.42.711.174.249.355.489.547.721.25.279.51.551.783.809.109.091.221.179.334.266.094.06.187.117.285.17.058.028.117.053.175.079.03.011.061.019.093.028h.09l-.002.002Z"/><path d="M83.227 410.751a5.89 5.89 0 0 0 .438-.056 7.07 7.07 0 0 0 .628-.174l.242-.277c.109-.63.096-1.309.064-1.854-.083-.747-.291-2.285-1.021-2.641-.411-.149-.754.273-.722.66.009 1.243.222 2.533-.127 3.748-.786-.754-1.186-1.811-1.646-2.778a40.026 40.026 0 0 1-1.185-3.211c-1-3.01-1.781-6.085-2.456-9.186a.875.875 0 0 0-1.026-.666.84.84 0 0 0-.323.147c.063.3.13.6.204.896.155.632.309 1.264.434 1.903.115.581.228 1.153.404 1.719.233.666.494 1.32.745 1.98.29.759.516 1.551.858 2.292.285.619.566 1.243.798 1.885.277.771.526 1.545.78 2.322.06.171.123.339.195.505.13.242.272.479.42.71.174.249.355.49.546.722.251.279.51.551.783.809a9.6 9.6 0 0 0 .334.266c.094.059.188.117.286.17.057.028.117.053.174.079.03.01.062.019.094.027h.083l-.004.003Z"/><path d="M78.323 400.264c-1.092-4.209-2.21-8.419-2.941-12.712-.632-3.586-.928-7.221-1.288-10.845a76.042 76.042 0 0 0-.402-3.546c-.115-.502-.03-1.554-.74-1.258a.394.394 0 0 0-.158.358c-.11.853-.166 1.709-.194 2.566.194.837.3 1.692.417 2.541.124.892.237 1.78.39 2.667.108.622.183 1.249.3 1.869.087.381.183.755.266 1.134.115.53.215 1.064.306 1.603v-.017s0 .023.005.034c.17 1.051.225 2.113.353 3.171.074.557.147 1.115.228 1.673.08.566.195 1.125.319 1.685.145.605.3 1.203.442 1.807.181.762.32 1.532.51 2.292.154.632.308 1.262.436 1.901.114.581.227 1.151.404 1.717.232.666.494 1.318.745 1.977.28.73.498 1.49.82 2.207.293.656.595 1.301.835 1.978.275.764.524 1.536.775 2.309.062.17.126.338.198.504.13.243.27.479.42.711.053.077.108.151.163.226-1.106-2.765-1.9-5.653-2.603-8.548v-.004h-.006Zm-3.858-15.493-.022-.124.022.124Zm8.762 25.984c.147-.013.291-.032.438-.056.183-.042.364-.091.543-.147a7.13 7.13 0 0 0 .487-.191c-.57-4.397-2.405-10.037-2.826-11.808-.794-2.918-1.577-5.838-2.354-8.76-.298-1.24-2.143-.851-1.9.405 1.202 4.45 2.368 8.906 3.522 13.369.602 2.293 1.255 4.597 1.526 6.953.07.045.14.088.213.128.057.028.117.053.176.079.03.01.062.019.094.028h.083-.002Zm3.207-2.864-.066.249.066-.249Zm-.641 1.247-.01.014c0-.004.006-.011.01-.014Zm-.021.037c-.008.009-.014.02-.021.032l.02-.034v.002Z"/><path d="M84.21 410.544c.243-.09.483-.185.72-.292a2.77 2.77 0 0 0 .167-.096 1.31 1.31 0 0 1 .064-.049.301.301 0 0 0 .026-.027c.21-.266.4-.551.58-.837.003-.004.005-.006.005-.008 0 0 .009-.015.013-.019.008-.015.017-.026.023-.041.181-.289.362-.579.509-.885.043-.115.08-.228.115-.345.021-.093.038-.187.057-.281.109-4.89-1.445-11.537-1.668-14.053-1.35-9.494-1.556-15.472 4.382-23.544a27.597 27.597 0 0 1 2.096-2.424c.947-1.139 2.594-1.912 3.03-3.367.937-.522 1.784-1.147 2.648-1.75.756-.985-.506-1.796-1.432-1.409-.677.247-1.509.454-1.94 1.054-.935.619-2.634 1.204-2.453 2.573-4.424 3.809-7.583 9.128-9.002 14.778-1.062 5.706.006 11.644.849 17.288.526 3.75 2.047 10.207.802 13.849.136-.034.273-.073.407-.115h.002Zm-6.99-14.372c-.336-.813-.261-1.887-.934-2.498a.852.852 0 0 0-.383-.155c.13.593.245 1.189.391 1.779.156.632.31 1.262.435 1.902.115.581.227 1.154.406 1.72.232.666.494 1.32.745 1.977.281.732.498 1.494.82 2.209.293.656.595 1.303.838 1.98.275.764.526 1.538.775 2.311.06.17.125.338.195.504.13.243.27.479.418.711.174.247.355.487.549.722.249.28.508.551.783.808.108.092.22.179.334.266.094.06.187.117.283.171.058.027.117.053.175.078.017.005.034.009.049.015-3.497-3.328-4.34-10.124-5.883-14.497h.004v-.003Z"/><path d="M85.742 406.715c.275-2.443-.138-4.923-.683-7.304-.225-.615-.585-3.52-1.594-2.837-.379.428-.185 1.088-.18 1.607.042.555.101 1.104.167 1.658.288 2.196.547 4.412.345 6.627-.032.662.483 1.03.996 1.03.42 0 .839-.247.951-.781h-.002Z"/><path d="M85.527 399.391c-.19-.691-.977-5.548-1.977-4.867-.743.494.487 6.447.566 7.575.228 2.13.75 4.492-.217 6.506-2.46-2.173-3.797-6.526-4.959-9.569-2.68-7.172-3.516-14.819-4.87-22.308-1.465-9.394-2.966-18.68-2.634-28.189.047-3.499.185-6.995.324-10.49a.726.726 0 0 0-.673-.758.722.722 0 0 0-.758.673c-.06 1.5-.119 2.999-.17 4.499a213.096 213.096 0 0 1-.187 4.51c-.126 2.341-.307 4.682-.29 7.029.062 3.708.48 7.4.894 11.082.735 5.934 1.562 11.859 2.588 17.752.67 3.852 1.252 7.894 2.326 11.631 1.067 3.428 4.61 16.051 8.524 16.17 3.935-.666 1.98-8.543 1.511-11.241v-.005h.002Z"/><path d="M84.776 410.643c2.635-2.024.924-8.898.528-11.861-.84-4.597-1.735-9.181-2.503-13.791-.258-1.079-1.856-.764-1.666.353.502 2.85.983 5.704 1.423 8.564.639 4.165 1.577 8.311 1.741 12.534-.062.864.002 2.007-.651 2.649-.13.092-.247-.083-.355-.14a4.511 4.511 0 0 1-.754-.764c-.51-.666-.896-1.477-1.22-2.22-1.072-2.562-1.75-5.267-2.379-7.966-.72-3.278-1.587-6.549-2.136-9.856-.052-.377-.109-.747-.162-1.107.049-.259-.153-.532-.434-.513a.41.41 0 0 0-.364.484c-.139 1.268-.07 2.547.072 3.811.745 5.666 1.928 13.7 5.074 18.484.638.875 1.57 1.79 2.592 1.79.39 0 .79-.132 1.194-.451Z"/><path d="M76.995 386.587c.543-.143.873-.711.734-1.252a312.428 312.428 0 0 1-1.932-8.017c-1.617-7.14-3.343-14.274-4.186-21.559-.981-8.245-.981-16.507-.856-24.786.15-7.159.313-14.34 1.473-21.42 2.411-16.126 7.27-31.794 13.506-46.835 1.634-3.99 3.352-7.959 5.272-11.82.531-1.09 1.115-2.154 1.672-3.231.209-.489.639-1.055.12-1.451-2.093-1.009-7.258 11.988-8.139 13.891-5.52 13.014-10.099 26.486-12.84 40.371-2.305 11.239-3.03 22.719-3.032 34.171-.066 7.01-.02 14.031.755 21.008.621 5.804 1.794 11.535 3.065 17.23.923 4.086 1.958 8.149 2.95 12.223.061.247.123.493.187.74.115.46.551.766 1.002.766.083 0 .168-.01.251-.031h-.002v.002Zm13.033-18.706c1.845-.376 3.57-1.164 5.306-1.866 1.728-.581 3.42-1.396 4.693-2.733 4.875-5.465-.498-10.03-4.912-13.303-1.258-.954-2.52-1.903-3.746-2.897-.53-.419-1.022-.885-1.545-1.313-.175-.136-.383-.277-.613-.277-2.648.537 4.33 5.834 5.076 6.506 1.975 1.722 6.018 4.608 5.26 7.579-.487 1.9-2.162 3.12-3.888 3.844-1.634.778-3.339 1.411-5.067 1.945-.59.215-1.332.268-1.724.813-.51.719.092 1.73.913 1.73a.97.97 0 0 0 .247-.03v.002Z"/><path d="M85.915 414.79c.31 0 .623-.068.938-.211 3.808-2.647-3.707-21.823-1.943-28.65 1.296-6.834 3.78-13.895 8.9-18.805l-.034.034-.002.004c12.474-10.064 3.346-18.22-8.515-21.457-1.092-.47-2.45.719-1.011 1.349a47.49 47.49 0 0 1 6.806 3.071c12.261 7.319 4.506 11.193-1.845 18.631-5.59 8.038-8.185 18.388-5.983 28.025.756 5.223 2.68 10.435 2.41 15.736-1.475-1.204-2.24-3.045-3.06-4.718 1.478 1.149 2.532-.615 2.196-2.02.002-1.207-.324-3.331-2-2.266-1.961-4.978-3.655-10.056-5.37-15.124-.788-1.441-1.665-7.998-4.093-6.136-.728 1.045.006 2.448.117 3.599.61 2.878 1.262 5.747 2.04 8.584 1.267 3.577 5.53 20.358 10.44 20.361h.004l.005-.007Z"/><path d="M85.984 414.307c.913-.581.05-2.711-.13-3.584a74.928 74.928 0 0 0-.802-2.686c-.115-.395-.28-.836-.67-1.027-3.214-6.549-6.08-13.287-8.096-20.306-1.713-6.438-2.87-13.029-3.522-19.659-.581-5.267-.607-10.569-.762-15.859-.198-5.093-.239-10.193-.247-15.288.047-1.068-1.581-1.228-1.675-.095.187 9.604-.28 19.23.34 28.822.513 7.085 1.652 14.128 3.304 21.034 1.775 7.006 4.616 13.682 7.663 20.216.605 1.181 1.077 2.488 1.927 3.516.402 1.16.75 2.335 1.145 3.497.189.6.42 1.555 1.068 1.555a.96.96 0 0 0 .457-.134v-.002Z"/><path d="M78.748 394.994c.673-.585.29-1.545.111-2.271-.47-1.621-1.002-3.334-1.45-4.924-1.144-4.099-2.036-8.477-2.653-12.648-1.599-10.678-2.067-21.466-2.414-32.246-.063-1.566-.13-3.134-.168-4.703-.083-1.818.015-3.658-.232-5.459-.064-.24-.27-.443-.536-.353a.475.475 0 0 0-.279.308c-.332 1.292-.362 2.646-.468 3.972-.202 3.573-.136 7.155-.13 10.732a.837.837 0 0 0-.464.809c.062 3.084.183 6.168.266 9.254.007 8.121.975 16.206 2.778 24.092.75 3.352 1.657 6.386 2.628 9.604.343 1.069.679 2.143 1.126 3.176.174.527.687.925 1.209.925.234 0 .47-.08.676-.266v-.002Z"/><path d="M77.423 395.08c.543-.194.81-.792.63-1.33a155.161 155.161 0 0 1-1.33-4.246 98.617 98.617 0 0 1-2.099-9.198c-.74-4.065-1.068-8.071-1.4-12.167-.647-7.409-.966-14.888-.83-22.287.017-1.665.05-3.329.038-4.993-.008-.207-.013-.407.038-.605a.57.57 0 0 0-.453-.585c-.391-.085-.77.309-.653.692-.239 1.53-.334 3.083-.439 4.626-.555 7.347-.408 14.696.096 22.026.383 7.668 1.398 15.315 3.527 22.704.436 1.602 1.002 3.162 1.545 4.731.142.426.564.69.991.69.115 0 .228-.02.339-.058Zm7.802 10.538c.594-.034 1.107-.613 1.034-1.213-.191-1.337-.413-2.669-.587-3.854-.21-1.456-.4-2.916-.53-4.382-.294-3.499-.304-7.032.077-10.525.636-4.707 2.358-9.311 5.122-13.184 3.205-4.042 7.387-3.439 10.322-9.164 3.384-6.562-1.66-12.921-7.983-14.894-.679-.17-2.27-.694-2.55.228-.106.704 1.099 1.111 1.603 1.405 1.818.898 3.62 1.898 5.087 3.318 1.879 1.862 3.08 4.654 2.364 7.295-.56 1.999-1.839 3.765-3.458 5.046-1.622 1.224-3.54 1.99-5.136 3.25-2.045 1.579-3.333 3.884-4.49 6.146-3.708 7.211-4.036 15.575-2.988 23.477.276 2.058.598 4.112.925 6.164.083.521.6.889 1.111.889.026 0 .053 0 .079-.004l-.002.002Z"/><path d="M86.72 412.291c1.501-1.775.89-5.448.788-7.655-.408-5.117-1.281-10.197-1.394-15.334.043-6.764 1.664-14.089 6.557-19.014 2.57-2.699 6.21-4.14 8.515-7.115 1.697-2.143 3.02-5.297 1.639-7.913-.692-1.217-1.773-2.192-2.903-2.994-1.696-1.139-3.53-2.073-5.137-3.341-1.11-.856-2.17-1.775-3.278-2.631-.783-.553-1.74-1.451-2.758-1.002-1.35.902-.179 2.145.751 2.798 2.85 2.156 6.202 3.757 8.526 6.542 2.756 3.523.704 7.081-2.39 9.467a189.25 189.25 0 0 1-4.92 4.11c-.669.6-1.933 1.17-1.324 2.247-4.063 5.223-5.542 12.227-5.578 18.695.102 6.68 1.585 13.259 1.838 19.931.017.885-.061 1.77-.323 2.617-.121.571.266.905.706.905.24 0 .496-.1.692-.315h-.006v.002Z"/><path d="M87.123 373.609c2.894-2.171 5.838-4.287 8.707-6.496 1.628-1.3 3.298-2.686 4.309-4.541 1.145-1.914.881-4.323-.376-6.113a28.916 28.916 0 0 0-2.184-3.19c-.506-.634-1.628-.23-1.64.57-.02.277.106.53.28.737.696.909 1.364 1.851 1.83 2.905 1.126 2.356.456 3.99-1.283 5.723-1.886 1.89-4.078 3.428-6.125 5.131-1.63 1.413-3.407 2.828-4.501 4.714-.203.517.03.783.379.783.185 0 .402-.074.602-.225h.002v.002Z"/><path d="M85.68 379.349c2.231-3.478 4.585-7.226 7.943-9.682 2.741-2.117 5.915-3.805 8.075-6.58 5.967-7.953-6.753-16.115-12.827-19.361-.639-.479-2.018-.845-2.041.343.536 1.426 2.34 2.013 3.475 2.93 3.912 2.554 12.817 8.452 10.116 13.917-2.678 4.082-7.581 5.895-10.835 9.441-2.233 2.332-3.922 5.118-5.687 7.806-.545.809.205 1.658.954 1.658.304 0 .606-.138.826-.474h.002v.002Z"/><path d="M84.78 379.812c.29-.083.509-.275.664-.524.12-.193.243-.387.366-.578a23.78 23.78 0 0 1 1.643-2.192 36.93 36.93 0 0 1 3.071-3.182 135.583 135.583 0 0 1 3.55-3.101c1.175-.992 2.36-1.973 3.501-3.003a31.011 31.011 0 0 0 2.744-2.784c.532-.623 1.068-1.251 1.477-1.964.41-.713.73-1.471.976-2.197l.024-.068.004-.01c.187-.573.332-1.152.441-1.745.098-.532.11-1.073.089-1.609-.045-1.116-.362-2.197-.736-3.242a19.365 19.365 0 0 0-1.85-3.726 17.638 17.638 0 0 0-2.97-3.54c-.667-.606-1.382-1.155-2.101-1.696a48.22 48.22 0 0 1-2.235-1.773h-.01a17.22 17.22 0 0 1-1.36-1.285 10.097 10.097 0 0 1-.558-.69 4.932 4.932 0 0 1-.262-.436 5.83 5.83 0 0 1-.166-.379 6.607 6.607 0 0 1-.162-.57 8.518 8.518 0 0 1-.11-.732c-.011-.092-.017-.185-.03-.277-.064-.417-.332-.781-.766-.851-.486-.079-.864.304-1.041.711a3.007 3.007 0 0 0-.172.638c-.096.545-.011 1.105.119 1.635.319 1.304 1.228 2.358 2.173 3.266.31.301.638.581.853.767a43.531 43.531 0 0 0 2.175 1.736c.62.464 1.237.928 1.828 1.428.469.405.916.835 1.333 1.29.449.5.87 1.017 1.202 1.49l.06.087c.43.628.817 1.283 1.138 1.894.01.024.024.047.036.07h-.042c.31.62.594 1.246.832 1.895.181.519.336 1.045.46 1.579.042.215.076.432.098.649.017.268.025.538.019.809a8.369 8.369 0 0 1-.117.849c-.081.381-.183.76-.303 1.128 0 .004-.004.008-.004.013-.138.398-.291.783-.468 1.164a10.04 10.04 0 0 1-.477.862c-.3.434-.634.84-.977 1.243-.721.834-1.5 1.613-2.307 2.362h-.012a1.431 1.431 0 0 0-.058.053c-.004.004-.008.009-.013.011l-.012.01c-1.141 1.033-2.333 2.007-3.514 2.993a118.04 118.04 0 0 0-3.507 3.03 36.844 36.844 0 0 0-3.47 3.572 26.049 26.049 0 0 0-2.356 3.298c-.317.522-.095 1.23.422 1.524a1.115 1.115 0 0 0 .858.102h.002l.008-.004Zm13.78-29.146-.004-.005s0 .003.005.005Z"/><path d="M88.2 373.297c3.946-5.288 8.696-10.39 10.48-16.87a1.058 1.058 0 0 0 1.139-.794h.004c.076-1.124-.347-2.256-.713-3.308-.362-.966-.735-1.938-1.299-2.807-.617-.972-1.509-1.713-2.31-2.524-1.163-1.113-2.293-2.328-3.73-3.086-.398-.189-.86-.366-1.294-.185-.43.168-.6.739-.357 1.126.44.579 1.1.975 1.602 1.507-.466 1.13.77 1.939 1.567 2.494.794.487 1.51 1.149 2.36 1.53.068.09.138.179.204.27.122.19.239.381.35.577-.337.918.306 1.822.708 2.612-.01 1.472-.526 2.896-1.047 4.258-1.268 2.884-3.024 5.523-4.906 8.039a308.603 308.603 0 0 1-4.473 5.88c-.585.826.108 1.709.877 1.709.29 0 .59-.126.834-.428h.004Zm-12.644-75.341c.21-.153.268-.541.279-.769.421-3.82 1.535-7.678 2.448-11.375 3.36-12.876 6.563-25.897 12.122-38.04 3.578-7.477 8.551-14.345 13.446-20.966 3.982-5.305 8.186-10.439 12.451-15.517 2.662-3.205 5.339-6.404 8.193-9.441 3.467-3.737 7.011-7.41 10.839-10.777.556-.483 1.126-.949 1.692-1.424a.372.372 0 0 0 .209-.311c-.26-2.19-9.094 6.33-9.807 7.096-5.572 5.48-10.603 11.424-15.598 17.422-6.14 7.325-11.959 14.878-17.19 22.857-6.308 9.358-10.047 20.108-13.206 30.864-1.345 4.48-2.502 9.015-3.715 13.531-1.035 3.823-2.054 7.654-2.729 11.561-.29 1.552-.557 3.105-.728 4.674-.042.459.383.813.805.813a.675.675 0 0 0 .49-.202v.004Z"/><path d="M89.52 259.218c2.794-5.474 5.658-10.912 8.523-16.35 1.969-3.769 4.12-7.444 6.536-10.945 2.715-3.933 5.633-7.724 8.606-11.465a187.69 187.69 0 0 1 8.441-9.896 74.597 74.597 0 0 0 1.873-2.139c.37-.494.996-1.03.777-1.709-.153-.443-.705-.681-1.139-.52-.368.149-.672.422-.983.662-3.075 2.569-5.97 5.355-8.856 8.132-.317-.434-.989-.449-1.334-.042-.283.325-.543.672-.811 1.011-.787.998-1.596 2.053-2.337 3.052-.604.804-1.162 1.557-1.76 2.345-.319.419-.66.828-.958 1.26a.813.813 0 0 0-.085.738c-.151.258-.276.528-.293.83-.058.63.7 1.064 1.238.773.602-.383 1.011-1.007 1.484-1.532l1.421-1.716c1.052-1.264 2.105-2.524 3.205-3.743-4.392 5.476-8.734 11.024-12.467 16.979-3.169 5.11-5.808 10.522-8.626 15.828a938.512 938.512 0 0 0-3.986 7.71c-.3.664.239 1.215.79 1.215.28 0 .562-.14.742-.478h-.002Zm80.531-17.078c1.106-.321 2.215-.63 3.36-.772.52-.085 1.045-.122 1.569-.156.457-.032.783-.508.725-.942-.149-.916-1.091-.72-1.721-.677-1.341.038-2.68.183-3.98.523-.96.251-1.922.492-2.884.735.138.153.279.304.419.455.377.396.743.8 1.105 1.209.47-.121.938-.243 1.407-.373v-.002Zm-42.329 18.589c1.4-.762 2.818-1.49 4.227-2.233 1.721-.944 3.347-2.047 4.95-3.181.145-.105.289-.211.434-.315 1.911-1.509 3.837-2.997 5.821-4.408a68.604 68.604 0 0 0 2.186-1.958c.651-.623 1.277-1.273 1.911-1.909.664-.664 1.339-1.322 1.992-1.996.159-.166.319-.334.477-.502-3.274 1.828-6.466 3.784-9.448 6.074-4.154 3.171-8.17 6.518-12.397 9.598-.436.389-1.69 1.196-2.724 2.067a38.827 38.827 0 0 0 2.569-1.235h.002v-.002Zm102.39-12.512-.019.026-.003.007.022-.033Z"/><path d="m220.918 289.468.26-.822.27-.804.277-.785.285-.771.293-.757.301-.752.304-.74.306-.73.309-.73.313-.737.317-.745.317-.759.319-.771.32-.781.319-.794.315-.8.313-.806.308-.807.302-.802.296-.799.292-.791.289-.781.285-.764.286-.747.283-.724.285-.702.283-.679.285-.654.287-.638.288-.622.285-.604.283-.592.281-.583.274-.576.271-.575.262-.573.251-.57.242-.581.23-.581.217-.59.207-.604.193-.624.181-.642.168-.656.156-.664.142-.672.132-.673.088-.479a2.02 2.02 0 0 1-.562-.77c-.051-.121-.085-.249-.126-.375l.015.045c-.07-.215-.136-.43-.202-.647-.09-.294-.143-.594-.202-.896.017.087.034.175.049.262l-.086-.439.052.262c-.088-.455-.16-.911-.203-1.375-.042-.459-.081-.917-.155-1.372a3.356 3.356 0 0 0-.03-.137 1.885 1.885 0 0 1-.843.222 1.632 1.632 0 0 1-1.592-1.894c.026-.164.081-.311.152-.449.117-.688.197-1.382.276-2.073.102-.935.188-1.871.349-2.801.026-.141.049-.281.075-.424-.185-.708-.375-1.417-.498-2.141-.113-.666-.211-1.334-.343-1.996a38.01 38.01 0 0 0-.509-1.879 75.941 75.941 0 0 1-.581-2.111c-.193-.745-.368-1.494-.553-2.239l-.202.338-.309.534-.293.52-.283.508-.279.502-.277.494-.281.492-.291.494-.305.495-.319.503-.334.508-.353.524-.371.547-.387.572-.402.596-.415.624-.424.651-.428.673-.43.691-.432.718-.432.734-.43.755-.427.775-.42.785-.41.798-.403.816-.395.836-.39.86-.383.877-.381.902-.377.924-.374.94-.373.954-.364.962-.361.964-.352.955-.346.95-.343.938-.338.924-.337.913-.334.894-.334.877-.33.857-.319.828-.311.809-.296.794-.276.774-.254.769-.229.762-.207.757-.183.754-.164.753-.151.762-.14.772-.137.784-.138.804-.14.828-.145.851-.149.871-.153.887-.156.896-.153.896-.145.888-.125.874-.047.428c.753.585 1.496 1.177 2.256 1.752a63.27 63.27 0 0 0 2.75 1.966c1.194.809 2.4 1.605 3.611 2.39.413.22.822.443 1.226.677.775.447 1.545.898 2.316 1.349l.055-.185v-.004Z"/><path d="M232.834 254.913c.042-.053.083-.104.123-.157a140.99 140.99 0 0 1-.147-.477c-.089-.294-.142-.594-.202-.896.017.087.034.175.049.262-.027-.145-.057-.292-.085-.438l.051.261a12.999 12.999 0 0 1-.091-.517 42.85 42.85 0 0 0-.5 1.064c-.141.334-.352.69-.243 1.058.091.181.223.249.366.251.245 0 .521-.204.677-.408h.002v-.003Zm-10.288-37.125c-.4-.992-.813-1.975-1.29-2.933a82.291 82.291 0 0 0-1.494-2.873 54.702 54.702 0 0 0-.822-1.383c-.308-.509-.608-1.026-.93-1.526-.544-.847-1.149-1.65-1.745-2.461.004.009.011.015.017.024-.449-.605-.921-1.19-1.37-1.794-.441-.594-.867-1.199-1.301-1.797-.562-.73-1.187-1.408-1.79-2.104-.581-.673-1.155-1.345-1.762-1.992a143.404 143.404 0 0 0-2.09-2.11c-.804-.8-1.564-1.638-2.339-2.466-.54-.547-1.108-1.06-1.66-1.594-.417-.405-.832-.809-1.247-1.215a153.45 153.45 0 0 0-5.306-3.927c-3.466-2.345-7.119-4.408-10.69-6.587-.985-.558-1.945.83-.938 1.52 3.771 2.23 7.498 4.548 11.116 7.023 11.109 7.87 20.065 16.264 25.819 28.793.113.249.224.5.332.749-.17-.449-.338-.898-.512-1.345l.002-.002Zm2.316 5.683a26.27 26.27 0 0 0-.229-.547c.253.638.501 1.281.744 1.926a51.911 51.911 0 0 0-.517-1.379h.002Zm3.715 11.577c-.323-1.243-.596-2.503-.949-3.735-.217-.675-.477-1.334-.726-1.998-.251-.664-.481-1.337-.732-2.003-.189-.507-.385-1.007-.576-1.511a122.491 122.491 0 0 1 3.017 9.375c-.01-.043-.023-.088-.034-.13v.002Zm1.239 3.959a36.219 36.219 0 0 0-.508-1.88c-.053-.18-.104-.361-.155-.54.282 1.064.55 2.13.805 3.201a22.38 22.38 0 0 0-.144-.781h.002Z"/><path d="m233.168 258.524.156-.664.142-.672.132-.673.087-.479a2.048 2.048 0 0 1-.562-.77c-.051-.121-.085-.249-.125-.375l.015.045c-.07-.215-.136-.43-.202-.647-.09-.294-.143-.594-.203-.896.017.087.034.175.049.262-.027-.145-.057-.292-.085-.439l.051.262a14.366 14.366 0 0 1-.202-1.375c-.042-.459-.081-.919-.155-1.372-.07-.339-.158-.671-.224-1.009-.083-.426-.138-.856-.2-1.286a40.893 40.893 0 0 0-.513-2.398l-.298-1.29c.02.092.039.185.056.279.521 2.918.798 5.878.985 8.834.06.949.094 1.903.17 2.852.113.722.056 2.141.796 2.318l.13-.507Z"/><path d="M231.457 257.523c-.062-1.369-.366-2.718-.605-4.063.628.547 1.688-.036 1.569-.87a44.69 44.69 0 0 0-.164-1.901c-.068-.323-.151-.643-.215-.968-.083-.426-.138-.856-.2-1.284a43.041 43.041 0 0 0-.513-2.4c-.209-.89-.406-1.786-.624-2.673-.2-.773-.412-1.543-.547-2.331-.112-.666-.21-1.334-.344-1.996a40.329 40.329 0 0 0-.498-1.85l-.107-.319c-.117-.319-.219-.657-.404-.947-.451-.692-1.618-.423-1.754.379-1.762-4.393-3.599-8.777-5.987-12.874-6.41-10.882-15.112-20.156-23.3-29.695-.776-.843-2.117.381-1.306 1.234 7.9 9.258 16.219 18.309 22.582 28.731 3.921 6.796 6.864 14.277 9.229 21.721-1.122.381-.452 1.733-.298 2.546.31 1.234.617 2.471.913 3.709.449 1.907.889 3.823 1.191 5.759-.095.528.303.813.696.813.356 0 .707-.232.692-.721h-.006Zm-10.539 31.919.259-.821.271-.805.055-.155c-8.811-5.582-16.798-12.412-24.692-19.203-14.37-12.529-28.054-26.044-39.817-41.067-1.062-.938-2.786-4.865-4.155-3.816a.966.966 0 0 0-.17 1.339c2.36 3.024 4.659 6.097 7.06 9.09 14.795 17.06 31.242 32.689 48.966 46.649 3.923 2.894 7.937 6.146 12.189 8.913l.036-.124h-.002Z"/><path d="m220.917 289.466.26-.821.111-.33a72.526 72.526 0 0 1-4.259-2.346c-3.78-2.162-7.278-4.784-10.479-7.734-.901-.808-1.814-1.606-2.707-2.422-1.075-.944-2.067-2.009-3.255-2.815-.174-.113-.444-.17-.585.025-.404.615 1.235 2.265 1.637 2.759 2.526 2.664 5.28 5.12 8.13 7.434 3.405 2.653 7.131 4.869 10.979 6.823l.168-.573Zm-113.669 12.951c.144-.196-.164-.396-.283-.183-.085.128.034.26.151.26a.155.155 0 0 0 .132-.077Z"/><path d="M97.675 312.218c3.207-5.297 6.606-10.488 9.658-15.879a92.83 92.83 0 0 0 7.753-20.34.971.971 0 0 0 1.375.179c-.353 6.668-2.09 13.112-5.365 18.903-1.641 2.803-3.284 5.698-5.336 8.207-.27.328-.2.926.3.955.277.02.558-.153.777-.308.696-.503 1.269-1.156 1.803-1.822 2.82-3.712 5.252-7.749 6.963-12.095 2.563-6.642 3.246-13.889 2.822-20.957-.157-3.456-.864-6.842-1.53-10.228-.174-.86-.117-2.245-1.372-2.071-.909.221-.805 1.075-.701 1.807.079.866.151 1.73.228 2.596-.064 1.241-.136 2.508-.119 3.763-.49 6.07-1.943 12.014-3.865 17.769-2.037 5.731-4.469 11.356-7.679 16.536a999.353 999.353 0 0 1-7.289 11.97c-.44.728.168 1.449.817 1.449.273 0 .551-.128.762-.434h-.002Z"/><path d="M115.769 267.539c1.109-.194 2.154-.653 3.203-1.043 4.406-1.704 8.705-3.684 12.836-5.976 8.192-4.678 15.787-10.516 22.093-17.552 4.182-4.611 7.909-9.615 11.254-14.863.484-.751.962-1.505 1.437-2.26.475-.754.958-1.509 1.364-2.303.113-.219.234-.449.239-.702 1.174-1.456 2.349-2.91 3.522-4.368.734-.996-.69-2.179-1.53-1.181-4.812 5.895-9.486 11.929-14.453 17.692a115.491 115.491 0 0 1-13.523 12.857c-3.584 2.79-7.253 5.504-11.052 7.987a100.972 100.972 0 0 1-8.283 3.612c-1.075-.015-2.033.662-3.005 1.041-1.292.657-2.684 1.096-3.985 1.73-1.03.632-.217 2.196.928 1.703-.57.4-1.147.796-1.745 1.155-.4.281-.938.43-1.2.869-.411.659.217 1.566.979 1.406.162.168.392.22.623.22.103 0 .205-.011.298-.024Zm11.934-6.934a8.38 8.38 0 0 1-.164.083c1.602-1.043 3.169-2.139 4.744-3.222a61.468 61.468 0 0 0 7.057-4.065 106.902 106.902 0 0 1-3.116 2.196c-2.726 1.858-5.584 3.51-8.521 5.008ZM42.64 35.062c1.693-1.098 3.398-2.18 5.017-3.384-.004 0-.008.006-.013.008 1.986-1.472 3.85-3.1 5.791-4.63 1.26-.984 2.537-2.003 4.03-2.61 2.398-.82 1.189.113 1.946.685.237.133.505.015.7-.131 1.054-1.026.165-2.657-1.21-2.737-2.905-.164-5.845 2.68-8.047 4.341-1.384 1.118-2.75 2.263-4.18 3.323-1.662 1.21-3.341 2.394-5.076 3.496-.877.598-.332 1.792.513 1.792.168 0 .347-.047.532-.155h-.002v.002Z"/><path d="M43.056 32.829c2.577-.106 4.699-1.89 6.631-3.429 1.28-1.06 2.552-2.13 3.885-3.124 1.732-1.243 3.477-2.569 5.516-3.256.887-.2 1.213-1.168.357-1.654-.855-.355-1.777.13-2.55.49-2.321 1.21-4.403 2.835-6.459 4.446-2.264 1.73-5.586 5.282-8.653 4.45-1.53-.396-2.569-1.71-3.214-3.084-.54-1.07-2.128-.34-1.655.77.966 2.448 3.162 4.4 5.863 4.4.094 0 .185 0 .28-.007h-.001v-.002Z"/><path d="M50.194 36.844c2.017-1.952 4.005-3.929 5.988-5.857l-.089.087c1.91-1.896 6.372-5.75 4.62-8.658-.387-.915-1.572-1.447-2.49-1.03-.64.27-.747 1.196-.072 1.492-.764.909-1.19 2.041-1.815 3.044-.454.76-.935 1.5-1.424 2.239-.385.574-.754 1.164-1.166 1.72-.324.376-.69.867-.43 1.374a432.534 432.534 0 0 1-3.9 3.848c-.28.291-.67.543-.697.983-.066.55.43.973.925.973a.79.79 0 0 0 .55-.215Z"/><path d="M47.187 31.72c3.848-.939 7.65-5.583 10.513-8.258.36-.702-.702-1.302-1.11-.62-3.197 1.897-8.803 9.273-12.609 6.381-3.415-3.094-3.418-10.445-3.867-14.836-.37-3.624-.025-7.344-.76-10.914-.393-1.996-2.85-2.426-4.047-.84-2.124 2.677-2.39 6.361-2.782 9.643a268.352 268.352 0 0 0-.66 9.33c.028 1.051-.353 2.28.188 3.23.33.397.974.43 1.317.035.822-1.52.828-3.382 1.209-5.053.41-2.364.82-4.73 1.27-7.089.994.045 1.05-1.123 1.222-1.847.326-1.622.636-3.252.798-4.9.175 3.927.268 7.858.63 11.774.575 4.92 1.211 14.057 7.536 14.057.366 0 .75-.03 1.156-.093h-.004ZM37.652 4.265a1.022 1.022 0 0 0-.738-.492c.106-.102.204-.144.291-.144.247 0 .404.345.45.636h-.003Z"/><path d="M33.257 23.842a46.057 46.057 0 0 0 1.84-4.122c1.508-4.167 1.563-8.666 2.11-13.02.124-.876.188-1.522.37-2.338.152-.227.243-.498.292-.764.043-.278.139-.568-.066-.813-.255-.313-.66-.117-.898.115-1.353-.055-1.238 1.816-1.477 2.754-.41 2.626-.562 5.287-.955 7.917-.196 1.322-.417 2.637-.758 3.931-.539 1.892-1.36 3.686-2.235 5.442-.368.79.268 1.443.92 1.443.323 0 .65-.16.86-.545h-.003Z"/><path d="M33.63 19.73c.585-2.567 1.302-5.134 1.628-7.747.194-1.364.349-2.737.383-4.116-.02-.445.098-.937-.11-1.345-.407-.49-.873.068-.986.502-.292.851-.46 1.743-.639 2.624-.64 3.241-1.296 6.48-2.036 9.703-.126.67.387 1.079.896 1.079.37 0 .738-.215.864-.703v.003Z"/><path d="M22.982 24.551a.94.94 0 0 0 .735-1.092c-.243-1.334-.488-2.67-.741-4.003-.768-3.967-2.356-7.706-3.407-11.599-.335-1.381-.688-2.805-.528-4.233.347-2.139 1.44-2.81 2.562-.585 1.673 3.241 2.671 6.714 3.946 10.113.451 1.224.892 2.463 1.526 3.607.706 1.258 1.677 2.57 3.154 2.918 1.315.29 2.596-.58 3.218-1.698.623-1.05.86-2.273 1.068-3.463.221-1.26.383-2.53.57-3.794.277-1.863.565-3.72.867-5.576.027-.44.279-1.013.145-1.422-1.437-1.437-2.578 5.768-2.76 6.623-.186.956-.358 1.915-.541 2.871-.288 1.3-.45 2.68-1.113 3.854-1.405 2.29-3.146-1.59-3.644-2.739-1.303-3.203-2.299-6.52-3.644-9.709C23.64 2.966 23.012.964 21.33.023c-1.314-.677-2.954.079-3.57 1.358-2.017 3.807 1.024 9.832 2.095 13.738a45.493 45.493 0 0 1 1.453 5.637c.207 1.02.4 2.041.585 3.063.081.44.492.751.92.751a.94.94 0 0 0 .172-.017h-.002v-.002Zm312.133 29.54c2.673-3.57 4.397-7.832 6.083-11.963.943-2.6 2.083-5.207 2.33-7.989.247-2.967-1.839-4.765-4.352-2.582-2.133 1.907-3.344 4.568-4.589 7.088-1.355 2.65-2.417 5.475-4.128 7.927-.624.788-1.288 1.752-2.318 2-.949.122-1.837-.548-2.171-1.412-.655-1.699-.517-3.531-.347-5.283.309-3.156 1.471-6.18 1.52-9.366-.004-.76.164-2.069-.939-2.035a.841.841 0 0 0-.766.896c.017.179.024.358.028.54 0 .49-.039.98-.09 1.467-.566 4.1-2.094 8.13-1.649 12.323.16 1.538.707 3.164 2.028 4.082 1.224.88 2.95.966 4.195.083 2.271-1.605 3.392-4.3 4.599-6.709 1.103-2.292 2.169-4.6 3.38-6.838.853-1.428 1.768-2.994 3.237-3.854.464-.234.581.466.636.79.13 1.015-.138 2.09-.362 3.05-.272 1.147-.627 2.277-.989 3.398-1.522 4.697-3.408 9.141-5.853 13.408-.532.309-.238 1.043.264 1.043a.581.581 0 0 0 .255-.062l-.002-.002Z"/><path d="M332.792 53.262a.75.75 0 0 0 .459-.317c.735-1.007 1.45-2.028 2.167-3.045.734-1.058 1.505-2.095 2.241-3.15.734-1.069 1.434-2.16 2.128-3.257 1.356-2.13 2.746-4.324 3.203-6.848.285-1.794.696-3.801-.125-5.506-.473-.951-1.69-1.3-2.625-.834-.785.41-1.387 1.106-1.96 1.768-2.9 3.818-4.439 8.452-6.729 12.63-.658 1.149-1.354 2.321-2.384 3.177-1.566 1.273-2.873.338-2.828-1.554.085-2.63.802-5.195 1.232-7.783.458-2.377.877-4.85.294-7.244-.405-1.622-1.509-3.557-3.38-3.606-.375 0-.777.085-1.058.351-.279.264-.466.775-.106 1.067.389.268.915.178 1.319.425 1.299.905 1.48 2.693 1.554 4.153-.047 2.988-.845 5.746-1.317 8.66-.262 1.596-.611 3.22-.411 4.84.198 1.797 1.645 3.387 3.554 3.157 2.988-.395 4.531-3.718 5.787-6.108 1.409-2.517 4.935-11.811 7.412-12.354.528.843.322 1.954.266 2.899-.166 1.892-.795 3.89-1.736 5.495a97.766 97.766 0 0 1-3.971 6.514 148.165 148.165 0 0 1-3.736 5.376c-.325.453.077 1.109.596 1.109a.663.663 0 0 0 .156-.02v.005h-.002Zm-26.604 22.295c.253 0 .458-.236.605-.415 1.281-1.832 1.404-4.243 1.526-6.41.283-7.098-2.227-13.883-4.412-20.527.53.505 1.483.151 1.587-.566a.97.97 0 0 0 1.177-.238c1.882 2.332 3.429 4.926 5.4 7.185.681.747 1.883.272 1.738-.767a3.765 3.765 0 0 0-.344-.879c-.898-.176-1.688-.772-2.148-1.57-.034-.062-.068-.121-.102-.185a8.096 8.096 0 0 1-.953-.984c-.435-.525-.841-1.072-1.275-1.6a25.833 25.833 0 0 1-1.275-1.722l.136.198c-.491-.704-.97-1.413-1.453-2.124-.232-.32-.479-.628-.707-.95-.281-.397-.547-.808-.819-1.212-.296-.41-.613-.802-.922-1.205a39.115 39.115 0 0 1-.938-1.277c-.909-.034-1.707.447-1.941 1.748-.579 2.87.885 5.671 1.709 8.357 1.185 3.437 2.356 6.89 3.177 10.437a34.71 34.71 0 0 1 .819 9.418c-.087 1.432-.285 2.958-.732 4.303-.061.226-.178.445-.183.679a.32.32 0 0 0 .324.308h.01-.004v-.002Z"/><path d="M309.644 71.52c.45-.007.894-.41.856-.882a117.736 117.736 0 0 0-.466-4.51c-.281-2.304-.49-4.62-.885-6.908a58.499 58.499 0 0 0-1.658-6.693c-1.003-3.186-2.205-6.089-3.342-9.18-.198-.52-.398-1.038-.474-1.585-.188-.455-.896-.449-1.067.022-.117 1.5.475 2.983.894 4.414.456 1.415.95 2.82 1.426 4.228a68.795 68.795 0 0 1 2.069 7.362c.638 2.969.987 5.993 1.364 9.003.143 1.217.279 2.436.383 3.66-.027.522.302 1.066.866 1.066h.034v.003Zm3.851-18.028c1.264-.126 2.394-.83 3.254-1.74 2.42-2.485 3.086-6.029 4.171-9.204.862-2.877 1.858-5.712 2.695-8.594.189-.636.385-1.27.574-1.907a.826.826 0 0 0-.045-.63c-.291-.627-1.302-.57-1.5.107-.17.572-.345 1.143-.53 1.711-.973 2.784-1.926 5.578-2.805 8.394-.979 2.711-1.532 5.67-3.256 8.038-1.152 1.603-3.099 2.71-4.846 1.254-.813-.558-1.56-1.7-2.669-1.473a.486.486 0 0 0-.343.479c.013.219.16.415.286.587.317.445.623.896.991 1.3.884 1.026 2.146 1.716 3.497 1.716.175 0 .349-.01.526-.036v-.002Z"/><path d="M306.848 56.36c.447-.145.755-.673.581-1.132a128.88 128.88 0 0 1-.445-1.177c.685-.281.46-1.18.215-1.673-.49-1.24-1.058-2.45-1.594-3.67-.726-1.657-1.364-3.172-1.962-4.796a.94.94 0 0 0 .832-.285.892.892 0 0 0 .23-.469c2.479 3.559 5.605 10.165 10.345 10.673.681.02 1.388-.172 1.92-.608.445-.46-.107-1.245-.692-.973-5.195.813-9.06-9.94-12.408-13.04-.776-.977-2.326-1.609-3.275-.506-.973 1.213-.653 2.918-.283 4.305.841 3.044 2.811 5.606 3.852 8.562.522 1.4 1.017 2.812 1.552 4.208a.918.918 0 0 0 .862.625.86.86 0 0 0 .27-.044Z"/><path d="M304.769 51.4c.99-.522.106-1.633-.113-2.371a53.749 53.749 0 0 1-.764-2.097 158.22 158.22 0 0 1-1.515-4.29c-.337-.611-.658-2.66-1.603-2.22-.675.33-.189 1.713-.113 2.311.458 2.292 1.36 4.444 2.316 6.564.389.68.513 2.175 1.419 2.175.113 0 .237-.024.373-.073Z"/><path d="M310.302 63.288a.768.768 0 0 0 .364-1.008c-.445-.977-.883-1.954-1.315-2.937-1.707-4.023-3.393-8.05-5.28-11.993a197.604 197.604 0 0 1-2.154-4.933c-.194-.434-.36-.9-.664-1.269-.626-.39-.415 1.028-.383 1.326.236 1.554.751 3.056 1.307 4.523.804 2.062 1.781 4.052 2.692 6.067.894 1.984 1.724 3.997 2.664 5.96.596 1.295 1.171 2.6 1.76 3.898a.764.764 0 0 0 1.009.364v.002ZM47.889 83.862c.221-.246.106-.68-.21-.776a35.363 35.363 0 0 1-6.06-6.038c-2.469-3.063-4.354-6.272-6.289-9.603-1.273-2.158-2.52-4.333-3.63-6.578-.584-1.043-2.154-.247-1.627.855 1.186 2.443 2.546 4.793 3.953 7.113 2.873 4.846 5.965 9.747 10.409 13.31.875.632 1.734 1.339 2.737 1.754a.484.484 0 0 0 .342.138.48.48 0 0 0 .375-.172v-.003Z"/><path d="M44.365 80.297c.172-.681-1.924-2.942-2.388-3.642-2.814-3.605-5.463-7.336-7.873-11.224-3.926-6.457-7.042-13.353-10.424-20.101-1.677-3.463-3.924-6.666-6.748-9.282-3.216-3.041-6.77-5.693-10.208-8.47-1.713-1.447-4.25-2.93-5.014-5.102.65.083 1.226.454 1.8.745 2.167 1.175 4.01 2.799 5.836 4.425 1.63 1.413 3.188 2.916 4.925 4.199a.87.87 0 0 0 1.326-.287c.41-.93-.84-1.565-1.366-2.152a131.03 131.03 0 0 0-1.737-1.532C10.498 26.224 2.31 18.452.127 21.468c-1.303 2.483 3.411 5.729 5.071 7.089 2.263 1.843 4.532 3.675 6.792 5.516 6.978 5.717 8.84 9.186 12.495 17.177 3.235 6.84 6.672 13.632 11.043 19.825a85.609 85.609 0 0 0 5.974 7.621c.524.581 1.051 1.162 1.622 1.699.157.146.353.327.577.357a.579.579 0 0 0 .662-.453h.002v-.002Z"/><path d="M15.903 33.833a.747.747 0 0 0-.219-1.02c-1.038-.702-2.08-1.402-3.114-2.111-2.532-1.784-5.082-3.55-7.614-5.33-.384-.22-4.646-3.63-2.605-3.268 1.057.368 2.04 1.143 2.907 1.745 1.162.86 2.298 1.713 3.445 2.586 1.769 1.273 3.463 2.767 5.504 3.58.783.274 1.011-.381.406-.871-1.566-1.38-3.262-2.607-4.852-3.96-1.758-1.393-3.448-2.906-5.384-4.049-.756-.417-1.6-.796-2.486-.69-1.475.156-2.269 1.572-1.5 2.878 1 1.703 2.717 2.829 4.284 3.965 2.109 1.486 4.303 2.837 6.463 4.246 1.258.828 2.503 1.677 3.75 2.522a.68.68 0 0 0 .39.117.754.754 0 0 0 .63-.336l-.005-.004Z"/><path d="M16.991 31.973c3.971-.545-1.696-8.07-2.611-9.795-1.592-2.602-3.033-5.295-4.406-8.021-.468-.854-1.76-.192-1.324.696 1.124 2.154 2.159 4.352 3.327 6.48 1.166 2.124 2.51 4.146 3.648 6.287.44.845.885 1.71 1.06 2.652-.805-.13-1.503-.604-2.22-.968-1.06-.6-2.069-1.27-3.067-1.969-2.684-1.84-5.189-3.988-8.109-5.461-.242-.113-.59-.29-.85-.136-.152.09-.241.272-.171.442.115.25.353.407.551.586a50.802 50.802 0 0 0 2.094 1.664c.975.74 1.933 1.503 2.905 2.247 1.982 1.43 6.68 5.293 9.052 5.293.04 0 .08 0 .119-.004v.006h.002Zm183.493 167.291a.816.816 0 0 0 .521-1.015 310.019 310.019 0 0 1-1.019-3.316c-1.137-3.541-1.792-7.121-2.416-10.766-1.743-9.448-1.215-19.174 1.292-28.423a37.399 37.399 0 0 1 1.318-3.859c.119-.487.676-1.238.129-1.581a.442.442 0 0 0-.619.256 18.383 18.383 0 0 0-1.66 3.305c-2.345 6.523-3.15 13.542-3.137 20.448 0 5.214.866 10.371 1.986 15.449.579 2.588 1.37 5.118 2.173 7.647.266.664.317 1.894 1.162 1.894.083 0 .172-.011.27-.036v-.003Z"/><path d="M195.432 198.57c.388-.021.745-.379.7-.781-.54-4.899-1.006-9.809-1.483-14.714-.347-3.612-.272-7.241-.313-10.865a298.628 298.628 0 0 1-.023-6.755v.004c.03-2.384.117-4.765.393-7.134.224-1.666.362-3.384.994-4.954.179-.273-.115-.677-.44-.556-.236.081-.256.324-.353.513-.388.934-.62 1.924-.822 2.916-.877 4.426-.99 8.977-1.049 13.472-.017 1.736-.039 3.473-.058 5.197-.161 4.876.303 9.732.809 14.576.238 2.424.481 4.848.743 7.27.115.666-.058 1.811.892 1.811h.01Zm.251-45.119s.002-.004.005-.004c0 0 0 .002-.003.004h-.002Z"/><path d="m232.625 260.446.194-.623.181-.643.168-.656.155-.664.143-.672.132-.673.004-.025c-.104-.479-.211-.958-.315-1.435-.592-3.011-1.064-6.125-1.699-9.109-1.902-9.672-4.882-19.15-9.336-27.963-2.186-4.435-4.631-8.766-7.628-12.71-2.998-4.075-6.47-7.772-10.194-11.19-2.439-2.32-4.918-4.605-7.517-6.749a54.442 54.442 0 0 0-4.05-3.005c-.319-.202-.613-.472-.99-.549-.757.009-.747.73-.308 1.215 1.004 1.237 2.334 2.15 3.53 3.189a184.064 184.064 0 0 1 5.019 4.454c4.246 3.971 8.532 7.949 12.029 12.61 4.173 5.28 7.338 11.267 10.107 17.379 3.505 7.575 5.808 15.824 7.455 23.954.594 2.788 1.039 5.829 1.586 8.562.376 1.817.827 3.758 1.238 5.586l.098-.285-.002.002Z"/><path d="M230.229 258.591c1.026-.164 2.062-.328 3.075-.564l.017-.074.143-.673.132-.672.123-.673.011-.066c-1.13.341-2.352.571-3.756.766-1.222.198-1.071 1.963.127 1.963.041 0 .081 0 .124-.007h.004Z"/><path d="m233.321 257.855.143-.672.131-.673.124-.672.119-.671.115-.668.115-.664.034-.204c-1.305-1.68-1.947-4.344-2.477-6.034-1.422-5.476-2.405-11.067-4.153-16.46-1.985-6.027-4.509-11.948-8.078-17.217-1.448-2.077-2.895-4.157-4.372-6.213-.357-.566-.879-1.196-1.615-.711a.903.903 0 0 0-.209 1.25c2.005 2.76 4.035 5.68 5.857 8.536 3.576 5.923 6.091 12.406 7.798 19.071.992 3.604 1.647 7.285 2.546 10.912.61 2.364 1.225 4.771 2.415 6.921-1.081-1.234-1.611-2.816-2.439-4.203-1.196-.752-.019 2.807.183 3.162.358.828.807 1.628 1.394 2.316-.602.809.373 1.534.934 2.02.398.297.886.736 1.403 1.023l.034-.151-.002.002Z"/><path d="m233.721 255.823.119-.671.115-.668.115-.664.098-.573a23.217 23.217 0 0 1-.883-2.373c-.447-1.477-.758-2.988-1.028-4.503a130.457 130.457 0 0 0-3.152-13.133 81.068 81.068 0 0 0-4.689-12.787c-2.537-5.64-5.44-11.141-9.017-16.194-3.712-5.318-8.59-9.639-13.591-13.699-3.256-2.703-6.825-4.944-10.392-7.202-.441-.279-.881-.558-1.322-.835-1.015-.598-2.022.848-.992 1.565 3.056 1.939 6.166 3.89 9.101 5.997 3.952 2.992 7.761 6.213 11.184 9.805 5.663 6.055 9.732 13.412 13.146 20.914 3.709 7.898 5.944 16.39 7.681 24.911.298 1.499.574 2.999.987 4.472.566 1.992 1.3 3.999 2.507 5.695l.011-.057h.002Zm16.92 29.578c.064-.045.127-.09.191-.132l-.193.132h.002Zm-.143.083s.005-.005.007-.005c-.068.047-.136.096-.206.143l.199-.136v-.002Zm-15.837 6.303s.007 0 .011-.003c-.011 0-.021.005-.033.007a.078.078 0 0 0 .022-.004Z"/><path d="M233.129 292.214h.004s.115-.152.175-.154c.379-.076.76-.155 1.139-.232a.481.481 0 0 1 .015-.002l.031-.006c-.004 0-.006 0-.01.002a.56.56 0 0 0 .089-.034h.007s-.024.021-.037.023c-.01 0-.021.005-.032.007l.032-.007.049-.01.13-.026c-.017.004-.047.226-.047.226h-.249l.126-.026-.126.026c-.004 0-.008 0-.012.002 1.443-.281 2.903-.485 4.337-.802a17.466 17.466 0 0 0 1.964-.63c.649-.249 1.303-.49 1.948-.747a.296.296 0 0 0 .017-.009c.717-.317 1.421-.662 2.132-.998.654-.311 1.315-.607 1.948-.96 1.242-.692 2.49-1.398 3.673-2.192.877-.617 1.749-1.237 2.633-1.845a93.085 93.085 0 0 0 2.447-1.733c.004-.004.009-.006.015-.01.583-.441 1.156-.896 1.732-1.345.592-.462 1.194-.915 1.786-1.377.217-.175.434-.356.645-.539 1.76-1.526 3.473-3.103 5.21-4.656 1.892-1.694 3.66-3.516 5.506-5.261-.069.063-.137.129-.205.193.143-.136.288-.27.43-.408l-.204.193c.553-.53 1.072-1.094 1.613-1.634.534-.532 1.094-1.032 1.652-1.537.097-.089.195-.176.297-.266 3.531-3.995 6.975-8.051 10.567-11.98 3.78-4.16 7.438-8.498 11.663-12.295 5.697-4.895 12.64-9.085 20.306-10.924.236-.113.474-.221.713-.33a33.587 33.587 0 0 1 3.347-1.268c1.167-.377 2.361-.56 3.574-.705 1.094-.129 2.196-.189 3.296-.257 1.186-.077 2.388-.16 3.572-.011.723.092 1.411.275 2.104.507.515.17 1.016.402 1.52.6 1.062.421 2.141.787 3.211 1.187 1.116.418 2.205.882 3.286 1.377 1.024.471 2.037.962 3.063 1.422.783.319 1.573.619 2.375.885.834.275 1.677.532 2.516.796 2.228.703 4.424 1.528 6.536 2.531 1.03.489 2.055.985 3.058 1.524l.177.095c.102.024.206.045.312.066 1.282.271 2.556.577 3.846.82 1.173.194 2.354.325 3.531.483 1.128.149 2.254.306 3.388.415.298.023.594.043.892.055.142.007.285.011.428.017a41.85 41.85 0 0 0-.456-.464 151.756 151.756 0 0 0-2.909-2.934 34.877 34.877 0 0 1-1.352-.682c-.942-.5-1.83-1.087-2.737-1.647l-.029-.019-.041-.025c-1.602-.952-3.307-1.735-4.833-2.806a14.353 14.353 0 0 1-.498-.363l-1.183-.243a35.661 35.661 0 0 1-1.56-.364c-.139-.034-.277-.07-.417-.106a99.703 99.703 0 0 1-1.535-.33c-.983-.215-1.668-1.23-1.656-2.203.007-.396.117-.785.32-1.126l-.115-.085c-.724-.553-1.433-1.132-2.139-1.705a14.491 14.491 0 0 1-1.205-1.077c-.362-.366-.706-.742-1.062-1.113-.617-.645-1.262-1.266-1.834-1.951-.347-.415-.684-.837-1.037-1.247-.332-.388-.692-.747-1.036-1.124a24.593 24.593 0 0 1-2.146-2.658 29.762 29.762 0 0 1-1.719-2.85c-.522-.977-1.06-1.939-1.513-2.952a17.972 17.972 0 0 1-1.109-3.314 61.419 61.419 0 0 0-.752-2.962 36.788 36.788 0 0 1-.698-2.884c-.178-.921-.34-1.839-.598-2.741a12.562 12.562 0 0 0-.387-1.02 10.427 10.427 0 0 0-.5-.893c-.23-.339-.479-.662-.741-.975-.257-.287-.525-.56-.806-.817-.632-.526-1.33-.971-2.02-1.418a11.718 11.718 0 0 0-.885-.521 8.783 8.783 0 0 0-.713-.281 15.064 15.064 0 0 0-1.724-.39c-.475-.07-.949-.112-1.426-.129a18.998 18.998 0 0 0-2.371.138c-.494.07-.983.155-1.466.274-.473.143-.937.313-1.394.492a37.7 37.7 0 0 0-.93.717c-.339.283-.656.588-.994.873-.437.366-.879.717-1.343 1.045l-.33.228c-.449.566-.907 1.125-1.345 1.698-.63.815-1.252 1.636-1.913 2.426-.66.788-1.352 1.543-2.044 2.305-.721.792-1.443 1.586-2.224 2.32a61.847 61.847 0 0 1-2.366 2.094 46.062 46.062 0 0 1-2.429 1.935c-.483.353-.972.695-1.468 1.027-.421.281-.834.577-1.273.833-.44.259-.898.496-1.338.749-.398.227-.786.468-1.173.713-.317.21-.63.428-.954.63-.304.189-.619.355-.942.513-.66.327-1.326.636-2.001.93-.392.17-.783.344-1.185.485-.36.125-.722.236-1.086.351a17.41 17.41 0 0 1-2.205.56c-1.966.353-3.933.704-5.901 1.049a73.81 73.81 0 0 1-3.212.451c-.479.058-.955.139-1.428.217-.447.073-.894.132-1.341.2-1 .162-1.996.332-2.992.511-.97.175-1.918.443-2.877.656a43.429 43.429 0 0 1-3.11.587c-.93.136-1.864.245-2.786.426-.834.193-1.632.485-2.447.745-.685.217-1.377.412-2.064.63-.813.272-1.624.572-2.414.904-.434.183-.862.381-1.292.566-.391.168-.785.33-1.175.5-.732.337-1.44.715-2.134 1.124-.828.502-1.654 1.009-2.429 1.592-.544.428-1.081.864-1.632 1.281l.202-.155c-.587.449-1.147.919-1.681 1.426-.756.751-1.456 1.551-2.177 2.334-.349.379-.7.754-1.058 1.126-.321.336-.649.664-.956 1.015-.47.605-.874 1.262-1.328 1.88a42.51 42.51 0 0 1-1.577 1.966l-.038.047s0 .002-.004.004h.198l-.017.021c-.011.013-.022.026-.03.039-.253.308-.507.615-.747.93-.283.368-.539.751-.785 1.143 0 0 0-.005.004-.007a24.342 24.342 0 0 1-1.403 1.995c-.506.634-1.038 1.245-1.5 1.913-.247.383-.481.77-.719 1.158-.539.864-1.075 1.732-1.72 2.522a45.664 45.664 0 0 1-2.071 2.351c-.574.613-1.172 1.222-1.856 1.716-.47.342-.953.672-1.443.985l.203-.132a6.919 6.919 0 0 1-.875.5c-.27.262-.551.515-.845.741a2.042 2.042 0 0 1-1.239.419 1.99 1.99 0 0 1-1.294-.475l-.087.479-.132.673-.142.672-.156.664-.168.656-.181.643-.194.623-.206.605-.217.589-.23.581-.243.581-.251.571-.261.572-.271.575-.274.576-.281.584-.283.591-.285.605-.288.621-.287.639-.285.653-.283.679-.286.702-.283.722-.285.745-.285.761-.289.779-.292.79-.296.796-.302.8-.309.805-.312.804-.315.798-.32.792-.319.779-.319.768-.317.758-.317.743-.313.734-.309.728-.306.728-.305.738-.3.749-.293.756-.286.768-.276.783-.271.803-.259.819-.053.187c.928.543 1.858 1.081 2.798 1.603.071.038.143.076.213.115a18.5 18.5 0 0 0 1.92.885c.657.258 1.332.468 1.99.719.638.245 1.249.545 1.883.801.624.255 1.269.457 1.911.653l.313.092-.193-.058c1.002.281 2.026.49 3.047.698.545.111 1.092.2 1.639.311.475.096.938.213 1.417.285.426.038.85.053 1.277.053h.285l-.012.213.008.009Z"/><path d="M243.845 236.453a4.345 4.345 0 0 0-.036.044l.038-.044h-.002Zm68.159-28.43c1.809-.724 3.625-1.433 5.432-2.163a.924.924 0 0 0 .513-1.189.927.927 0 0 0-1.192-.513 311.872 311.872 0 0 1-7.853 3.065 58.218 58.218 0 0 1-3.58 1.277c-.234.176-.468.336-.702.529-.154.128-.32.239-.49.341-.6.368-1.164.8-1.775 1.158-.438.259-.894.493-1.334.747-.464.266-.915.549-1.367.84 4.208-1.074 8.362-2.33 12.348-4.09v-.002Zm-84.844 47.155c.681-.335.434-1.356.517-1.98.005-.276.009-.551.007-.826a1.92 1.92 0 0 1-.249-.183l-.088.479-.131.673-.143.672-.155.664-.13.507a.637.637 0 0 0 .162.019.975.975 0 0 0 .212-.025h-.002Zm12.058 35.225c.692-.364 1.701-.609 1.98-1.418.089-.523-.569-.902-.977-.566-.66.258-1.552.251-2.011.837-.341.545.138 1.217.704 1.217a.72.72 0 0 0 .304-.068v-.002Z"/><path d="M233.048 292.209h.007-.004.021c.059-.149.119-.151.176-.155.394-.079.788-.16 1.182-.238l-.068.012.144-.029c.011-.003.032-.228.032-.228h.075c.036.215.072.206.108.213h-.006c.03-.019.057-.024.087-.03l-.115.023a.054.054 0 0 0-.021.005c-.017.004-.051-.211-.051-.211h-.075s-.061.234-.093.24c1.487-.295 2.994-.502 4.473-.83.415-.104.828-.227 1.235-.366.489-.385.7-.845.451-1.392-.581-.719-1.369.092-2.039.23-5.878 2.16-12.308.622-17.699-2.171a100.884 100.884 0 0 1-5.684-3.349l-.055.153-.271.804-.259.822-.037.125c.428.279.86.552 1.292.82.496.285.994.568 1.496.847l.213.115c.624.327 1.264.632 1.922.887.658.258 1.334.468 1.992.722.639.244 1.252.545 1.886.802.623.255 1.27.458 1.913.653l.313.092-.194-.058c1.005.281 2.028.49 3.052.699.545.11 1.094.2 1.641.31.475.096.941.213 1.42.285.429.039 1.285-.014 1.285-.014h.253v.212h.002Z"/><path d="M233.113 292.001c-.043 0-.085.002-.126.004.043 0 .085-.002.128-.004h-.002Zm17.385-6.517s.005-.005.007-.005l-.1.071.093-.064v-.002Z"/><path d="m234.494 291.818-.068.012.144-.029c.011-.003.022-.005.032-.228h.011c.036.215.072.206.108.213h-.006c.03-.02.058-.024.087-.03l-.115.023a.086.086 0 0 0-.021.004c-.017.005-.034.007-.051-.21h-.011c-.029.228-.061.234-.093.24 1.487-.296 2.994-.502 4.473-.83.664-.168 1.32-.381 1.958-.628.647-.249 1.299-.487 1.941-.747l.017-.006c.715-.315 1.418-.66 2.124-.994.652-.308 1.311-.604 1.941-.955 1.239-.69 2.482-1.394 3.661-2.184l.015-.011c.868-.61 1.732-1.223 2.605-1.826a97.366 97.366 0 0 0 2.454-1.736c.581-.439 1.151-.892 1.726-1.341.579-.451 1.164-.892 1.743-1.343-.234-.292-.692-.409-1.009-.128a109.16 109.16 0 0 1-2.995 2.614c-4.384 3.558-8.072 6.523-13.778 7.617a53.75 53.75 0 0 1-5.81.862c-2.307.14-4.403-.041-6.638-.405-2.586-.517-4.861-1.306-7.266-2.234a73.297 73.297 0 0 1-6.636-2.971l-.11.329-.26.822-.168.572c.758.384 1.522.76 2.288 1.126 5.169 2.435 10.654 4.523 16.37 4.676.447-.089.894-.181 1.339-.27v-.004h-.002Zm117.381-63.455c.007-.484.17-.958.464-1.341l.058-.073a52.8 52.8 0 0 1-11.599-11.599c-.956-1.415-1.718-2.945-2.584-4.411-2.113-3.046-4.476-5.93-6.925-8.711-.573-.628-1.733-.139-1.682.713 0 .532.477.851.779 1.23 1 1.141 1.96 2.315 2.897 3.509a117.441 117.441 0 0 1 2.822 3.744c.923 1.411 1.632 2.95 2.549 4.367 1.848 2.873 4.212 5.38 6.609 7.8a57.046 57.046 0 0 0 6.731 5.523 2.276 2.276 0 0 1-.125-.751h.006Zm20.931 9.312c-.213-.328-.44-.639-.683-.943a14.415 14.415 0 0 0-.913-.954l-.217-.181a69.763 69.763 0 0 1-4.116-1.228 52.092 52.092 0 0 1-5.097-2.009c-.226-.068-.451-.138-.677-.204a29.626 29.626 0 0 0-.755-.185c-1.103-.249-2.214-.464-3.321-.698a38.861 38.861 0 0 1-1.553-.362c-.139-.034-.277-.072-.415-.106l-.556-.117a56.441 56.441 0 0 0 8.345 4.292c3.003 1.188 6.104 2.124 9.245 2.878.311.087.628.166.945.24-.072-.143-.149-.281-.227-.421h-.005v-.002Zm-3.088 3.205a20.38 20.38 0 0 0 1.954-.415c.27-.083.538-.17.802-.272.073-.034.143-.068.213-.107l.055-.038c-2.522.006-5.044-.243-7.525-.687-9.213-1.782-17.677-5.959-26.395-9.254-4.567-1.677-9.304-3.118-14.199-3.294-8.296-.35-16.552 2.07-23.579 6.437-1.283.784-2.543 1.622-3.697 2.593-.283.287-.738.506-.792.934.171.866 1.186.177 1.641-.068.571-.324 1.13-.664 1.699-.992 1.089-.63 2.2-1.226 3.226-1.747 8.792-4.678 19.259-6.708 28.974-3.961 10.396 2.969 20.357 8.596 30.923 10.969.535.041 1.069.062 1.605.087.624.028 1.245.06 1.869.064a34.144 34.144 0 0 0 3.228-.249h-.002Zm.362.892c-.034 0-.068.003-.1.005.034 0 .068-.005.1-.005Z"/><path d="M372.472 240.186c.073-.035.143-.069.213-.107a5.29 5.29 0 0 0 .204-.145c.126-.11.247-.225.364-.342.064-.075.13-.151.192-.228a10.18 10.18 0 0 0-.141-.617 11.327 11.327 0 0 0-.134-.377c-.113-.238-.236-.47-.366-.702a12.615 12.615 0 0 0-.587-.822c-1.452-.398-3.367-.634-4.221-.851-.804-.07-2.151-.67-2.739.064-.84-.187-2.107-.875-2.839-.185-.368.349-.4 1.03-.008 1.381.674.538 1.615.598 2.424.838 1.221.281 2.437.581 3.641.928-.012 1.001.909 1.079 1.688 1.128.441.075.883.122 1.328.171.145.015.302.04.46.049.174-.058.349-.117.521-.183Z"/><path d="M373.085 239.597c.064-.075.13-.149.192-.226a9.84 9.84 0 0 0-.14-.617 14.194 14.194 0 0 0-.135-.377 10.97 10.97 0 0 0-.344-.664c-2.05-.238-4.069-.828-6.083-1.306-4.103-1.005-8.149-2.224-12.154-3.563-3.388-1.103-6.679-2.414-9.937-3.844-5.265-2.268-10.56-4.463-15.853-6.663a717.834 717.834 0 0 0-4.642-1.907.984.984 0 0 0-1.275.521.982.982 0 0 0 .522 1.275c7.927 3.226 15.8 6.581 23.676 9.928 4.612 1.886 9.371 3.369 14.149 4.759 3.428.937 6.876 1.833 10.371 2.492.538.096 1.081.166 1.624.224l.029-.03v-.002Z"/><path d="M339.584 229.229c.085-.832-2.981-1.521-3.688-1.815-4.161-1.249-8.46-1.943-12.727-2.728-1.09-.149-1.43 1.451-.364 1.749 3.018.609 5.927 1.417 8.945 1.981.72.149 1.43.3 2.148.452.34.083.717-.022.934-.305 1.158.268 2.311.556 3.467.837.24.038.602.204.881.204.204 0 .364-.087.404-.375Zm-52.933 19.478c9.143-9.612 21.199-17.995 34.705-19.306a65.846 65.846 0 0 1 2.81-.119c.632.006.953-.489.957-.987.002-.498-.315-.996-.957-.988-13.162-.062-25.227 7.3-34.536 16.094-.619.623-5.476 5.342-3.358 5.342.109 0 .234-.013.381-.039l-.002.003Z"/><path d="M290.601 241.803c.406-.311.828-.609 1.243-.911a56.233 56.233 0 0 1 4.101-2.693c7.106-4.158 15.415-6.891 23.506-7.448 5.942-.366 11.886.691 17.475 2.628 3.256 1.136 6.355 2.667 9.535 3.995 1.27.521 2.552 1.03 3.843 1.511.822.187 1.654.33 2.48.511.943.206 1.851.525 2.792.74.802.145 1.613.258 2.424.351.754.06 1.509.075 2.26.151.813.086 1.622.203 2.435.305.643.059 1.286.083 1.928.115.624.027 1.245.059 1.869.064a34.551 34.551 0 0 0 2.728-.19 59.246 59.246 0 0 1-1.415-.074c-6.964-.32-13.593-2.439-19.984-5.102-4.231-1.753-8.337-3.841-12.761-5.091 3.22.775 6.372 1.79 9.534 2.767 5.132 1.567 10.388 2.792 15.634 3.882 3.882.817 7.764 1.539 11.714 1.896.5.058 1.003.1 1.507.141-.04-.202-.085-.402-.136-.6a14.159 14.159 0 0 0-.134-.377c-.113-.238-.236-.47-.366-.702l-.09-.137a96.232 96.232 0 0 1-3.256-.376c-3.773-.505-7.495-1.341-11.214-2.148a179.301 179.301 0 0 1-16.485-4.484 134.008 134.008 0 0 0-15.404-3.763c-.039-.896-1.056-.913-1.733-.834-.776.034-1.551.098-2.324.168-2.066.258-4.156.136-6.223.405-1.624.164-3.235.436-4.841.719-3.012.304-6.04.6-8.969 1.398-.972.258-1.926.583-2.864.943-.452.192-.943.343-1.309.681-.466.421-.275 1.234.285 1.464.328.156.689.077 1.028 0 .5-.11.996-.242 1.494-.364 5.631-1.281 11.303-2.558 17.068-3.047 3.816-.264 7.645.17 11.363 1.028-9.228-1.65-18.897.036-27.365 3.928-3.914 1.818-7.732 3.976-10.907 6.934-.332.381-1.645 1.324-.82 1.711a.393.393 0 0 0 .356-.098h-.002v.003Z"/><path d="M334.237 231.599c.415-.283.523-.904.223-1.309-.149-.208-.355-.321-.596-.381l-1.968-.496c-2.552-.683-5.138-1.304-7.779-1.485-2.554-.164-5.148-.036-7.63.617-.515.126-4.027 1.122-2.873 1.824 2.124-.36 4.265-.756 6.434-.779a35.141 35.141 0 0 1 4.339.211c2.537.313 5.006.985 7.496 1.547.547.134 1.096.272 1.643.411a.745.745 0 0 0 .17.019.982.982 0 0 0 .543-.177l-.002-.002Z"/><path d="M366.788 242.021c1.892-.151 4.197-.162 5.755-1.358 1.56-1.332.572-3.235-.801-4.259-1.345-1.049-2.92-1.749-4.465-2.451-2.781-1.228-5.642-2.214-8.391-3.495-3.22-1.479-6.43-2.992-9.543-4.686-3.176-2.031-6.07-4.493-9.363-6.334-1.334-.745-2.196.836-.983 1.722 2.177 1.749 4.504 3.318 6.853 4.827 1.747 1.13 3.686 1.934 5.374 3.154-.579.312-.583 1.187-.034 1.534.232.143.492.236.732.366.843.319 2.037 1.456 2.907.779.596.275 1.196.543 1.801.8.474.23 1.089-.023 1.247-.53 3.843 1.775 7.947 2.903 11.658 4.914 7.27 4.2-6.338 3.314-8.57 3.025-5.357-.696-10.554-2.343-15.577-4.295-8.977-3.544-17.96-8.411-27.865-8.183-.7.055-1.417.113-2.075.37a.465.465 0 0 0-.334.258c-.202.47.357.885.736.553 3.091-.306 6.168.521 9.16 1.202 5.387 1.337 10.416 3.716 15.5 5.879 7.764 3.256 15.975 6.25 24.473 6.25.598 0 1.198-.015 1.801-.044h.004v.002Z"/><path d="M369.429 241.063c1.426-.217 2.956-1.085 3.182-2.628.236-1.667-1.386-2.954-2.641-3.584-2.329-1.232-4.846-2.06-7.255-3.114-2.316-.983-4.595-2.051-6.704-3.194-2.984-1.582-5.83-3.437-8.29-5.761-3.011-2.869-5.887-5.996-8.573-9.15-1.749-2.085-3.339-4.297-4.914-6.516-1.385-1.931-2.726-3.893-4.086-5.843a.755.755 0 0 0-1.045-.17.759.759 0 0 0-.17 1.045c1.526 2.188 3.047 4.378 4.518 6.602 3.733 5.706 8.3 10.795 13.187 15.517 5.74 5.359 13.201 8.266 20.367 11.193 1.369.57 5.987 2.468 2.677 3.637-.927.27-1.885.432-2.841.576-.43.079-.874.118-1.283.279-.283.049-.349.481-.1.613.698.488 1.549.647 2.405.647a9.4 9.4 0 0 0 1.562-.147h.004v-.002Zm-141.06 21.933c.472-.064.875-.54.781-1.028-.319-1.641-.651-3.279-.951-4.922-.228-1.441-.537-2.878-.849-4.306l-.005.026-.132.672-.142.673-.156.664-.168.655-.181.643-.193.624-.098.285c.093.419.187.834.274 1.241.271 1.33.53 2.662.79 3.994a.93.93 0 0 0 .898.792.815.815 0 0 0 .13-.011l.002-.002Z"/><path d="M230.174 253.091c5.682-2.88 9.026-8.57 12.669-13.544 7.14-9.694 14.572-15.479 26.567-17.767 2.041-.406 4.101-.683 6.164-.953 1.408-.168 2.885-.496 4.271-.434.33-.088.464-.554.185-.775-.592-.585-3.077-.221-3.958-.217-14.313.721-24.397 5.642-33.188 17.032-3.38 4.221-5.842 8.969-9.956 12.508-1.863 1.602-3.523 2.503-5.447 3.084l-.01.066-.124.672-.132.673-.142.672-.017.075c1.077-.251 2.128-.585 3.122-1.088l-.004-.004Z"/><path d="M234.094 253.322c.387-.474.834-.947 1.079-1.511.24-.713-.569-1.402-1.235-1.049-.328-.089-.666.036-.975.145-.825.298-1.694.585-2.583.51-1.056-.102-1.875-.695-2.529-1.536l-.034.204-.115.664-.114.668-.12.671-.123.672-.132.673-.143.672-.034.152c.564.315 1.16.446 1.714.019 1.027.208 2.079.323 3.128.33.06.006.117.008.175.008.868 0 1.526-.647 2.045-1.294h-.004v.002Z"/><path d="M230.076 253.585c.115-.4-.213-.726-.417-1.034a21.185 21.185 0 0 1-.649-.958 15.814 15.814 0 0 1-1.094-2.081l-.098.572-.115.664-.115.668-.119.671-.011.057c.194.273.398.535.617.79.337.387.964 1.024 1.471 1.024.206 0 .391-.105.53-.373Zm20.422 31.899s.005-.005.007-.005l-.1.071.093-.064v-.002Z"/><path d="M235.226 291.147a35.24 35.24 0 0 0 6.508-1.092c.385-.145.77-.291 1.151-.445l.017-.006c.715-.315 1.418-.66 2.124-.994.651-.309 1.311-.604 1.941-.956 1.239-.689 2.482-1.394 3.661-2.183a.065.065 0 0 1 .015-.011c.868-.611 1.732-1.224 2.605-1.826a99.241 99.241 0 0 0 2.453-1.736c.582-.439 1.152-.892 1.726-1.341l.305-.237.185-.225c.023-.026.034-.062.062-.081a.416.416 0 0 0 .161-.562.414.414 0 0 0-.512-.183c-.973.711-1.922 1.475-2.869 2.231-5.751 4.535-12.812 7.561-20.146 7.9-2.541.117-5.117.112-7.624-.362-1.192-.247-2.349-.624-3.505-.998-1.113-.311-1.713 1.338-.624 1.796.69.249 1.399.447 2.105.64 2.235.599 4.548.801 6.862.801 1.136 0 2.273-.049 3.401-.124v-.006h-.002Z"/><path d="M230.852 290.071a.862.862 0 0 0-.753-.945 56.832 56.832 0 0 1-3.024-.43c-1.273-.245-2.539-.53-3.78-.913-7.092-2.369-12.542-7.623-18.39-12.022-.484-.356-.962-.722-1.465-1.054-.066-.04-.138-.094-.213-.132-.166-.121-.395-.015-.444.172-.068.609 1.323 1.703 1.745 2.18.851.819 1.724 1.617 2.603 2.405 5.378 4.658 11.196 9.517 18.384 10.858 1.457.245 2.922.456 4.388.63a.863.863 0 0 0 .945-.753l.004.004Zm19.646-4.587s.005-.005.007-.005l-.1.071.093-.064v-.002Z"/><path d="M233.758 291.966c.245-.048.491-.1.736-.148l-.068.012.145-.03c.01-.002.021-.004.032-.227h.01c.037.215.073.206.109.213h-.007c.03-.02.058-.024.088-.03l-.115.023a.071.071 0 0 0-.021.004c-.017.005-.035.007-.052-.21h-.01c-.03.227-.062.234-.094.24 1.488-.296 2.995-.502 4.474-.83a17.025 17.025 0 0 0 1.958-.628c.647-.249 1.298-.487 1.941-.747l.017-.006c.715-.315 1.417-.66 2.124-.994.651-.309 1.311-.604 1.941-.955 1.238-.69 2.481-1.394 3.66-2.184l.015-.011c.868-.611 1.733-1.223 2.605-1.826.792-.547 1.581-1.096 2.358-1.666-.181-.358-.638-.577-1.079-.258a101.678 101.678 0 0 1-3.846 2.771c-7.274 5.261-14.848 6.726-23.627 5.078-2.465-.444-4.855-1.243-7.124-2.294-2.27-1.058-4.348-2.469-6.531-3.69-.313-.132-.703-.439-.934-.134-.156.453.4.87.659 1.181 5.323 5.067 12.78 7.351 20.076 7.351.185 0 .37 0 .558-.005h.002Z"/><path d="M250.498 285.484s.005-.005.007-.005l-.1.071.093-.064v-.002Z"/><path d="M231.935 292.3c.247-.037.494-.077.741-.117.607-.115 1.211-.241 1.817-.364l-.068.012.145-.029c.011-.002.021-.005.032-.228h.011c.036.215.072.206.108.213h-.006c.03-.019.057-.024.087-.03l-.115.023a.054.054 0 0 0-.021.005c-.017.004-.034.006-.051-.211h-.011c-.03.228-.062.234-.093.24 1.487-.295 2.994-.502 4.473-.83.664-.168 1.32-.381 1.958-.627.647-.249 1.298-.488 1.941-.747a.122.122 0 0 1 .017-.007c.715-.315 1.417-.66 2.124-.994.651-.308 1.311-.604 1.941-.955 1.239-.69 2.482-1.394 3.661-2.184l.015-.011c.868-.61 1.732-1.223 2.604-1.826a95.56 95.56 0 0 0 2.439-1.726c.005-.004.009-.008.015-.01.581-.439 1.152-.892 1.726-1.341.59-.462 1.19-.911 1.78-1.373.217-.174.432-.353.642-.536a214.557 214.557 0 0 0 3.344-2.977.627.627 0 0 0-.066-.183c-.432-.445-.851.248-1.126.542a32.32 32.32 0 0 1-2.835 2.85c-5.535 4.933-12.408 8.066-19.454 10.192a28.274 28.274 0 0 1-13.64.907c-5.434-.869-10.154-3.982-14.221-7.536-4.493-3.944-8.688-8.22-12.782-12.572a436.612 436.612 0 0 1-8.02-9.234c-.676-.856-2.051.104-1.362 1.057.964 1.141 1.933 2.275 2.899 3.412 4.763 5.861 10.013 11.303 15.513 16.475 6.97 6.667 13.376 10.737 22.789 10.737.347 0 .696-.007 1.049-.017Z"/><path d="M-33.837-16.172V430.76h446.933V-16.172H-33.837Z"/></g></g><defs><clipPath id="a"><path fill="#fff" transform="matrix(-1 0 0 1 373.331 0)" d="M0 0h373.331v414.8H0z"/></clipPath></defs></svg>