<svg width="490" height="97" fill="none" xmlns="http://www.w3.org/2000/svg"><ellipse cx="16.401" cy="27.079" rx="16.401" ry="27.079" transform="matrix(.89839 -.4392 .6833 .73014 .532 14.861)" fill="#F7F5F7"/><g clip-path="url(#a)"><mask id="b" style="mask-type:luminance" maskUnits="userSpaceOnUse" x="13" y="17" width="64" height="70"><path d="m74.733 22.364.02-.016a.141.141 0 0 1-.008.007l-.012.01Zm1.454-1.75a.266.266 0 0 0-.087-.078.35.35 0 0 0-.207-.092c-.147-.018-.288.045-.414.115-.02.011-.039.024-.058.036a.98.98 0 0 0-.162.082c-.296.183-.541.433-.813.649-.15.105-.299.255-.488.275-.127-.598 1.675-2.354 1.163-2.969-.725-.647-1.574 1.508-2.278 1.647-.06-.233.043-.479.083-.71.023-.108.048-.217.074-.325.213-.63.537-1.436.251-1.976-.102-.213-.375-.338-.594-.226-.28.156-.385.49-.511.766-.224.532-.39 1.084-.607 1.618-.083.19-.373.837-.607.456a1.093 1.093 0 0 1-.096-.239 42.142 42.142 0 0 0-.045-.548c-.065-.546-.11-1.16-.463-1.606-.2-.264-.61-.192-.675.14-.122.595-.065 1.215-.126 1.818-.075.732-.076 1.956-.645 2.472a.522.522 0 0 1-.278.108c-.297-.17-.576-.44-.797-.609-.342-.268-.69-.539-1.076-.74-.103-.048-.221-.109-.337-.102-.125 0-.25.08-.3.196a.459.459 0 0 0-.066.237.484.484 0 0 0 .033.314c.067.174.174.333.273.491.503.807 1.21 1.536 1.404 2.496.075.542-.034 1.09-.146 1.62-.29 1.341-1.13 2.509-2.18 3.368-.984.753-2.076 1.35-3.156 1.954a35.471 35.471 0 0 1-3.25 1.622c-1.275.558-2.601 1.056-3.995 1.2-1.603.175-3.227-.12-4.778-.546a4.744 4.744 0 0 1-.792-.501c-.286-.23-.634-.532-.778-.896-.114-.288-.14-.655.12-.872.337-.291.78-.289 1.198-.405.552-.141 1.033-.587 1.127-1.161.06-.596-.045-.503.553-.735 1.6-.516 1.452-2.317.995-3.616-.615-1.69-1.931-3.06-3.402-4.054-1.253-.85-2.675-1.47-4.17-1.729-1.492-.25-5.137-.495-5.429 1.527-.049.502.178.985.475 1.376.248.324.569.578.89.826.058.058.165.103.175.19-.05.194-.168.362-.206.562-.154.65.12 1.33.551 1.816.29.334.678.56 1.04.806-1.038.695-.651 1.981.087 2.746 1.05 1.053 1.691 1.599.807 3.077-.849 1.4-2.066 2.567-3.482 3.405a7.415 7.415 0 0 1-1.753.73c-.291.07-.586.103-.883.14l-.014.003c-1.41.035-2.803-.433-4.14-.835-1.604-.548-3.073-1.491-4.425-2.517-1.468-1.147-2.632-2.639-3.445-4.325a13.638 13.638 0 0 0-.13-.248 3.77 3.77 0 0 1-.084-.857c.022-.277.063-.552.125-.823.136-.591.332-1.167.53-1.739.082-.27.203-.547.265-.83.057-.125.107-.253.144-.386.062-.231.115-.515-.047-.717-.159-.184-.416-.079-.546.084-.45.416-.956 1.663-1.59 2.058-.177-.024-.342-.155-.459-.317-.268-.37-.366-.824-.511-1.251l-.032-.13c-.15-.604-.259-1.25-.453-1.847-.174-.631-.678-.604-.858-.08a1.139 1.139 0 0 0-.093.248c-.098.4-.028.811.049 1.207.071.431.19.859.205 1.297.007.315-.21.47-.471.259a1.093 1.093 0 0 1-.088-.084 14.347 14.347 0 0 0-.644-1.122c-.232-.494-.456-.992-.786-1.427-.096-.11-.196-.227-.327-.295a.328.328 0 0 0-.437.139.772.772 0 0 0-.038.096.714.714 0 0 0-.073.404c.008.081.02.161.035.24.068.488.278.946.48 1.399.08.194.162.387.25.579.113.26.226.519.328.783.029.09.076.185.057.282-.436-.16-.728-.569-1.066-.871-.461-.407-.938-.831-1.492-1.104-.428-.154-.655.283-.51.646.126.354.377.634.631.902.492.521 1.026.999 1.526 1.512-.525-.155-1.02-.405-1.55-.547-.31-.08-.896-.343-1.104.023-.151.416.348.69.631.896.452.297.93.548 1.392.83.9.547 1.72 1.298 2.451 2.063 1.326 1.492 2.589 3.038 3.895 4.546.17.25.412.454.616.675 1.053 1.103 2.294 2.002 3.592 2.798.565.35 1.132.7 1.732.988.643.3 1.31.547 1.975.792 1.465.532 2.91 1.023 4.432 1.387 1.12.275 2.246.528 3.387.696.58.081 1.13.112 1.713.24l.014.004c.432.36.58.946.667 1.485.111.656.152 1.322.209 1.984.039.494.066.99.071 1.485a33.61 33.61 0 0 1-.14.8c-.118.133-.26.247-.395.36l-.113.087-.056.06-.05.04c-.832.677-1.645 1.397-2.263 2.282-.596.842-1.08 1.759-1.502 2.698-.32.687-.58 1.4-.782 2.13-.212.72-.388 1.45-.524 2.187a8.463 8.463 0 0 1-.09.444c-.698-.592-1.111-1.392-1.68-2.102a8.103 8.103 0 0 0-1.322-1.372 3.361 3.361 0 0 0-.295-.254l.034.026c-.092-.07-.181-.142-.272-.213a4.68 4.68 0 0 0-.757-.45c-.064-.029-.13-.056-.195-.084-.071-.03-.142-.063-.214-.094a6.024 6.024 0 0 0-.4-.15c-.115-.036-.23-.068-.343-.104-.136-.043-.268-.092-.406-.124-.153-.03-.308-.048-.462-.07a7.066 7.066 0 0 1-.517-.098c-.16-.036-.316-.08-.477-.11a26.27 26.27 0 0 0-.497-.084c-.09-.014-.178-.025-.268-.041a4.609 4.609 0 0 0-.22-.032 8.647 8.647 0 0 1-.458-.064c-.342-.06-.684-.12-1.026-.182a2.936 2.936 0 0 1-.366-.093c-.06-.019-.12-.037-.18-.058a1.797 1.797 0 0 1-.685-.32c-.054-.034-.106-.07-.159-.105a4.156 4.156 0 0 0-.194-.118c-.074-.042-.15-.081-.223-.125-.072-.042-.141-.091-.211-.138a7.246 7.246 0 0 1-.244-.17 10.217 10.217 0 0 1-.796-.668 6.795 6.795 0 0 1-.368-.386c-.115-.126-.23-.252-.34-.382-.11-.131-.213-.268-.317-.403-.073-.095-.149-.188-.223-.282l-.005-.004a2.927 2.927 0 0 1-.273-.207c-.056-.048-.109-.098-.165-.145l-.154-.12a2.988 2.988 0 0 0-.232-.08 2.487 2.487 0 0 0-.636-.07c-.08.004-.159.01-.238.022a2.548 2.548 0 0 0-.286.065c-.04.013-.08.029-.118.046a1.95 1.95 0 0 0-.147.087c-.114.075-.23.149-.335.235a2.123 2.123 0 0 0-.134.136 2.037 2.037 0 0 0-.123.162c-.03.048-.058.098-.083.148a2.15 2.15 0 0 0-.064.17c-.043.15-.07.301-.1.454a5.3 5.3 0 0 1-.116.479c-.046.163-.087.326-.125.492a2.89 2.89 0 0 1-.184.55c-.075.168-.164.327-.25.49-.088.163-.182.32-.286.472a3.653 3.653 0 0 1-.219.284c-.256.277-.52.548-.79.806-.41.387-.885.696-1.382.96-.35.19-.73.368-1.116.532-.402.175-.821.313-1.209.518-.138.07-.303.187-.387.339a.572.572 0 0 0-.173.326l-.003.015a1.472 1.472 0 0 0-.016.07v.003l.029.035a.363.363 0 0 0 .12.18c.26.2.645.202.96.227.1.005.2.007.3.007 1.414 0 2.782-.499 4.076-1.04.568-.243 1.133-.5 1.714-.712a6.95 6.95 0 0 1 1.795-.132 8.38 8.38 0 0 1 1.517.25c.87.363 1.664.89 2.35 1.48.701.63 1.308 1.35 1.936 2.04.596.652 1.167 1.325 1.753 1.988l.05.045c.092.083.185.167.274.255.09.09.176.183.268.271l-.034-.032.071.068-.034-.032c.306.29.6.592.913.873.103.092.206.184.307.277l.023.02.179.161.097.087.25.22.009.008.107.09.006.005.088.067.13.1.073.056c.096.075.19.15.288.224l.002.002.014.01c.04.03.081.058.122.087l.072.052.199.138c.145.1.29.203.434.304l.002.002c.197.132.404.25.61.364.105.058.215.108.323.159.118.056.235.113.354.166h.023l.117.046.195.075.043.016.072.025h.001l.014.005.064.02.028.009.092.025.04.008c.046.01.092.02.137.028l.048.008.162.03c.046.007.093.015.139.024l.06.01.132.025h.025l.005.035.002-.03.002-.005.003.035s-.006-.03-.008-.03l.123.025.041.008.03.006.004-.008.026.035h.025a4.177 4.177 0 0 0 .201.035l.175.003c1.394 0 2.392-.537 3.413-1.439l.1-.075c.441-.36.87-.74 1.267-1.15l.15-.12c.11-.097.215-.2.317-.305a7.83 7.83 0 0 1 .345-.336c.11-.1.223-.2.33-.304l.314-.303.202-.202a59.224 59.224 0 0 0 5.271-5.316c.343.464.707.913 1.096 1.341 1.049 1.17 2.312 2.142 3.675 2.92a17.126 17.126 0 0 0 2.256 1.04 6.01 6.01 0 0 0-.03.375 9.547 9.547 0 0 0 .078 1.977 3.373 3.373 0 0 0 .047.611c.028.161.06.321.095.481.038.173.08.343.136.51.054.148.116.29.188.43.078.145.158.289.251.425.096.137.196.272.294.408.1.14.192.286.282.433.095.153.192.306.29.457.095.144.2.282.292.429.088.14.176.281.268.42.095.142.198.279.301.415.114.148.223.301.328.457.178.26.339.534.496.808.166.29.343.574.477.88L60.292 71l.008.016-.003-.005c.07.166.126.336.184.505.052.154.11.305.16.459.057.17.095.343.138.517.025.1.054.198.076.3.019.088.03.178.038.269.013.133.016.267.017.401.001.079-.005.153-.017.231a.547.547 0 0 1-.028.107l.015.106-.026.031c-.07.076-.147.145-.225.212h.023a2.929 2.929 0 0 0-1.217 1.168 3.21 3.21 0 0 0-.308.62 1.844 1.844 0 0 0-.122.532c-.02.125-.013.252.014.377.01.224.089.45.258.676.114.146.244.274.383.391a4.888 4.888 0 0 0 .23.226l.073.068c.19.172.388.335.584.5a20.768 20.768 0 0 1 .706.625c.451.756.615 1.684.62 2.556-.019.855-.164 1.702-.232 2.554-.008.157-.03.359-.035.562-.069.541-.058.96.144 1.1a.377.377 0 0 0 .156.035h-.008c.372 0 .723-.58 1.013-1.268.088-.186.165-.388.232-.6.125-.35.233-.694.32-.975.05-.157.093-.297.127-.41l.047-.14c.13-.472.238-.95.34-1.43.012-.13.073-.28.072-.418a16.54 16.54 0 0 0 .242-1.589c.074-.503.13-1.009.168-1.516.036-.32.072-.642.098-.964.026-.18.048-.362.068-.544.129-1.162.137-2.332.126-3.5 0-1.908-.122-3.82-.505-5.692a30.629 30.629 0 0 0-1.076-3.956l-.018-.053a38.858 38.858 0 0 0-.39-1.084c-.038-.13-.075-.26-.114-.388-.526-1.792-1.15-3.583-2.2-5.142-.871-1.329-1.84-2.587-2.863-3.807-.832-1-1.67-1.99-2.599-2.902a11.371 11.371 0 0 0-.444-.424 44.123 44.123 0 0 0-.92-1.075c-.02-.035-.037-.07-.055-.105-.449-.921-.29-2.066.444-2.794.943-.959 1.888-1.867 1.683-3.34a2.87 2.87 0 0 0-.365-1.056c-.113-.207-.266-.371-.351-.6-.043-.376.518-.724.825-.936.723-.366 1.454-.716 2.18-1.073.457-.23.909-.467 1.366-.697.878-.442 1.788-.821 2.627-1.339 1.277-.804 2.534-1.65 3.713-2.592 1.346-1.106 2.65-2.293 3.796-3.612l.002-.002c.072-.105.145-.21.214-.317l.042-.068c.145-.192.28-.39.41-.593.046-.065.093-.13.137-.196.047-.077.088-.156.13-.235l.073-.122c.634-.95 1.15-1.977 1.639-3.009.609-1.331.918-1.91 2.081-2.861l1.132-.919c.276-.227 1.061-.767.845-1.18h-.002v-.002ZM37.111 65.635l-.004-.001.005.001.005.001h-.004l-.002-.001Zm-2.661-1.064a1.856 1.856 0 0 0-.032-.022l.032.022Zm.024 0 .016.011-.006-.004.024.016-.034-.024Z" fill="#fff"/></mask><g mask="url(#b)" fill="#336510"><path d="M66.667 20.741a.085.085 0 0 1 .008.008l-.008-.008Zm.02.019.003.003-.003-.003Zm8.058 1.595a.141.141 0 0 1 .008-.006l-.02.016.012-.01Zm-2.165 2.131-.008.014.008-.014Z"/><path d="m40.805 64.308-.018-.136-.02-.138-.021-.14-.022-.139-.02-.138-.022-.135-.02-.133-.02-.128-.019-.126-.019-.122-.02-.12-.02-.118-.023-.117-.026-.117-.028-.118-.032-.119-.035-.12-.039-.12-.04-.123-.044-.126-.044-.13-.046-.133-.046-.136-.047-.14-.047-.141-.046-.144-.048-.146-.048-.147-.05-.15-.05-.15-.05-.15-.051-.148-.052-.146-.053-.144-.053-.14-.053-.137-.054-.134-.055-.13-.056-.126-.057-.124-.058-.123-.06-.12-.06-.118-.06-.114-.059-.111-.06-.108-.06-.105-.058-.101-.058-.098-.055-.092-.054-.09-.052-.085-.049-.081-.046-.08-.044-.077-.043-.077-.04-.077-.04-.077-.038-.077-.039-.078-.04-.079-.04-.08-.043-.084-.045-.085-.049-.087-.044-.075c.04-.135.077-.27.112-.405.054-.207.1-.417.158-.623.037-.112.08-.222.121-.333.042-.11.08-.222.123-.333l.131-.346c.037-.1.072-.2.111-.3.063-.151.133-.299.196-.45.067-.162.126-.328.19-.492a7.1 7.1 0 0 1 .215-.489c.08-.161.163-.321.25-.479.044-.078.09-.154.136-.23.052-.085.102-.171.155-.255.09-.14.19-.273.29-.408l-.002.002c.075-.1.154-.198.229-.3.073-.098.144-.199.217-.298.094-.122.198-.235.298-.351.097-.112.193-.224.294-.332.115-.119.23-.236.348-.352.134-.133.26-.273.39-.411.09-.091.184-.177.277-.266l.266-.26c.069-.066.136-.135.2-.207l.112-.088c.185-.154.38-.308.513-.51l.001-.03c.061-.053.104-.13.065-.21a.137.137 0 0 0-.046-.05c.004-.104.005-.209.004-.313a21.653 21.653 0 0 0-.072-1.532c-.057-.663-.097-1.329-.209-1.985-.086-.54-.234-1.127-.666-1.487-.59-.132-1.143-.162-1.73-.244-1.14-.168-2.268-.421-3.388-.696-1.523-.364-2.97-.856-4.435-1.387-.666-.246-1.332-.493-1.975-.793-.601-.288-1.169-.638-1.734-.988-1.298-.797-2.54-1.697-3.594-2.8-.203-.221-.446-.426-.616-.676-1.307-1.51-2.57-3.056-3.897-4.548-.732-.766-1.552-1.517-2.453-2.065-.461-.282-.94-.533-1.393-.83-.283-.206-.782-.48-.631-.897.208-.365.794-.102 1.105-.022.53.142 1.025.392 1.55.547-.5-.513-1.034-.991-1.526-1.513-.254-.268-.505-.548-.63-.903-.147-.363.08-.8.509-.646.553.273 1.03.697 1.492 1.105.338.302.63.71 1.067.87.019-.096-.029-.19-.057-.28-.125-.326-.268-.645-.406-.965-.276-.676-.67-1.35-.675-2.098.014-.28.1-.463.222-.565l.044.007a.703.703 0 0 1 .143.054l.046.027a1.697 1.697 0 0 1 .348.338c.042.06.08.121.122.18.043.059.085.118.125.179l.036.064a1.375 1.375 0 0 0 .2.359c.073.097.149.192.221.29.09.127.174.26.255.392a13.118 13.118 0 0 1 .484.856c.063.12.136.247.26.311a.323.323 0 0 0 .35-.035.346.346 0 0 0 .113-.2.86.86 0 0 0 .018-.224c-.005-.067-.02-.13-.033-.197-.018-.089-.034-.178-.058-.265a2.497 2.497 0 0 1-.054-.206c-.014-.083-.02-.168-.028-.252-.012-.115-.02-.23-.038-.344-.028-.185-.074-.367-.1-.552-.008-.092-.014-.184-.028-.274-.01-.071-.025-.142-.037-.213.012-.087.026-.174.045-.262.136-.646.707-.73.894-.05.195.597.305 1.243.453 1.848.032.126.091.391.178.68a2.76 2.76 0 0 0-.014.208c-.001.091-.003.184.018.273.037.154.132.285.206.423.043.078.09.153.161.209a.59.59 0 0 0 .353.128h.01a.532.532 0 0 0 .458-.302c.058-.05.11-.105.16-.164.072-.087.14-.178.212-.267.076-.092.144-.188.212-.287l-.022.034c.082-.118.161-.236.242-.355.039-.053.08-.104.118-.158a3.1 3.1 0 0 0 .054-.078c.212-.026.438.102.49.318.073.478-.125.956-.258 1.408-.177.55-.346 1.08-.432 1.646a3.572 3.572 0 0 0 .061 1.196c.045.082.088.165.13.248.813 1.687 1.98 3.18 3.447 4.328 1.353 1.026 2.823 1.969 4.428 2.517 1.338.403 2.732.871 4.143.837.004-.002.009-.002.013-.003.297-.037.593-.07.884-.14a7.398 7.398 0 0 0 1.754-.731c1.417-.84 2.635-2.006 3.484-3.408.885-1.479.243-2.025-.807-3.078-.739-.766-1.126-2.053-.088-2.748-.362-.246-.75-.472-1.04-.806-.431-.487-.705-1.166-.552-1.818.039-.199.156-.367.206-.562-.01-.087-.117-.132-.174-.19-.322-.248-.643-.502-.89-.826-.298-.392-.525-.875-.476-1.377.292-2.024 3.939-1.778 5.431-1.528 1.497.26 2.92.88 4.174 1.73 1.471.995 2.788 2.365 3.403 4.057.458 1.3.606 3.101-.995 3.618-.599.232-.493.138-.553.735-.094.574-.575 1.02-1.128 1.162-.418.116-.862.114-1.198.405-.26.217-.235.584-.12.872.143.365.491.668.777.897.249.19.512.364.793.502 1.552.426 3.177.721 4.781.546 1.395-.143 2.722-.642 3.997-1.2a35.474 35.474 0 0 0 3.252-1.624c1.08-.604 2.173-1.201 3.157-1.954 1.052-.86 1.892-2.029 2.182-3.37.112-.531.22-1.08.146-1.622-.193-.96-.901-1.69-1.405-2.497-.099-.158-.205-.317-.272-.492-.14-.323.058-.593.343-.69a.224.224 0 0 0 .077.01l.014.004c.065.046.125.099.184.152.043.038.087.076.134.11.064.046.13.084.199.123.107.06.22.115.324.183.06.043.117.092.178.135.05.036.1.07.148.107.109.081.216.164.32.252.035.032.068.066.1.101l-.015-.017a.94.94 0 0 0 .163.152.96.96 0 0 0 .48.159.567.567 0 0 0 .45-.242.797.797 0 0 0 .134-.309c.009-.043.017-.086.024-.13.016-.084.032-.167.046-.252a7.68 7.68 0 0 0 .074-.555c.016-.172.043-.343.06-.515.018-.17.032-.34.043-.511.01-.197.04-.393.052-.59.005-.082.006-.165.007-.247.002-.085.006-.17.01-.255a9.526 9.526 0 0 0 .006-.61c.02-.037.04-.073.061-.107l.052-.071c.244-.179.576-.021.731.412.244.488.138 1.74.494 2.044.04.025.086.041.133.043h-.026a.179.179 0 0 0 .084-.013c.586-.425.735-1.973 1.162-2.661.277-.511.868-.374.91.2.05.628-.161 1.228-.287 1.835-.04.231-.143.477-.083.71.704-.139 1.554-2.296 2.28-1.648.512.615-1.291 2.372-1.164 2.971.189-.02.339-.17.488-.275.272-.216.517-.467.813-.65a.772.772 0 0 1 .478-.132l.022.01.114.046a.69.69 0 0 1 .096.063l.036.035c.017.02.034.042.05.064l.035.055.003.006v.003l.002.003v.005l-.003.03-.001.007a.47.47 0 0 1-.015.04 1.412 1.412 0 0 1-.164.27c-.053.071-.104.144-.16.214a3.617 3.617 0 0 1-.135.166c-.11.076-.219.153-.318.243a5.4 5.4 0 0 1-.286.247c-.092.067-.186.132-.276.203l.013-.01-.015.012.002-.002c-.082.067-.16.138-.24.208-.126.103-.258.197-.386.298a6.637 6.637 0 0 0-.412.361c-.067.063-.135.124-.199.19a6.755 6.755 0 0 0-.244.27c-.127.146-.271.28-.385.436-.117.161-.212.336-.31.51l-.004.007-.032.05c-.065.104-.12.213-.169.325l-.053.106c-.057.108-.118.214-.172.323a3.353 3.353 0 0 0-.104.229c-.02.051-.04.103-.062.154a5.089 5.089 0 0 1-.134.272c-.049.09-.099.18-.14.275-.095.211-.184.424-.286.632-.116.226-.242.448-.366.669-.063.112-.127.224-.186.338l-.163.314c-.068.123-.14.243-.208.365-.066.12-.125.243-.196.36-.122.183-.26.356-.384.538-.071.104-.138.212-.206.319-.068.107-.141.212-.214.317v.001c-1.148 1.32-2.452 2.51-3.8 3.615-1.18.943-2.437 1.79-3.715 2.594-.839.518-1.75.897-2.629 1.34-.456.23-.909.468-1.366.697-.727.357-1.459.707-2.181 1.073-.307.213-.869.56-.826.937.086.229.239.393.352.6.193.324.311.686.365 1.057.205 1.474-.74 2.383-1.684 3.342-.734.73-.894 1.875-.444 2.797.017.035.035.07.054.104 1.084 1.22 2.078 2.516 3.117 3.773l.986 1.21a.32.32 0 0 0 .018.087c.028.078.085.14.135.204a.951.951 0 0 0 .034.04c.128.142.255.283.386.421.063.067.127.133.192.198.181.226.36.454.54.683l-.032.007-.114.027-.115.028-.117.03-.12.03-.12.032-.12.031-.121.033-.12.033-.121.034-.12.036-.119.038-.117.04-.114.042-.112.045-.108.048-.106.052-.102.055-.098.057-.095.06-.09.064-.087.065-.084.068-.085.071-.084.075-.087.08-.09.084-.094.089-.098.094-.101.099-.102.1-.102.103-.101.103-.1.103-.096.103-.093.103-.09.102-.086.102-.085.102-.081.102-.08.103-.078.103-.075.104-.073.103-.07.104-.068.103-.068.106-.067.108-.067.111-.068.115-.068.118-.067.122-.067.123-.066.126-.064.127-.064.128-.062.13-.062.13-.06.134-.048.107a11.54 11.54 0 0 1-.255-.177c-.12-.086-.238-.175-.357-.261-.12-.09-.243-.175-.363-.265a8.902 8.902 0 0 1-.687-.587c-.109-.104-.213-.212-.319-.318-.11-.111-.223-.22-.332-.333-.108-.112-.212-.23-.316-.346-.097-.11-.192-.22-.285-.333a8.194 8.194 0 0 1-.206-.26c-.069-.092-.137-.184-.211-.271a4.765 4.765 0 0 0-.215-.241 1.17 1.17 0 0 0-.205-.18.294.294 0 0 0-.115-.035.284.284 0 0 0-.045-.053c-.109-.1-.297-.1-.395.017-.07.083-.148.16-.222.238l-.213.218c-.113.113-.227.224-.335.341-.101.111-.2.225-.303.334-.158.167-.307.342-.459.515-.138.156-.28.31-.42.463-.14.155-.3.291-.446.44-.133.135-.258.276-.388.413-.126.132-.253.264-.38.394-.134.136-.272.268-.4.408-.124.134-.236.278-.354.416-.093.1-.188.196-.283.292-.101.103-.203.204-.307.302-.148.133-.3.263-.441.402-.14.138-.275.279-.414.417l-.315.303c-.108.104-.22.204-.33.305-.12.109-.235.221-.347.337a5.266 5.266 0 0 1-.318.305c-.097.08-.195.158-.293.237-.097.08-.192.16-.287.242-.187.155-.383.297-.576.444-.156.119-.308.241-.463.36-.085.063-.17.125-.256.186l-.011-.11v-.004ZM64.409 77.92l-.001.004v-.003Zm-.219 1.182-.006.036a1.14 1.14 0 0 1 .007-.036Z"/><path d="M62.281 85.452a1.256 1.256 0 0 1-.09-.024c-.04-.015-.081-.03-.12-.049a.43.43 0 0 1-.04-.024c0-.002-.002-.003-.003-.005a1.57 1.57 0 0 1-.08-.11c.011-.35.1-.719.153-.98.391-1.563.703-3.137.046-4.678-.29-.732-.902-1.3-1.627-1.59-.265-.11-.545-.188-.798-.326-.552-.254-.814-.941-.54-1.49.264-.538.799-.858 1.31-1.128-.007.004-.014.007-.02.012.317-.16.41-.518.458-.854a4.285 4.285 0 0 0-.042-.401.572.572 0 0 0 .028-.107c.011-.078.017-.153.017-.231a4.911 4.911 0 0 0-.017-.403 2.293 2.293 0 0 0-.039-.27c-.021-.101-.05-.2-.076-.3-.043-.174-.082-.348-.138-.518-.05-.154-.108-.306-.16-.46-.057-.17-.114-.34-.184-.506l.002.005a.287.287 0 0 0-.007-.016l.005.011c-.135-.307-.313-.592-.479-.882a12.682 12.682 0 0 0-.496-.81 9.878 9.878 0 0 0-.33-.458 8.262 8.262 0 0 1-.301-.415c-.093-.139-.18-.28-.27-.421-.092-.147-.196-.285-.29-.43a20.787 20.787 0 0 1-.292-.458 7.28 7.28 0 0 0-.283-.434c-.098-.136-.199-.27-.294-.409a4.264 4.264 0 0 1-.252-.426 3.83 3.83 0 0 1-.189-.43 4.808 4.808 0 0 1-.135-.511c-.035-.16-.068-.32-.096-.482a3.524 3.524 0 0 1-.045-.44c-.005-.307-.005-.614.005-.92.004-.153.011-.305.027-.456l.01-.093.014-.013a.815.815 0 0 0 .178-.306 1.3 1.3 0 0 0 .068-.318.977.977 0 0 0-.012-.28.287.287 0 0 0 .053-.175.246.246 0 0 0 .018-.072v-.003a.272.272 0 0 0-.234-.299c-.088-.013-.18-.005-.269-.001a.34.34 0 0 0-.126-.027 3.58 3.58 0 0 0-.431-.157 12.338 12.338 0 0 0-.116-.05c-.073-.031-.146-.06-.219-.089a7.172 7.172 0 0 1-.595-.277c-.234-.127-.47-.248-.705-.372a8.753 8.753 0 0 1-.825-.53c-.12-.087-.237-.175-.356-.262-.12-.089-.243-.175-.363-.265l-.02-.015.055-.107.076-.146.078-.143.078-.141.079-.138.078-.133.078-.129.078-.126.078-.122.08-.12.081-.121.084-.12.087-.12.09-.12.093-.12.095-.118.098-.118.1-.118.104-.119.108-.119.113-.119.115-.12.117-.12.118-.118.119-.117.117-.114.113-.11.11-.103.105-.098.1-.092.1-.087.097-.082.098-.08.101-.075.105-.073.11-.07.114-.067.118-.064.123-.06.126-.056.13-.052.132-.05.136-.046.137-.043.14-.042.14-.04.14-.038.14-.038.14-.037.14-.036.138-.036.136-.034.133-.033.093-.023.082.08c.084.1.172.198.259.297.108.148.22.293.334.437l.024.03c.045.06.089.116.152.157l.01.007a52.694 52.694 0 0 1 .665.906l.196.296c.111.166.225.33.337.496.116.18.223.363.328.55.11.194.22.388.327.583.057.106.113.212.168.319l.04.098c.075.202.145.406.225.606l.211.518c.072.176.148.35.226.524.069.155.141.308.208.463.09.22.175.442.252.667.083.237.15.48.227.72.076.234.159.466.247.696.086.223.175.444.246.673.035.117.069.235.105.352.045.15.096.298.146.445.088.317.159.637.215.96.03.181.065.361.105.54.037.162.072.324.103.487.027.17.047.34.064.51.016.16.031.321.052.48.025.19.055.38.096.566.033.147.073.293.105.44.04.206.065.412.087.62.021.202.042.405.06.608l-.005-.05c.019.233.036.466.068.697.028.206.059.41.08.617.017.222.032.444.038.666.006.242.004.484.008.726.003.23.017.46.025.69.009.217.008.435.005.652-.007.344-.016.687-.006 1.03.01.358.018.714.022 1.07 0 .357-.015.714-.036 1.07a26.43 26.43 0 0 1-.084 1.126l-.01.099-.06.255-.002.005c-.048.209-.09.417-.123.629-.029.179-.06.357-.091.535-.025.125-.061.247-.09.371-.035.144-.053.29-.073.437-.02.148-.04.296-.065.444-.018.104-.03.209-.05.312l-.044.19a6.8 6.8 0 0 0-.052.268l-.002.01-.002.012.002-.013.002-.007c-.029.175-.038.352-.06.529l-.037.279a3.788 3.788 0 0 1-.054.282c-.024.1-.05.2-.073.301-.03.127-.053.256-.085.383-.026.105-.051.21-.072.317-.02.097-.039.192-.068.286-.039.111-.082.22-.124.33-.047.122-.083.249-.136.369-.05.109-.1.217-.14.33-.046.127-.087.256-.13.385-.01.028-.02.056-.032.084-.022.04-.045.08-.07.118a1.573 1.573 0 0 1-.091.12 2.1 2.1 0 0 1-.13.135l-.056.044-.047.029-.03.013-.016.005h-.013a.986.986 0 0 1-.073-.01v-.002Z"/><path d="m64.19 79.102-.006.037a1.21 1.21 0 0 1 .007-.037Zm-.191.956c-.084-.007-.158-.085-.147-.172.03-.24.06-.48.087-.72.063-.699.152-1.396.21-2.096.045-.484.077-.968.08-1.454.002-.138 0-.275-.002-.412.003-.096-.012-.197.022-.288.019-.041.069-.064.11-.042.083.057.085.189.108.279.11.923.028 1.853-.061 2.777-.048.207-.09.414-.123.625-.028.179-.06.357-.091.535-.025.125-.061.247-.09.371-.035.144-.053.291-.073.437l-.022.16h-.009Z"/><path d="m64.19 79.102-.006.037a1.21 1.21 0 0 1 .007-.037Z"/><path d="M62.36 85.466a.986.986 0 0 1-.074-.01 1.446 1.446 0 0 1-.07-.018.611.611 0 0 1 .114-.4c.034-.037.09-.056.129-.014.051.072.014.176.013.259.337-.516.518-1.151.69-1.73.329-1.14.552-2.31.707-3.485.202-1.472.35-2.969.15-4.45-.028-.26-.056-.52-.087-.78-.01-.087.066-.164.149-.169a.16.16 0 0 1 .168.15l.08.703c.049.466.122.93.122 1.4 0 .323-.01.645-.027.968l-.01.046v.002a8.43 8.43 0 0 0-.125.63c-.028.179-.06.357-.091.535-.025.125-.06.247-.09.372-.034.143-.052.29-.073.436-.02.148-.039.297-.064.445-.018.103-.03.208-.05.312-.015.063-.031.125-.045.189-.02.088-.036.178-.051.267v-.005l-.003.019.002-.011c-.028.175-.037.353-.058.53l-.038.278a4.085 4.085 0 0 1-.054.282c-.024.1-.05.2-.073.301-.03.127-.054.256-.085.383-.026.105-.052.21-.073.317-.019.096-.037.192-.067.286-.039.111-.082.22-.124.33-.048.127-.086.259-.143.382a4.02 4.02 0 0 0-.133.315c-.046.128-.088.257-.13.387-.01.028-.02.056-.033.084a1.408 1.408 0 0 1-.16.238 2.34 2.34 0 0 1-.131.135l-.056.044a.784.784 0 0 1-.047.029l-.03.013a.188.188 0 0 1-.015.005h-.015Z"/><path d="M62.354 85.464a.986.986 0 0 1-.073-.01 1.208 1.208 0 0 1-.104-.028l-.04-.046a1.394 1.394 0 0 1-.011-.31c.013-.124.048-.38.17-.44.068-.024.125.046.12.11-.001.208-.037.422.021.625.131-.125.198-.302.275-.463a6.65 6.65 0 0 0 .197-.535c.167-.502.297-1.014.41-1.531a.146.146 0 0 1 .17-.111.14.14 0 0 1 .055.024c-.011.05-.022.1-.035.15-.026.105-.051.21-.072.317-.02.097-.038.192-.067.286-.039.111-.083.22-.124.33-.049.127-.086.259-.144.382a4.02 4.02 0 0 0-.133.315c-.046.128-.087.257-.13.387-.01.028-.02.056-.032.084-.022.04-.045.08-.07.118-.029.042-.06.082-.091.12a2.339 2.339 0 0 1-.13.135l-.056.044a.818.818 0 0 1-.048.029l-.029.013-.016.005h-.013Z"/><path d="M63.172 83.716c.182-.701.368-1.403.49-2.119.105-.597.155-1.203.215-1.807.019-.198.038-.395.067-.591.019-.084.005-.26.123-.21.02.014.028.037.026.06.019.142.028.284.033.427-.033.14-.05.282-.07.424-.02.149-.04.297-.065.444-.018.104-.03.209-.05.312l-.044.189a4.66 4.66 0 0 0-.051.267v-.003l-.001.006c-.028.175-.038.352-.059.529-.012.093-.024.185-.038.278a3.754 3.754 0 0 1-.053.281l-.074.301c-.03.127-.053.256-.085.382-.026.106-.051.21-.072.317-.02.097-.038.192-.068.287-.038.11-.082.22-.124.33-.047.12-.083.248-.136.367-.05.11-.1.217-.14.33-.046.127-.087.256-.129.384a1.48 1.48 0 0 1-.033.085 1.76 1.76 0 0 1-.07.118l-.027.038c.184-.461.317-.943.434-1.425Zm.643-2.582c0-.007.002-.014.003-.02l-.003.02Zm-1.461 4.331a1.013 1.013 0 0 1-.073-.01 1.268 1.268 0 0 1-.09-.024 1.224 1.224 0 0 1-.081-.032c.095-.733.4-1.673.47-1.968.133-.486.264-.973.393-1.46.05-.207.357-.142.317.067-.2.742-.395 1.485-.587 2.229-.1.382-.21.766-.255 1.159a.64.64 0 0 1-.065.034.188.188 0 0 1-.015.005h-.014Zm-.534-.478.01.042-.01-.042Zm.107.208Zm.003.006.004.006-.004-.006Z"/><path d="M62.19 85.43a2.017 2.017 0 0 1-.12-.049.387.387 0 0 1-.038-.024 1.643 1.643 0 0 1-.101-.144v-.002l-.003-.003-.004-.007a1.512 1.512 0 0 1-.085-.147.806.806 0 0 1-.019-.058l-.01-.046c-.018-.816.241-1.923.279-2.343.225-1.582.259-2.579-.73-3.924a4.637 4.637 0 0 0-.35-.404c-.158-.19-.432-.319-.505-.561-.156-.087-.297-.192-.442-.292-.125-.164.085-.3.24-.235.112.041.25.076.323.176.155.103.438.2.408.429a4.831 4.831 0 0 1 1.5 2.463c.178.951 0 1.94-.14 2.882-.088.625-.342 1.7-.134 2.308a1.134 1.134 0 0 1-.068-.02Zm1.165-2.396c.056-.135.044-.315.156-.416a.142.142 0 0 1 .064-.026c-.022.099-.04.198-.065.296-.026.106-.052.21-.073.317-.019.097-.037.193-.067.287-.039.111-.083.22-.124.33-.047.122-.084.249-.137.368-.049.11-.1.217-.14.33-.046.127-.087.256-.129.385-.01.028-.02.056-.033.084-.021.04-.045.08-.07.119-.028.04-.058.08-.09.12a2.026 2.026 0 0 1-.131.135l-.056.044a.952.952 0 0 1-.047.028.194.194 0 0 1-.03.013l-.007.003c.583-.555.723-1.688.98-2.416Z"/><path d="M61.935 84.791c-.046-.407.023-.82.114-1.217.038-.102.098-.587.266-.473.063.072.03.181.03.268a6.58 6.58 0 0 1-.028.276c-.048.367-.091.736-.058 1.105.006.11-.08.172-.166.172a.157.157 0 0 1-.158-.13Z"/><path d="M61.97 83.57c.032-.114.164-.924.33-.81.124.082-.08 1.074-.094 1.262-.038.355-.125.749.036 1.084.41-.362.633-1.087.827-1.594.446-1.196.586-2.47.811-3.719.245-1.566.495-3.113.44-4.698a66.61 66.61 0 0 0-.054-1.749.12.12 0 0 1 .112-.126.12.12 0 0 1 .126.112c.01.25.02.5.028.75.009.25.018.501.032.752.02.39.05.78.048 1.171-.01.618-.08 1.234-.15 1.847-.121.99-.26 1.977-.43 2.96-.112.641-.209 1.315-.388 1.938-.178.571-.768 2.675-1.42 2.695-.657-.11-.33-1.424-.253-1.873v-.001Z"/><path d="M62.096 85.446c-.439-.337-.154-1.483-.088-1.977.14-.766.29-1.53.417-2.298.043-.18.31-.128.278.058a62.48 62.48 0 0 0-.237 1.428c-.107.694-.263 1.385-.29 2.089.01.144 0 .334.108.442.022.015.041-.014.06-.024a.753.753 0 0 0 .125-.127c.085-.111.15-.246.203-.37.179-.427.292-.878.397-1.328.12-.546.264-1.091.356-1.643l.027-.184c-.008-.043.026-.089.072-.086.04.004.069.043.061.08.023.212.012.425-.012.636-.124.945-.322 2.284-.846 3.081-.106.146-.262.298-.432.298a.316.316 0 0 1-.199-.075Z"/><path d="M63.393 81.436a.173.173 0 0 1-.122-.208c.112-.444.22-.89.322-1.336.27-1.19.557-2.38.697-3.594.164-1.374.164-2.751.143-4.131-.025-1.193-.052-2.39-.245-3.57-.402-2.688-1.212-5.3-2.252-7.807a29.664 29.664 0 0 0-.878-1.97c-.089-.182-.186-.359-.279-.538-.035-.082-.106-.176-.02-.242.349-.169 1.21 1.998 1.357 2.315.92 2.17 1.683 4.415 2.14 6.729.384 1.873.505 3.787.505 5.695.011 1.169.004 2.34-.126 3.502-.103.968-.299 1.923-.51 2.872-.154.681-.327 1.358-.492 2.037l-.031.124a.173.173 0 0 1-.21.122h.001Zm-2.173-3.117c-.307-.063-.594-.194-.884-.311-.288-.097-.57-.233-.782-.456-.813-.91.083-1.672.819-2.217.21-.16.42-.317.624-.483.089-.07.17-.148.258-.219.029-.023.064-.046.102-.046.441.09-.722.972-.846 1.084-.33.287-1.003.768-.877 1.264.081.316.36.52.648.64.273.13.557.235.845.324.098.036.222.045.287.136.085.12-.015.288-.152.288a.168.168 0 0 1-.041-.005Z"/><path d="M61.906 86.138a.376.376 0 0 1-.156-.036c-.635-.441.618-3.637.324-4.775-.216-1.14-.63-2.316-1.484-3.135l.006.006c-2.079-1.677-.557-3.036 1.42-3.576.182-.078.408.12.168.225-.39.14-.77.312-1.134.512-2.044 1.22-.751 1.866.307 3.106.932 1.34 1.364 3.064.997 4.67-.126.871-.446 1.74-.401 2.624.246-.201.373-.508.51-.787-.247.192-.422-.102-.366-.337 0-.2.054-.555.333-.377.327-.83.61-1.676.895-2.521.132-.24.278-1.333.682-1.023.122.174 0 .408-.019.6-.102.48-.21.958-.34 1.43-.211.597-.922 3.394-1.74 3.394h-.002Z"/><path d="M61.895 86.057c-.153-.097-.009-.452.021-.597.043-.15.086-.3.134-.448.02-.066.047-.14.112-.171.535-1.092 1.013-2.215 1.35-3.385.285-1.073.478-2.172.586-3.277.097-.878.101-1.761.127-2.643.033-.849.04-1.699.041-2.548-.007-.178.264-.205.28-.016-.032 1.6.046 3.205-.057 4.804a21.889 21.889 0 0 1-.55 3.506c-.297 1.168-.77 2.28-1.278 3.37-.1.196-.18.414-.321.585-.067.194-.125.39-.191.583-.032.1-.07.26-.178.26a.16.16 0 0 1-.076-.023Z"/><path d="M63.1 82.838c-.111-.098-.047-.258-.018-.379.079-.27.167-.556.242-.82.19-.684.34-1.413.442-2.109.267-1.78.345-3.578.402-5.374.011-.261.022-.523.028-.784.014-.303-.002-.61.04-.91.01-.04.044-.074.089-.059a.08.08 0 0 1 .046.051c.055.216.06.441.078.662.034.596.023 1.193.022 1.79a.14.14 0 0 1 .077.134c-.01.514-.03 1.028-.044 1.542a18.089 18.089 0 0 1-.463 4.016 22.287 22.287 0 0 1-.438 1.601c-.057.178-.114.357-.188.53a.224.224 0 0 1-.201.154.167.167 0 0 1-.113-.045Z"/><path d="M63.322 82.852a.175.175 0 0 1-.105-.222c.077-.234.151-.47.221-.707.142-.505.258-1.018.35-1.534.124-.677.178-1.345.234-2.027a35.78 35.78 0 0 0 .138-3.715c-.003-.278-.008-.555-.006-.833a.342.342 0 0 0-.007-.1.095.095 0 0 1 .076-.098c.065-.014.128.052.109.115.04.256.055.515.073.772.092 1.224.068 2.45-.016 3.67-.064 1.279-.233 2.553-.588 3.785-.073.267-.167.527-.258.789a.174.174 0 0 1-.221.105Zm-1.301 1.757a.189.189 0 0 1-.172-.203c.032-.222.069-.444.098-.642.035-.243.066-.486.088-.73a9.139 9.139 0 0 0-.013-1.755 4.936 4.936 0 0 0-.853-2.197c-.535-.674-1.232-.573-1.721-1.528-.564-1.093.277-2.153 1.33-2.482.114-.029.38-.116.426.038.017.117-.183.185-.267.234-.303.15-.604.316-.848.553-.313.31-.514.776-.394 1.216.093.333.306.628.576.841.27.204.59.332.856.542.34.263.555.647.748 1.024.618 1.202.673 2.596.498 3.913-.046.343-.1.686-.154 1.028-.014.087-.1.148-.185.148h-.013Z"/><path d="M61.772 85.72c-.25-.295-.148-.907-.131-1.275.068-.853.213-1.7.232-2.556-.007-1.127-.277-2.348-1.093-3.17-.428-.449-1.035-.69-1.42-1.185-.282-.357-.503-.883-.272-1.319a1.62 1.62 0 0 1 .483-.499c.283-.19.589-.346.857-.557.185-.143.361-.296.546-.438.13-.093.29-.242.46-.168.225.15.03.358-.125.467-.475.36-1.034.626-1.421 1.09-.46.588-.118 1.18.398 1.578.27.232.542.463.82.685.111.1.322.195.22.375.678.87.925 2.038.93 3.116-.017 1.113-.264 2.21-.306 3.322-.003.147.01.295.054.436.02.095-.044.151-.118.151a.156.156 0 0 1-.115-.052Z"/><path d="M61.705 79.273c-.483-.362-.973-.714-1.451-1.082-.272-.217-.55-.448-.719-.757-.19-.32-.146-.72.063-1.02.11-.184.23-.363.364-.53.084-.107.271-.04.274.094a.174.174 0 0 1-.047.123 2.418 2.418 0 0 0-.305.484c-.188.393-.076.665.214.954.314.315.68.571 1.02.855.272.236.568.472.75.786.035.086-.004.13-.062.13a.172.172 0 0 1-.1-.037h-.001Z"/><path d="M61.945 80.23c-.371-.58-.764-1.204-1.324-1.614-.456-.353-.985-.634-1.345-1.097-.995-1.325 1.125-2.686 2.138-3.227.106-.08.336-.14.34.058-.09.237-.39.335-.58.488-.651.426-2.136 1.409-1.685 2.32.446.68 1.263.982 1.805 1.573.373.389.654.853.948 1.301.091.135-.034.277-.159.277a.16.16 0 0 1-.137-.08v.001Z"/><path d="M62.095 80.307a.193.193 0 0 1-.11-.087 3.965 3.965 0 0 0-.335-.462 6.16 6.16 0 0 0-.512-.53 22.712 22.712 0 0 0-.592-.517c-.196-.165-.393-.329-.583-.5a5.138 5.138 0 0 1-.458-.465c-.088-.103-.178-.208-.246-.327a2.075 2.075 0 0 1-.163-.366c0-.004-.002-.007-.003-.011l-.001-.002a2.196 2.196 0 0 1-.073-.291 1.206 1.206 0 0 1-.015-.268 1.83 1.83 0 0 1 .122-.54 3.22 3.22 0 0 1 .309-.622c.139-.217.304-.416.495-.59.11-.1.23-.192.35-.282a8.24 8.24 0 0 0 .36-.285l.012-.01h.002a1.667 1.667 0 0 0 .32-.33.837.837 0 0 0 .071-.136c.01-.031.02-.063.027-.095a1.45 1.45 0 0 0 .018-.122l.005-.046c.011-.07.056-.13.128-.142.081-.013.144.05.174.118a.496.496 0 0 1 .028.107.668.668 0 0 1-.02.272c-.053.218-.204.393-.362.545-.051.05-.106.097-.142.128-.118.1-.239.197-.363.29a6.524 6.524 0 0 0-.304.237 2.636 2.636 0 0 0-.423.463l-.01.015a3.208 3.208 0 0 0-.196.327h.008a3.061 3.061 0 0 0-.14.316c-.03.087-.055.174-.076.263a1.106 1.106 0 0 0-.02.243 1.346 1.346 0 0 0 .07.33l.001.002a1.67 1.67 0 0 0 .157.338c.05.072.107.14.164.207.12.139.25.269.384.394h.002a.598.598 0 0 1 .01.008l.002.002.002.002c.19.172.389.334.586.499.198.164.393.332.584.505.206.185.4.383.579.595.145.172.275.357.392.55.053.087.016.205-.07.254a.187.187 0 0 1-.143.017h-.002Zm-2.297-4.858h.001Z"/><path d="M61.525 79.221c-.657-.881-1.45-1.731-1.746-2.812a.176.176 0 0 1-.19-.132c-.014-.187.057-.376.118-.551.06-.161.122-.323.216-.468.103-.162.252-.286.386-.42.193-.186.382-.389.621-.515.066-.032.143-.061.216-.031.072.028.1.123.06.188-.074.096-.184.162-.268.25.078.19-.128.324-.26.416-.133.082-.253.192-.394.255l-.034.046c-.02.031-.04.063-.058.096.056.153-.051.303-.119.435.002.245.088.483.175.71.211.48.504.92.818 1.34.245.329.492.657.745.98.098.137-.018.285-.146.285a.177.177 0 0 1-.139-.072Zm2.108-12.558c-.035-.025-.045-.09-.047-.128-.07-.636-.255-1.28-.408-1.896-.56-2.146-1.094-4.316-2.02-6.34-.596-1.246-1.425-2.391-2.241-3.495a60.5 60.5 0 0 0-2.076-2.586 34.042 34.042 0 0 0-1.365-1.574 25.096 25.096 0 0 0-1.807-1.796c-.092-.08-.188-.158-.282-.237a.062.062 0 0 1-.035-.052c.044-.365 1.516 1.055 1.635 1.183.929.913 1.767 1.904 2.6 2.903 1.023 1.221 1.993 2.48 2.865 3.81 1.051 1.56 1.675 3.352 2.201 5.145.224.746.417 1.502.62 2.255.172.637.342 1.276.454 1.927.049.259.093.517.122.779.007.077-.064.135-.135.135a.112.112 0 0 1-.081-.033Z"/><path d="M61.306 60.207c-.466-.913-.944-1.819-1.421-2.725a17.35 17.35 0 0 0-1.09-1.825 35.61 35.61 0 0 0-1.434-1.91c-.45-.567-.92-1.117-1.407-1.65-.106-.117-.21-.236-.312-.357-.062-.082-.166-.172-.13-.285a.152.152 0 0 1 .19-.086c.061.025.112.07.164.11.513.428.995.893 1.476 1.356a.144.144 0 0 1 .222-.008c.048.055.09.113.136.169.13.166.266.342.39.509.1.134.193.26.292.39.054.07.11.139.16.21a.136.136 0 0 1 .014.124.31.31 0 0 1 .05.138c.009.105-.117.177-.207.129-.1-.064-.169-.168-.248-.256l-.237-.285c-.175-.211-.35-.421-.534-.624.732.912 1.456 1.837 2.078 2.83.529.851.968 1.753 1.438 2.638.223.427.445.855.664 1.285.05.11-.04.202-.131.202a.137.137 0 0 1-.124-.08ZM47.883 57.36a3.621 3.621 0 0 0-.56-.129 2.7 2.7 0 0 0-.262-.026c-.076-.005-.13-.084-.12-.157.024-.152.181-.12.286-.113.224.007.447.031.663.088.16.042.32.082.481.122l-.07.076a7.613 7.613 0 0 0-.184.202 6.758 6.758 0 0 1-.234-.063Zm7.055 3.099c-.233-.127-.47-.249-.705-.373a8.607 8.607 0 0 1-.825-.53l-.072-.052c-.319-.252-.64-.5-.97-.735a11.367 11.367 0 0 1-.365-.326c-.108-.104-.212-.212-.318-.319-.11-.11-.223-.22-.332-.332a6.962 6.962 0 0 1-.08-.084c.546.305 1.078.63 1.575 1.012.693.529 1.362 1.087 2.066 1.6.073.065.282.2.455.345a6.372 6.372 0 0 1-.429-.206Zm-17.066-2.086.003.004v.002l-.003-.006Z"/><path d="m39.404 65.249-.043-.137-.045-.134-.046-.131-.048-.128-.049-.127-.05-.125-.05-.123-.052-.122-.051-.122-.052-.123-.053-.124-.053-.126-.053-.129-.053-.13-.054-.132-.052-.134-.052-.134-.052-.134-.05-.134-.05-.133-.048-.132-.048-.13-.048-.128-.047-.124-.047-.12-.048-.118-.047-.113-.048-.11-.048-.105-.047-.104-.048-.1-.047-.1-.047-.097-.046-.096-.045-.096-.043-.095-.042-.095-.04-.097-.04-.097-.035-.098-.035-.1-.032-.105-.03-.107-.028-.109-.026-.11-.024-.113-.022-.112-.014-.08a.339.339 0 0 0 .093-.128c.009-.02.014-.042.021-.063l-.002.008.034-.108c.014-.049.023-.099.033-.15l-.008.044.014-.073-.008.044c.014-.076.026-.152.033-.23.008-.076.014-.152.026-.228l.005-.023a.314.314 0 0 0 .14.037.272.272 0 0 0 .265-.316.25.25 0 0 0-.024-.075 6.28 6.28 0 0 1-.046-.345c-.017-.156-.031-.312-.058-.467l-.013-.07c.031-.119.063-.237.083-.357.019-.111.035-.223.057-.333.025-.105.055-.21.085-.313.034-.117.066-.234.097-.352.032-.124.061-.25.092-.373l.034.056.051.09.05.086.046.084.047.084.046.083.047.081.048.083.051.082.053.084.056.085.059.087.062.091.064.096.067.1.07.103.07.108.071.113.072.115.072.12.072.122.072.126.071.129.07.13.068.134.067.136.066.14.065.142.064.147.064.15.062.154.063.157.062.159.06.16.06.16.06.16.057.158.057.157.057.154.056.152.056.149.055.146.055.143.053.138.052.135.05.132.046.13.042.127.038.127.035.126.03.126.027.126.026.127.023.128.023.13.023.135.023.138.024.142.025.145.026.148.026.15.025.149.024.148.021.145.008.072c-.126.097-.25.196-.376.291-.15.114-.303.223-.458.328-.2.135-.4.268-.602.399a6.336 6.336 0 0 0-.205.112l-.386.225-.009-.03v-.001Z"/><path d="M37.418 59.49a1.575 1.575 0 0 1-.02-.027l.024-.08c.015-.049.024-.099.034-.149l-.009.044.014-.073-.008.043a2.36 2.36 0 0 0 .015-.086c.029.059.057.118.084.178.023.055.058.114.04.176-.015.03-.037.041-.06.042-.042 0-.088-.034-.114-.069Zm1.715-6.189c.066-.165.135-.329.215-.489.08-.16.163-.32.249-.478.044-.078.09-.155.137-.231.051-.085.101-.171.155-.254.09-.142.191-.275.29-.41l-.002.003c.075-.1.153-.198.228-.299.074-.099.145-.2.217-.299.093-.122.198-.235.298-.35.097-.113.193-.225.294-.333.115-.118.231-.236.348-.352.134-.133.261-.273.39-.41.09-.092.185-.177.277-.266l.208-.203c.278-.215.572-.433.884-.654.578-.391 1.187-.735 1.782-1.098.164-.093.324.138.156.253-.628.372-1.25.758-1.852 1.17-1.852 1.313-3.345 2.712-4.304 4.8a9.717 9.717 0 0 0-.055.125l.085-.224Zm-.386.947.038-.09a18.217 18.217 0 0 0-.038.09Zm-.62 1.93c.054-.207.1-.417.159-.622.036-.113.08-.223.12-.334.042-.11.08-.222.123-.333.031-.085.064-.168.096-.252a20.472 20.472 0 0 0-.503 1.562l.005-.021Zm-.207.66c.025-.105.056-.21.086-.313l.026-.09a19.79 19.79 0 0 0-.135.533c.008-.044.015-.087.024-.13Z"/><path d="m37.362 60.091-.026-.11-.023-.113-.023-.112-.014-.08a.338.338 0 0 0 .094-.128c.008-.02.014-.041.02-.062l-.002.007a5.4 5.4 0 0 0 .034-.108c.015-.049.024-.099.034-.15l-.009.044.014-.073-.008.044c.015-.076.027-.152.034-.23.007-.076.013-.152.026-.228.011-.056.026-.112.037-.168.014-.071.023-.143.033-.214.024-.134.055-.268.086-.4l.05-.215-.01.046c-.087.487-.133.98-.164 1.473-.01.158-.016.317-.029.475-.018.12-.009.357-.132.387l-.022-.085Z"/><path d="M37.647 59.924c.01-.228.061-.453.101-.677-.104.091-.281-.006-.261-.145.006-.106.016-.211.027-.317.011-.054.025-.107.036-.161.014-.071.023-.143.033-.214a7.05 7.05 0 0 1 .086-.4c.035-.149.068-.298.104-.446.033-.129.069-.257.09-.388.02-.111.036-.223.058-.333.025-.104.054-.206.083-.308l.018-.053c.02-.054.037-.11.067-.158.076-.116.27-.07.293.063.293-.732.6-1.463.998-2.146 1.068-1.814 2.519-3.36 3.883-4.95.13-.14.353.064.218.206-1.317 1.543-2.703 3.052-3.764 4.79-.654 1.132-1.144 2.379-1.538 3.62.187.063.075.288.05.424a51.61 51.61 0 0 0-.153.618c-.075.318-.148.637-.198.96.016.088-.05.136-.116.136-.06 0-.118-.04-.116-.12h.001Zm1.757 5.321-.043-.137-.045-.135-.01-.025c1.47-.93 2.8-2.07 4.116-3.201 2.395-2.089 4.676-4.341 6.637-6.845.177-.157.464-.811.692-.636a.16.16 0 0 1 .029.223c-.394.504-.777 1.016-1.177 1.515a59.714 59.714 0 0 1-8.162 7.775c-.654.483-1.323 1.025-2.031 1.486l-.006-.02Z"/><path d="m39.404 65.249-.043-.137-.019-.055c.241-.123.478-.253.71-.391a9.676 9.676 0 0 0 1.747-1.29c.15-.134.302-.267.451-.403.18-.158.345-.335.542-.47.03-.018.075-.028.098.005.068.102-.206.377-.273.46-.42.444-.88.853-1.355 1.239-.567.442-1.188.811-1.83 1.137l-.028-.095Zm18.946 2.158c-.024-.033.028-.066.048-.03.014.02-.006.043-.026.043a.026.026 0 0 1-.022-.013Z"/><path d="M59.946 69.04c-.535-.882-1.101-1.747-1.61-2.646a15.482 15.482 0 0 1-1.292-3.39.162.162 0 0 1-.23.03 7.128 7.128 0 0 0 .895 3.15c.274.468.547.95.89 1.368.045.055.033.155-.05.16-.047.003-.093-.026-.13-.052a1.594 1.594 0 0 1-.3-.303 8.513 8.513 0 0 1-1.161-2.016c-.427-1.108-.541-2.315-.47-3.494.026-.576.143-1.14.255-1.704.029-.144.019-.375.228-.346.152.037.134.18.117.302l-.038.432c.01.207.023.418.02.627.081 1.012.324 2.003.644 2.962.34.956.745 1.893 1.28 2.756.4.668.805 1.334 1.215 1.996.073.12-.028.241-.136.241a.152.152 0 0 1-.127-.072Z"/><path d="M56.93 61.594c-.185-.033-.359-.11-.534-.174a17.218 17.218 0 0 1-2.14-.996c-1.364-.78-2.63-1.753-3.682-2.926a18.407 18.407 0 0 1-1.875-2.477l-.24-.377c-.08-.126-.16-.252-.227-.384a.248.248 0 0 1-.04-.117l-.587-.728c-.122-.166.115-.363.255-.197.802.983 1.581 1.989 2.409 2.95a19.25 19.25 0 0 0 2.254 2.142 27.59 27.59 0 0 0 1.842 1.331c.45.222.912.422 1.38.602.18-.002.34.11.502.174.215.11.447.183.664.288.171.106.036.366-.155.284.095.067.191.133.29.193.068.047.157.071.2.145.07.11-.035.26-.162.234-.027.028-.066.036-.104.036a.376.376 0 0 1-.05-.003Zm-1.989-1.156.027.014c-.267-.174-.528-.357-.79-.537-.406-.2-.8-.425-1.177-.678.177.13.355.255.536.377l-.016-.01c.454.309.93.584 1.42.834ZM69.12 22.845c-.283-.184-.567-.364-.837-.565l.002.002c-.33-.246-.641-.517-.965-.772-.21-.164-.423-.334-.671-.435-.4-.136-.199.019-.325.114-.04.022-.084.003-.117-.022-.175-.17-.027-.442.202-.456.484-.027.974.447 1.341.724.23.186.459.377.697.553.277.202.557.4.846.583.146.1.055.299-.086.299a.174.174 0 0 1-.088-.026Z"/><path d="M69.05 22.472c-.43-.017-.783-.315-1.105-.571-.213-.177-.426-.355-.648-.52-.288-.208-.58-.43-.92-.544-.147-.033-.201-.194-.059-.275.143-.06.296.021.425.081.387.202.734.473 1.077.741.377.289.931.88 1.442.742.255-.066.428-.285.536-.514.09-.178.355-.057.276.129-.161.407-.527.733-.977.733l-.047-.001Z"/><path d="M67.86 23.142c-.336-.326-.667-.655-.998-.977l.015.015c-.318-.316-1.062-.959-.77-1.443.064-.153.262-.241.415-.172.107.045.124.2.012.249.127.151.198.34.302.507.076.127.156.25.238.373.064.096.125.194.194.287.054.063.115.144.072.229.211.211.446.443.65.641.047.049.112.09.116.164.011.092-.072.162-.154.162a.132.132 0 0 1-.092-.035Z"/><path d="M68.362 22.287c-.642-.156-1.276-.93-1.753-1.376-.06-.117.117-.217.185-.103.533.316 1.468 1.545 2.102 1.063.57-.516.57-1.74.644-2.473.062-.604.004-1.224.127-1.819.066-.332.475-.404.675-.14.354.446.398 1.06.463 1.607.046.518.083 1.037.11 1.556-.004.175.06.38-.031.538-.055.066-.162.072-.22.006-.136-.254-.138-.564-.201-.842-.069-.394-.137-.789-.212-1.182-.166.007-.175-.187-.204-.308a8.291 8.291 0 0 1-.132-.817c-.03.655-.045 1.31-.106 1.963-.095.82-.201 2.343-1.256 2.343-.06 0-.124-.005-.192-.016Zm1.589-4.576a.17.17 0 0 1 .123-.082c-.018-.017-.034-.024-.049-.024-.041 0-.067.058-.075.106Z"/><path d="M70.683 20.974a7.687 7.687 0 0 1-.306-.687c-.252-.694-.261-1.444-.352-2.17-.02-.146-.031-.254-.062-.39a.344.344 0 0 1-.048-.127c-.008-.046-.024-.095.01-.135.043-.053.11-.02.15.019.226-.01.207.302.246.459.069.438.094.88.16 1.32.032.22.07.439.126.654.09.316.227.615.372.908.062.131-.044.24-.153.24a.16.16 0 0 1-.143-.09Z"/><path d="M70.621 20.289c-.097-.428-.217-.856-.271-1.291a5.929 5.929 0 0 1-.064-.686c.003-.075-.016-.157.018-.225.068-.081.146.012.165.084.048.142.076.29.106.438.107.54.216 1.08.34 1.617.02.111-.065.18-.15.18a.145.145 0 0 1-.144-.117Z"/><path d="M72.396 21.093a.157.157 0 0 1-.123-.183l.124-.667c.128-.661.393-1.284.568-1.933.056-.23.114-.468.088-.706-.058-.356-.24-.468-.427-.097-.28.54-.445 1.119-.658 1.685-.075.204-.149.41-.254.602-.118.21-.28.428-.526.486-.22.048-.433-.097-.536-.283-.104-.175-.144-.379-.178-.577-.037-.21-.064-.422-.096-.633-.046-.31-.094-.62-.144-.929-.004-.073-.046-.169-.024-.237.24-.24.43.961.46 1.104l.09.478c.048.217.075.447.186.643.234.382.524-.265.607-.457.217-.534.383-1.087.607-1.618.126-.276.23-.61.511-.767.22-.113.493.013.595.226.337.635-.17 1.64-.349 2.29a7.573 7.573 0 0 0-.242.94c-.034.17-.067.34-.097.51a.157.157 0 0 1-.183.123ZM20.37 26.016c-.446-.595-.733-1.305-1.014-1.994-.157-.433-.348-.868-.389-1.331-.04-.495.307-.795.726-.43.355.317.557.76.765 1.18.226.442.403.913.688 1.322.104.131.214.292.386.333.158.02.306-.091.362-.235.11-.283.086-.588.058-.88-.052-.527-.245-1.03-.254-1.562.001-.126-.027-.345.157-.339a.14.14 0 0 1 .128.15c-.003.03-.004.06-.005.09 0 .081.006.163.015.244.094.683.349 1.355.275 2.054-.027.256-.118.527-.338.68a.61.61 0 0 1-.7.014c-.378-.267-.565-.716-.766-1.118-.184-.382-.361-.767-.563-1.14-.142-.238-.295-.499-.54-.642-.077-.04-.097.078-.106.132-.022.169.023.348.06.508.046.191.105.38.165.566.254.783.568 1.524.976 2.235.089.052.04.174-.044.174a.098.098 0 0 1-.043-.01Z"/><path d="M20.757 25.878a.125.125 0 0 1-.077-.053c-.122-.168-.241-.338-.36-.508-.123-.176-.252-.349-.374-.524-.123-.179-.24-.36-.355-.543-.226-.355-.458-.721-.534-1.142-.047-.299-.116-.633.021-.918a.33.33 0 0 1 .438-.139c.13.069.23.185.326.295.484.637.74 1.409 1.122 2.105.11.192.226.387.397.53.261.212.479.056.472-.26-.015-.438-.134-.865-.206-1.296-.076-.397-.146-.809-.049-1.208.068-.27.252-.593.564-.6.062 0 .13.013.176.058.046.044.078.129.018.177-.065.045-.153.03-.22.071-.217.151-.247.45-.26.693.008.497.142.957.22 1.443.044.266.102.537.069.807-.033.3-.274.564-.593.526-.498-.066-.755-.62-.964-1.018-.235-.42-.823-1.969-1.236-2.06-.088.141-.053.326-.044.484.028.315.133.648.29.916.205.37.427.732.661 1.086.201.303.409.602.623.896.054.075-.013.184-.1.184a.112.112 0 0 1-.025-.003v.001Zm4.434 3.716c-.042 0-.076-.04-.1-.069-.214-.305-.235-.707-.255-1.069-.047-1.183.371-2.313.736-3.42-.089.083-.248.024-.265-.095a.161.161 0 0 1-.196-.04c-.314.389-.572.821-.9 1.198-.114.124-.314.045-.29-.128a.632.632 0 0 1 .057-.147.541.541 0 0 0 .358-.261l.017-.031c.058-.05.11-.105.16-.164.072-.088.14-.179.212-.267a4.32 4.32 0 0 0 .212-.287l-.023.033c.082-.117.162-.236.243-.354.038-.053.08-.105.118-.158l.136-.202c.05-.069.102-.134.154-.201.053-.07.105-.141.156-.213.152-.006.285.075.324.291.096.479-.148.946-.285 1.393-.198.573-.393 1.149-.53 1.74a5.793 5.793 0 0 0-.136 1.57c.014.238.047.493.122.717.01.038.03.074.03.113a.053.053 0 0 1-.054.052h-.002.001Z"/><path d="M24.615 28.921c-.075 0-.149-.068-.142-.147.02-.25.048-.501.077-.751.047-.384.082-.77.148-1.152.07-.377.163-.75.276-1.115.167-.531.368-1.015.557-1.53.033-.087.066-.174.08-.265.03-.075.148-.074.177.004.02.25-.08.497-.15.736-.075.235-.157.47-.237.704-.137.403-.252.813-.345 1.227-.106.495-.164 1-.227 1.501a19.66 19.66 0 0 0-.064.61c.005.087-.05.178-.144.178h-.006Zm-.642-3.005a.887.887 0 0 1-.542-.29c-.403-.414-.514-1.004-.695-1.534-.144-.48-.31-.952-.45-1.432-.03-.106-.064-.212-.095-.318a.138.138 0 0 1 .007-.105c.049-.105.217-.095.25.018.029.095.058.19.089.285.162.464.32.93.467 1.4.163.451.256.944.543 1.339.192.267.517.451.808.209.135-.093.26-.284.445-.246a.08.08 0 0 1 .057.08c-.002.037-.027.07-.048.098-.053.074-.104.15-.165.217a.783.783 0 0 1-.583.286.605.605 0 0 1-.088-.006Z"/><path d="M25.081 26.394c-.074-.024-.126-.112-.097-.188l.075-.197c-.115-.046-.077-.196-.036-.278.081-.207.176-.409.265-.612.121-.276.228-.529.328-.8a.157.157 0 0 1-.14-.047.148.148 0 0 1-.037-.078c-.414.593-.935 1.694-1.725 1.779a.485.485 0 0 1-.32-.101c-.074-.077.018-.208.115-.163.866.136 1.51-1.657 2.069-2.173.129-.163.387-.268.546-.085.162.203.108.487.047.718-.14.507-.469.934-.642 1.427-.087.234-.17.469-.259.701a.153.153 0 0 1-.144.105.142.142 0 0 1-.045-.008Z"/><path d="M25.428 25.567c-.165-.086-.018-.272.019-.395.045-.115.087-.232.127-.35.087-.236.172-.474.253-.714.056-.102.11-.444.267-.37.112.055.031.285.018.385-.076.382-.226.74-.385 1.094-.065.114-.086.363-.237.363a.184.184 0 0 1-.062-.012Z"/><path d="M24.506 27.55a.128.128 0 0 1-.061-.169l.22-.49c.284-.67.565-1.341.88-1.998.123-.273.241-.547.358-.823.033-.072.06-.15.11-.211.105-.065.07.171.065.22-.04.26-.125.51-.218.755-.134.343-.297.675-.449 1.011-.149.33-.287.666-.444.993-.1.216-.195.434-.293.65a.127.127 0 0 1-.168.06v.001Zm43.738 3.429c-.037-.042-.017-.114.035-.13a5.89 5.89 0 0 0 1.01-1.006c.412-.51.726-1.046 1.049-1.6.212-.36.42-.723.605-1.097.097-.174.359-.042.27.142-.197.407-.423.8-.658 1.186-.479.807-.994 1.624-1.735 2.218-.146.106-.289.223-.456.293a.08.08 0 0 1-.057.023.08.08 0 0 1-.063-.03Z"/><path d="M68.832 30.384c-.029-.113.32-.49.398-.607.469-.6.91-1.223 1.312-1.87.654-1.077 1.174-2.226 1.738-3.351a5.175 5.175 0 0 1 1.124-1.547c.536-.507 1.129-.949 1.702-1.412.285-.241.708-.488.836-.85-.109.014-.205.075-.3.124-.362.196-.669.466-.973.737-.272.236-.532.486-.821.7a.145.145 0 0 1-.221-.048c-.069-.155.14-.26.228-.358.095-.086.192-.171.289-.256.333-.275 1.697-1.57 2.061-1.067.218.414-.568.954-.845 1.181l-1.132.92c-1.163.953-1.474 1.53-2.082 2.863-.54 1.14-1.113 2.272-1.841 3.304-.308.442-.643.87-.996 1.27a4.722 4.722 0 0 1-.27.284c-.027.024-.06.054-.096.06a.096.096 0 0 1-.11-.076h-.001Z"/><path d="M73.576 22.64a.124.124 0 0 1 .036-.17l.52-.352c.421-.297.846-.592 1.268-.888.064-.037.775-.606.435-.545-.177.061-.34.19-.485.29a54.04 54.04 0 0 0-.574.431c-.295.213-.577.462-.917.597-.131.046-.169-.063-.068-.145.26-.23.544-.434.809-.66.293-.232.574-.484.897-.675.126-.07.267-.132.414-.115.246.026.379.262.25.48-.166.284-.453.471-.714.66-.351.248-.717.474-1.077.709-.21.137-.417.279-.625.42a.113.113 0 0 1-.065.02.126.126 0 0 1-.105-.057Z"/><path d="M73.394 22.33c-.662-.091.283-1.346.436-1.633.265-.434.505-.883.734-1.337.078-.142.293-.032.22.116-.187.359-.359.725-.554 1.08-.194.354-.418.691-.608 1.048a1.61 1.61 0 0 0-.176.442c.134-.022.25-.1.37-.161.176-.1.344-.212.51-.329.448-.306.866-.664 1.352-.91.04-.018.099-.048.142-.022.025.015.04.045.029.073-.02.042-.06.068-.092.098a7.21 7.21 0 0 1-.35.277c-.162.124-.322.25-.484.375-.33.238-1.113.882-1.508.882h-.02ZM42.81 50.214a.136.136 0 0 1-.087-.17c.058-.183.115-.368.17-.552.19-.59.299-1.187.402-1.795a10.692 10.692 0 0 0-.215-4.737 6.2 6.2 0 0 0-.22-.644c-.02-.08-.112-.206-.021-.263.039-.02.09 0 .103.043.111.173.203.358.277.55.39 1.088.525 2.258.523 3.409 0 .869-.145 1.728-.331 2.575-.097.431-.229.853-.362 1.274-.045.111-.053.316-.194.316a.175.175 0 0 1-.045-.006Z"/><path d="M43.652 50.098c-.065-.004-.124-.063-.117-.13.09-.817.168-1.635.248-2.453.057-.602.045-1.207.052-1.81.004-.374.008-.757.004-1.127a11.52 11.52 0 0 0-.066-1.188c-.037-.278-.06-.564-.166-.826-.03-.045.02-.113.074-.093.04.014.042.054.059.086.064.156.103.32.137.486.146.738.164 1.496.174 2.245l.01.867c.027.812-.05 1.622-.135 2.43-.04.403-.08.807-.124 1.211-.019.111.01.302-.148.302h-.002Zm-.042-7.52v-.001Z"/><path d="m37.453 60.411-.033-.104-.03-.107-.028-.109-.026-.11-.023-.113-.022-.112-.001-.004.052-.24c.099-.501.178-1.02.283-1.517.318-1.613.814-3.192 1.557-4.661.364-.74.772-1.461 1.271-2.119.5-.679 1.078-1.295 1.7-1.865a23.8 23.8 0 0 1 1.252-1.125c.217-.177.442-.344.675-.5.053-.034.102-.08.165-.092.126.001.125.121.052.202-.168.206-.39.359-.589.532-.284.241-.561.49-.836.742-.708.662-1.422 1.325-2.005 2.102-.696.88-1.223 1.878-1.685 2.897-.584 1.262-.968 2.637-1.243 3.992-.099.465-.173.972-.264 1.427-.063.303-.138.627-.206.932l-.017-.048Z"/><path d="M37.852 60.102c-.17-.027-.344-.054-.512-.094l-.003-.012-.024-.112-.022-.112-.02-.113-.002-.01c.188.056.392.094.626.127.203.033.178.327-.022.327h-.02Z"/><path d="m37.337 59.98-.024-.112-.022-.113-.02-.112-.02-.111-.02-.112-.019-.11-.006-.035c.218-.28.325-.724.413-1.005.237-.913.401-1.845.693-2.744.33-1.004.751-1.991 1.346-2.87.241-.346.483-.692.729-1.035.06-.094.146-.2.269-.119a.15.15 0 0 1 .035.209 28.7 28.7 0 0 0-.977 1.423c-.596.987-1.015 2.067-1.3 3.178-.165.6-.274 1.215-.424 1.82-.101.393-.204.794-.402 1.153.18-.206.268-.47.406-.7.2-.126.004.467-.03.526-.06.138-.135.272-.233.386.1.135-.062.256-.155.337-.067.05-.148.123-.234.17l-.006-.025Z"/><path d="m37.27 59.64-.02-.11-.019-.112-.02-.111-.015-.095c.056-.13.104-.262.147-.396.074-.246.126-.498.171-.75.137-.74.313-1.47.525-2.19.201-.73.461-1.444.782-2.13.423-.94.907-1.858 1.503-2.7.619-.887 1.432-1.607 2.265-2.283.543-.451 1.138-.825 1.732-1.2a66.9 66.9 0 0 1 .22-.14c.17-.1.338.141.166.26-.51.324-1.028.65-1.517 1a15.375 15.375 0 0 0-1.864 1.635c-.944 1.009-1.622 2.235-2.191 3.486-.618 1.316-.991 2.731-1.28 4.152-.05.25-.096.5-.165.745-.094.332-.217.667-.418.95l-.002-.01Zm-2.82 4.93-.032-.021.032.022Zm.024.015-.002-.001.035.024-.033-.023Zm2.639 1.05h-.002.005-.003Z"/><path d="M37.369 65.706h-.001s-.02-.025-.03-.025l-.189-.039h.004-.006l-.006-.001h.002l-.015-.006h-.001s.004.004.006.004l.005.001h-.005l-.008-.002-.022-.005a.19.19 0 0 1 .008.038h.042l-.021-.004.02.004h.003c-.24-.047-.484-.08-.723-.134a2.887 2.887 0 0 1-.328-.105c-.108-.041-.217-.081-.324-.124-.001 0-.002 0-.003-.002-.12-.052-.237-.11-.355-.166-.11-.052-.22-.1-.325-.16a8.597 8.597 0 0 1-.612-.365 48.905 48.905 0 0 0-.44-.308c-.136-.094-.273-.19-.407-.288l-.003-.002c-.097-.074-.192-.15-.288-.224-.099-.078-.2-.153-.298-.23a3.672 3.672 0 0 1-.108-.09c-.293-.254-.578-.517-.868-.776-.315-.282-.61-.586-.918-.877l.034.032-.071-.068.034.033c-.092-.089-.179-.183-.269-.273a9.465 9.465 0 0 0-.275-.256 2.778 2.778 0 0 0-.05-.044c-.588-.666-1.162-1.342-1.761-1.997-.63-.694-1.24-1.416-1.944-2.05-.95-.815-2.107-1.514-3.385-1.82l-.119-.055a5.594 5.594 0 0 0-.558-.212 3.119 3.119 0 0 0-.595-.117c-.183-.022-.366-.032-.55-.043-.197-.013-.398-.027-.595-.002-.12.016-.235.046-.35.085-.087.028-.17.067-.254.1-.177.07-.357.131-.535.198-.186.07-.368.146-.548.23-.17.078-.34.16-.51.236a6.23 6.23 0 0 1-.396.148l-.42.132a8.466 8.466 0 0 0-1.089.422c-.172.082-.343.164-.51.254l-.03.016a1.77 1.77 0 0 1-.051.011c-.214.045-.426.096-.641.137-.196.032-.393.054-.589.08-.188.025-.376.051-.565.07l-.148.009-.072.002.076-.077c.16-.165.321-.328.485-.49a5.78 5.78 0 0 0 .226-.113c.157-.083.305-.18.456-.274l.005-.003a.07.07 0 0 1 .006-.005c.268-.158.552-.289.806-.467l.083-.06.197-.041a6.05 6.05 0 0 0 .26-.06l.07-.019c.085-.017.17-.035.256-.055.164-.035.278-.205.276-.367a.38.38 0 0 0-.054-.187l.02-.015c.12-.092.238-.188.356-.284.07-.057.137-.115.2-.18.061-.06.119-.123.178-.185.103-.107.21-.21.306-.325.057-.07.114-.14.172-.208.056-.064.116-.124.173-.187a4.088 4.088 0 0 0 .644-.918c.087-.163.177-.324.253-.492.08-.179.14-.362.184-.553.038-.166.08-.33.126-.493.044-.16.085-.319.116-.481.03-.154.057-.307.1-.457.019-.057.04-.114.064-.17.025-.051.053-.1.084-.149.038-.056.08-.11.123-.162.043-.048.088-.094.134-.137.106-.087.222-.161.337-.236a2 2 0 0 1 .148-.087c.039-.017.078-.033.119-.047a2.135 2.135 0 0 1 .525-.087 2.555 2.555 0 0 1 .639.07c.079.023.156.052.232.082.053.039.104.078.155.12.057.046.11.097.166.145.073.06.147.12.224.174l.055.038c.075.094.151.187.224.283.105.136.209.273.319.404.11.132.225.257.34.384.12.132.241.265.371.387a10.206 10.206 0 0 0 .8.672c.08.059.162.116.244.17.07.048.14.097.212.14.074.043.15.082.224.124.066.038.13.078.195.12.053.034.105.07.159.104.05.032.103.06.157.086.11.054.221.106.334.155.065.028.13.057.197.08.06.022.12.04.181.06.121.037.243.07.367.093l.984.174c.147.026.388.058.535.076.08.01.16.023.238.036l.224.033c.167.027.333.056.499.085.162.03.32.074.48.11a7.1 7.1 0 0 0 .518.097c.155.023.31.041.464.071.139.033.272.081.408.125.114.036.23.068.344.105.136.045.27.095.402.15.073.03.144.064.216.095l.195.083a4.875 4.875 0 0 1 .76.453c.092.071.181.144.273.213l-.034-.026c.098.075.191.154.28.238.127.125.243.259.364.39.058.062.116.125.176.187.053.056.108.11.16.169.078.1.145.21.22.313.084.113.174.22.263.328l.007.008h-.033l.003.004.005.007a2.49 2.49 0 0 1 .255.346v-.002c.073.114.149.226.234.332.084.106.173.208.25.32l.12.192c.09.144.179.289.286.42.11.135.226.265.345.392.096.103.196.204.31.287.078.057.159.112.24.164l-.033-.022c.047.03.094.06.145.083.045.044.092.086.141.123a.34.34 0 0 0 .422-.009l.015.08.022.112.024.112.026.111.028.11.03.106.032.104.034.101.037.098.038.097.04.097.042.095.044.096.045.095.046.096.047.098.047.098.047.101.048.104.048.106.047.109.048.113.047.117.047.12.048.124.048.127.048.13.048.132.05.133.05.133.051.134.053.134.052.133.053.132.053.13.054.128.053.126.052.124.052.123.052.12.051.122.05.123.05.125.05.126.047.128.046.13.046.134.043.137.009.031c-.155.09-.31.18-.467.267l-.035.02c-.105.054-.21.105-.32.147-.11.043-.222.078-.332.12-.106.04-.208.09-.314.133a3.613 3.613 0 0 1-.319.11l-.052.014.033-.01c-.167.048-.338.082-.508.117-.091.019-.182.034-.273.052-.08.016-.157.035-.237.048a2.4 2.4 0 0 1-.213.008h-.047l.002.036-.001.001Z"/><path d="M35.583 56.412a1.195 1.195 0 0 1-.011-.013l.017.02a.422.422 0 0 0-.007-.007Zm-11.361-4.739c-.302-.12-.604-.238-.905-.36a.154.154 0 0 1-.086-.198.154.154 0 0 1 .199-.086c.434.176.87.347 1.309.511.197.078.395.148.596.213.04.03.078.056.117.088.026.021.053.04.082.057.1.061.194.133.296.193.073.043.149.082.222.124.078.045.153.092.228.14-.701-.178-1.394-.388-2.058-.681Zm14.142 7.86c-.114-.056-.073-.226-.087-.33v-.137a.363.363 0 0 0 .04-.03l.015.079.022.112.024.112.026.11.022.085a.109.109 0 0 1-.027.004.166.166 0 0 1-.036-.005Zm-2.01 5.872c-.116-.061-.284-.102-.33-.237-.015-.087.094-.15.163-.094.11.043.258.042.335.14.057.09-.023.202-.118.202a.121.121 0 0 1-.05-.011Z"/><path d="M37.382 65.706h-.004c-.01-.025-.02-.025-.03-.026l-.196-.04.011.002-.024-.005a.284.284 0 0 1-.005-.038h-.013c-.006.036-.012.035-.018.036h.001c-.005-.003-.01-.004-.014-.005l.019.004h.003c.003.001.009-.035.009-.035h.012s.01.04.016.04c-.248-.049-.5-.083-.746-.138a2.621 2.621 0 0 1-.205-.061c-.082-.064-.117-.14-.076-.232.097-.12.228.015.34.038.98.36 2.052.104 2.95-.361.323-.176.638-.363.948-.559l.009.026.045.134.043.137.006.02a7.063 7.063 0 0 1-.215.137c-.083.048-.166.095-.25.141l-.035.02c-.104.054-.21.105-.32.147-.11.043-.223.079-.332.12-.107.041-.209.092-.315.135a3.619 3.619 0 0 1-.318.108l-.053.016.033-.01a7.259 7.259 0 0 1-.509.116c-.09.019-.182.034-.273.052-.08.016-.157.036-.237.048-.072.006-.214-.003-.214-.003h-.043v.036Z"/><path d="m37.371 65.67.021.002-.02-.001Zm-2.897-1.085-.002-.001.017.012-.015-.011Z"/><path d="m37.141 65.64.012.002-.025-.004c-.001 0-.003-.001-.005-.038h-.002c-.006.035-.012.034-.018.035h.001c-.005-.003-.01-.004-.014-.005l.019.004h.003c.003.001.006.002.009-.034h.002c.005.038.01.039.015.04-.248-.05-.499-.084-.745-.139a2.842 2.842 0 0 1-.327-.104c-.108-.042-.216-.082-.323-.125l-.003-.001c-.12-.052-.236-.11-.354-.166-.109-.051-.219-.1-.324-.159a8.648 8.648 0 0 1-.61-.364l-.002-.002c-.145-.101-.289-.204-.434-.304a16.352 16.352 0 0 1-.41-.29c-.096-.072-.191-.148-.287-.223l-.29-.224c.038-.048.115-.068.168-.021.164.148.33.294.499.436.73.593 1.345 1.087 2.296 1.27.32.064.644.114.969.143.384.023.734-.007 1.106-.068a7.22 7.22 0 0 0 1.211-.372c.377-.147.747-.312 1.106-.495l.019.055.043.137.028.095c-.126.064-.254.127-.381.188-.862.406-1.776.754-2.729.78l-.223-.046ZM17.576 55.064a.378.378 0 0 0-.087-.236 8.807 8.807 0 0 0 1.933-1.933c.16-.236.287-.491.431-.736a16.1 16.1 0 0 1 1.154-1.451c.096-.105.29-.023.28.118 0 .09-.079.142-.13.205-.166.19-.326.386-.482.585-.16.206-.318.413-.47.624-.154.235-.272.492-.425.728-.308.48-.702.897-1.102 1.3-.35.335-.725.643-1.122.92a.378.378 0 0 0 .021-.124Zm-3.489 1.552c.036-.055.074-.107.114-.157.048-.056.1-.109.152-.16l.037-.03c.233-.062.474-.133.686-.204a8.7 8.7 0 0 0 .85-.335l.112-.034.126-.03c.184-.042.369-.078.553-.117.087-.019.173-.039.26-.06.022-.006.045-.013.068-.018l.093-.02a9.392 9.392 0 0 1-1.39.716c-.501.198-1.018.354-1.542.48a3.985 3.985 0 0 1-.157.04 1.99 1.99 0 0 1 .038-.07v-.001Zm.515.534a3.39 3.39 0 0 1-.326-.069 2.024 2.024 0 0 1-.133-.045.689.689 0 0 1-.036-.018l-.01-.007c.421.002.842-.04 1.255-.114 1.536-.297 2.947-.993 4.4-1.542.761-.28 1.55-.52 2.367-.55 1.382-.058 2.758.346 3.93 1.073.213.131.424.27.616.432.047.048.123.085.132.156-.029.145-.198.03-.274-.011-.095-.054-.188-.11-.283-.165a11.471 11.471 0 0 0-.538-.292c-1.465-.78-3.21-1.118-4.829-.66-1.733.495-3.393 1.433-5.154 1.828-.09.007-.178.01-.268.015-.104.005-.207.01-.311.01a5.676 5.676 0 0 1-.538-.04Zm-.06.149h.016-.016Z"/><path d="M14.143 57.034a.652.652 0 0 1-.036-.017.793.793 0 0 1-.034-.025 1.315 1.315 0 0 1-.06-.057l-.032-.038c.007-.034.014-.068.023-.102l.023-.063c.019-.04.039-.079.06-.117.031-.047.064-.093.099-.137.242-.067.56-.106.703-.142.134-.012.359-.112.457.01.14-.03.35-.145.473-.03.061.058.066.171.001.23-.112.09-.269.1-.404.14-.204.047-.406.096-.607.154.002.167-.151.18-.281.188-.074.013-.147.02-.222.029l-.076.008-.087-.03Z"/><path d="m14.04 56.936-.031-.037c.007-.035.014-.07.023-.103l.023-.063a1.78 1.78 0 0 1 .057-.11c.342-.04.678-.139 1.014-.218a25.61 25.61 0 0 0 2.026-.594 17.885 17.885 0 0 0 1.656-.64c.878-.38 1.76-.745 2.643-1.112l.773-.317a.164.164 0 0 1 .213.087.164.164 0 0 1-.087.212c-1.322.538-2.634 1.097-3.947 1.655-.768.314-1.561.561-2.358.793a22.25 22.25 0 0 1-1.729.415c-.09.016-.18.028-.27.038l-.005-.005Z"/><path d="M19.625 55.208c-.015-.139.497-.253.614-.302.694-.209 1.41-.324 2.122-.455.181-.025.238.242.06.291-.503.102-.988.237-1.49.33l-.358.076a.151.151 0 0 1-.156-.05c-.193.044-.385.092-.578.139-.04.006-.1.034-.147.034-.034 0-.06-.015-.067-.063Zm8.823 3.247c-1.524-1.602-3.534-3-5.785-3.218a10.46 10.46 0 0 0-.468-.02c-.106.001-.16-.082-.16-.165s.053-.166.16-.164c2.194-.01 4.204 1.217 5.756 2.682.103.104.913.89.56.89a.382.382 0 0 1-.064-.006Z"/><path d="M27.79 57.304c-.068-.052-.139-.102-.208-.152a9.435 9.435 0 0 0-.683-.449c-1.185-.693-2.57-1.148-3.919-1.241-.99-.061-1.98.115-2.912.438-.543.19-1.06.444-1.59.666a20.92 20.92 0 0 1-.64.252c-.137.03-.276.055-.413.085-.158.034-.309.087-.466.123a6.367 6.367 0 0 1-.404.059c-.125.01-.251.012-.377.025-.135.014-.27.034-.405.05-.107.01-.215.014-.322.02-.104.004-.207.01-.311.01a5.77 5.77 0 0 1-.455-.031c.085-.004.17-.008.254-.014l-.018.001c1.16-.053 2.266-.406 3.33-.85.706-.292 1.39-.64 2.128-.848-.537.129-1.062.298-1.59.46-.855.262-1.73.466-2.605.648a16.854 16.854 0 0 1-2.204.34c.007-.035.014-.068.023-.1l.022-.064c.019-.04.04-.078.061-.117l.015-.022c.181-.019.362-.039.543-.063.629-.084 1.25-.224 1.869-.358a29.898 29.898 0 0 0 2.748-.747c.842-.26 1.7-.47 2.567-.628.007-.149.176-.152.29-.139.129.006.258.017.387.028.344.043.692.023 1.037.068.27.027.539.072.807.12.502.05 1.006.1 1.495.233.162.043.32.097.477.157.075.032.157.057.218.113.078.07.046.206-.047.244-.055.026-.115.013-.172 0-.083-.018-.166-.04-.249-.06-.938-.214-1.884-.427-2.845-.508a6.461 6.461 0 0 0-1.894.171c1.539-.275 3.15.006 4.562.655.652.303 1.288.663 1.818 1.156.055.063.274.22.136.285a.065.065 0 0 1-.06-.016h.001Z"/><path d="M20.516 55.603a.158.158 0 0 1-.037-.218.164.164 0 0 1 .1-.063l.327-.083c.426-.114.857-.218 1.297-.248a3.995 3.995 0 0 1 1.272.103c.085.021.67.187.479.304-.355-.06-.711-.126-1.073-.13a5.865 5.865 0 0 0-.723.035c-.423.053-.834.165-1.25.258l-.273.069a.129.129 0 0 1-.029.003.165.165 0 0 1-.09-.03Z"/><path d="M15.09 57.34c-.315-.025-.699-.027-.959-.226-.26-.222-.095-.54.134-.71.224-.175.486-.291.744-.409.464-.204.94-.368 1.399-.582a26.192 26.192 0 0 0 1.59-.781c.53-.338 1.012-.749 1.56-1.056.223-.124.367.14.165.287-.363.292-.751.553-1.143.805-.29.188-.614.322-.895.526.096.052.097.197.005.255-.038.024-.082.04-.122.061-.14.053-.34.243-.484.13-.1.046-.2.09-.3.133a.152.152 0 0 1-.208-.088c-.64.296-1.325.484-1.944.82-1.211.7 1.057.552 1.43.503.892-.116 1.758-.39 2.595-.716 1.497-.59 2.994-1.401 4.645-1.364.117.01.236.02.346.062.024.005.044.02.055.043.034.078-.06.148-.122.092-.515-.05-1.028.087-1.527.2-.898.224-1.736.62-2.584.98-1.294.543-2.662 1.042-4.079 1.042-.1 0-.2-.002-.3-.007Z"/><path d="M14.65 57.18c-.237-.035-.492-.18-.53-.437-.04-.278.23-.493.44-.598.388-.205.808-.343 1.21-.519.385-.164.765-.342 1.117-.532a6.26 6.26 0 0 0 1.382-.96c.502-.479.98-1 1.428-1.526.292-.347.557-.716.82-1.086.23-.322.454-.648.68-.974a.126.126 0 0 1 .175-.028c.055.04.067.119.028.174-.254.365-.508.73-.753 1.1-.622.952-1.383 1.8-2.198 2.587-.957.893-2.2 1.378-3.395 1.866-.228.095-.998.411-.446.606.155.045.314.072.474.096.071.013.145.02.213.047.048.008.059.08.017.102a.69.69 0 0 1-.4.108 1.48 1.48 0 0 1-.261-.025Zm23.512 3.656c-.079-.01-.146-.09-.13-.17.053-.274.109-.548.159-.821.037-.24.089-.48.141-.718v.004l.023.112.024.112.025.111.028.11.03.106.033.104.016.048-.046.207c-.045.222-.088.444-.131.666a.155.155 0 0 1-.15.132l-.021-.002Z"/><path d="M37.861 59.185c-.947-.48-1.504-1.428-2.111-2.257-1.19-1.616-2.43-2.58-4.429-2.961-.34-.068-.683-.114-1.027-.16-.235-.027-.48-.082-.712-.072-.055-.014-.077-.092-.03-.129.098-.097.512-.037.66-.036 2.385.12 4.065.94 5.53 2.839.564.703.975 1.495 1.66 2.085.31.267.587.417.908.514l.002.01.02.113.022.112.024.112.003.013a2.303 2.303 0 0 1-.52-.182Z"/><path d="M37.208 59.224c-.065-.08-.14-.158-.18-.252-.04-.119.095-.234.206-.175.054-.015.11.006.162.024.138.05.283.098.43.086.177-.017.313-.116.422-.257l.006.034.02.111.018.111.02.112.02.112.023.112.024.113.005.025c-.094.052-.193.074-.285.003a2.71 2.71 0 0 1-.55.056c-.146 0-.255-.108-.342-.215Z"/><path d="M37.878 59.268c-.02-.067.035-.121.07-.173.036-.052.073-.105.107-.16.07-.11.13-.227.183-.346l.016.095.02.111.018.111.02.112.002.01a1.85 1.85 0 0 1-.103.131c-.056.065-.16.17-.245.17-.034 0-.065-.017-.088-.061Zm-3.404 5.317-.002-.001.017.012-.015-.011Z"/><path d="M37.02 65.528a5.874 5.874 0 0 1-1.086-.181 9.056 9.056 0 0 1-.191-.075h-.003c-.12-.053-.237-.11-.354-.166-.109-.052-.219-.101-.324-.16a8.668 8.668 0 0 1-.61-.364l-.002-.001-.435-.305a15.987 15.987 0 0 1-.409-.29c-.097-.072-.192-.148-.287-.223l-.051-.039-.031-.038c-.004-.004-.006-.01-.01-.013a.07.07 0 0 1-.027-.094.07.07 0 0 1 .085-.03c.162.118.32.246.478.371.959.757 2.136 1.26 3.358 1.317.424.02.853.02 1.271-.06.199-.041.392-.104.584-.166.186-.052.286.223.104.299a4.663 4.663 0 0 1-.35.107c-.373.1-.759.133-1.144.133-.19 0-.38-.008-.567-.02v-.002Z"/><path d="M37.748 65.35a.144.144 0 0 1 .126-.158 5.907 5.907 0 0 0 1.134-.224c1.182-.395 2.09-1.27 3.065-2.004.08-.06.16-.12.244-.176l.036-.022c.027-.02.066-.002.074.03.011.1-.22.283-.291.362-.142.137-.287.27-.434.401-.896.777-1.866 1.587-3.064 1.81-.243.04-.487.076-.732.105a.144.144 0 0 1-.157-.126v.001Zm-3.274-.765-.002-.001.017.012-.015-.011Z"/><path d="m37.264 65.665-.123-.025.012.003-.025-.005c-.001 0-.003-.001-.005-.038h-.002c-.006.035-.012.034-.018.035h.001c-.005-.003-.01-.004-.014-.005l.019.004h.003c.003.001.006.002.009-.034h.002c.005.038.01.039.015.04-.248-.05-.499-.084-.745-.139a2.822 2.822 0 0 1-.327-.104c-.108-.042-.216-.082-.323-.125h-.003c-.12-.053-.236-.11-.354-.166-.109-.052-.219-.101-.324-.16a8.648 8.648 0 0 1-.61-.364l-.002-.001c-.145-.102-.289-.205-.434-.305a16.89 16.89 0 0 1-.393-.278c.03-.06.106-.096.18-.042.213.16.429.317.64.461 1.213.877 2.475 1.121 3.939.847a4.87 4.87 0 0 0 1.187-.383c.378-.176.725-.411 1.089-.615.052-.022.117-.073.155-.022.026.075-.066.145-.11.197-.887.844-2.13 1.225-3.346 1.225h-.093Z"/><path d="m34.474 64.585-.002-.001.017.012-.015-.011Z"/><path d="M37.568 65.72a8.779 8.779 0 0 1-.124-.019l-.303-.06.012.002-.025-.005c-.001 0-.003-.001-.005-.038h-.002c-.006.036-.012.034-.018.035h.001c-.005-.003-.01-.004-.014-.005l.019.004h.003c.003.002.006.002.009-.034h.002c.005.038.01.039.015.04-.248-.05-.499-.084-.745-.139a2.841 2.841 0 0 1-.327-.104c-.108-.042-.216-.081-.323-.125h-.003c-.12-.053-.236-.11-.354-.166-.109-.052-.219-.101-.324-.16a8.687 8.687 0 0 1-.61-.364l-.002-.001-.434-.305a16.62 16.62 0 0 1-.41-.29c-.096-.072-.191-.148-.287-.223-.098-.077-.198-.151-.297-.228a3.786 3.786 0 0 1-.107-.09c-.188-.163-.373-.33-.557-.496a.1.1 0 0 1 .011-.03c.072-.075.142.04.188.09.145.168.31.329.472.475.923.822 2.068 1.344 3.243 1.699a4.712 4.712 0 0 0 2.273.15c.906-.144 1.693-.663 2.37-1.255.75-.658 1.449-1.37 2.131-2.096.454-.506.898-1.02 1.337-1.539.113-.143.342.017.227.176l-.483.569a28.242 28.242 0 0 1-2.586 2.746c-1.162 1.111-2.23 1.79-3.798 1.79l-.175-.003Z"/><path d="M81.866 14.305v74.494H7.372V14.305h74.494Z"/></g></g><path d="M104.243 51.369c-2.458 0-4.81-.369-7.052-1.106-2.244-.769-4.01-1.752-5.301-2.95l1.705-3.596c1.23 1.076 2.797 1.967 4.702 2.674a16.958 16.958 0 0 0 5.946 1.06c1.874 0 3.396-.215 4.563-.645 1.168-.43 2.028-1.015 2.582-1.752a4.313 4.313 0 0 0 .829-2.581c0-1.107-.369-1.998-1.106-2.674-.707-.676-1.644-1.214-2.812-1.613a27.665 27.665 0 0 0-3.779-1.106 76.307 76.307 0 0 1-4.195-1.06 20.438 20.438 0 0 1-3.826-1.614 7.96 7.96 0 0 1-2.765-2.581c-.707-1.106-1.06-2.52-1.06-4.24 0-1.66.43-3.181 1.29-4.564.891-1.413 2.243-2.535 4.056-3.365 1.844-.86 4.179-1.29 7.007-1.29 1.874 0 3.733.245 5.577.737 1.844.492 3.442 1.198 4.794 2.12l-1.521 3.688a14.385 14.385 0 0 0-4.379-1.982c-1.537-.43-3.027-.645-4.471-.645-1.813 0-3.304.23-4.472.691-1.167.46-2.028 1.075-2.58 1.844a4.487 4.487 0 0 0-.784 2.581c0 1.137.353 2.044 1.06 2.72.737.675 1.674 1.213 2.812 1.613 1.167.4 2.442.768 3.825 1.106 1.383.307 2.766.66 4.149 1.06 1.413.4 2.689.922 3.826 1.567a7.848 7.848 0 0 1 2.811 2.582c.707 1.075 1.06 2.458 1.06 4.148 0 1.629-.445 3.15-1.336 4.563-.891 1.383-2.274 2.505-4.149 3.365-1.844.83-4.179 1.245-7.006 1.245ZM123.468 51V18.734h12.584c2.827 0 5.239.446 7.237 1.337 1.997.891 3.534 2.182 4.609 3.872 1.076 1.69 1.613 3.703 1.613 6.038 0 2.336-.537 4.348-1.613 6.038-1.075 1.66-2.612 2.95-4.609 3.872-1.998.892-4.41 1.337-7.237 1.337h-10.048l2.074-2.166V51h-4.61Zm4.61-11.477-2.074-2.305h9.91c2.95 0 5.178-.63 6.683-1.89 1.537-1.26 2.305-3.042 2.305-5.347 0-2.305-.768-4.087-2.305-5.347-1.505-1.26-3.733-1.89-6.683-1.89h-9.91l2.074-2.304v19.083Zm32.4-6.868h16.594v3.918h-16.594v-3.918Zm.415 14.335h18.806V51h-23.416V18.734h22.771v4.01h-18.161V46.99Zm40.652 4.379c-2.458 0-4.732-.4-6.822-1.199-2.059-.83-3.857-1.982-5.393-3.457a16.688 16.688 0 0 1-3.549-5.254c-.861-1.998-1.291-4.195-1.291-6.592 0-2.397.43-4.594 1.291-6.591a15.81 15.81 0 0 1 3.595-5.209 15.767 15.767 0 0 1 5.393-3.457c2.09-.83 4.364-1.244 6.822-1.244 2.489 0 4.778.43 6.868 1.29 2.12.83 3.918 2.074 5.393 3.734l-2.996 2.904c-1.229-1.29-2.612-2.244-4.149-2.858-1.536-.645-3.18-.968-4.932-.968-1.813 0-3.503.307-5.07.922a12.161 12.161 0 0 0-4.01 2.581c-1.137 1.106-2.028 2.428-2.674 3.964-.614 1.506-.921 3.15-.921 4.932 0 1.783.307 3.442.921 4.978a12.01 12.01 0 0 0 2.674 3.918 12.163 12.163 0 0 0 4.01 2.581c1.567.615 3.257.922 5.07.922 1.752 0 3.396-.307 4.932-.922 1.537-.645 2.92-1.628 4.149-2.95l2.996 2.904c-1.475 1.66-3.273 2.92-5.393 3.78-2.09.86-4.394 1.29-6.914 1.29ZM220.427 51V18.734h4.61V51h-4.61Zm9.384 0 14.612-32.266h4.563L263.644 51h-4.84l-13.045-29.684h1.844L234.558 51h-4.747Zm6.222-8.066 1.245-3.688h18.161l1.337 3.688h-20.743ZM268.457 51V18.734h4.609V46.99h17.47V51h-22.079Zm39.747 0V18.734h12.583c2.827 0 5.24.446 7.237 1.337 1.998.891 3.534 2.182 4.61 3.872 1.075 1.69 1.613 3.703 1.613 6.038 0 2.336-.538 4.348-1.613 6.038-1.076 1.66-2.612 2.95-4.61 3.872-1.997.892-4.41 1.337-7.237 1.337h-10.048l2.074-2.166V51h-4.609Zm4.609-11.477-2.074-2.305h9.91c2.95 0 5.178-.63 6.684-1.89 1.536-1.26 2.304-3.042 2.304-5.347 0-2.305-.768-4.087-2.304-5.347-1.506-1.26-3.734-1.89-6.684-1.89h-9.91l2.074-2.304v19.083ZM341.019 51V18.734h4.609V46.99h17.47V51h-22.079Zm22.482 0 14.612-32.266h4.563L397.334 51h-4.84l-13.045-29.684h1.844L368.249 51h-4.748Zm6.223-8.066 1.244-3.688h18.161l1.337 3.688h-20.742ZM402.147 51V18.734h3.78l21.341 26.504h-1.982V18.734h4.609V51h-3.779l-21.342-26.504h1.982V51h-4.609Zm43.813 0V22.744h-11.062v-4.01h26.688v4.01h-11.063V51h-4.563Zm29.644.369c-2.458 0-4.809-.369-7.052-1.106-2.243-.769-4.01-1.752-5.301-2.95l1.706-3.596c1.229 1.076 2.796 1.967 4.701 2.674a16.957 16.957 0 0 0 5.946 1.06c1.875 0 3.396-.215 4.564-.645 1.167-.43 2.028-1.015 2.581-1.752.553-.768.83-1.629.83-2.581 0-1.107-.369-1.998-1.107-2.674-.707-.676-1.644-1.214-2.811-1.613a27.638 27.638 0 0 0-3.78-1.106 76.307 76.307 0 0 1-4.195-1.06 20.405 20.405 0 0 1-3.825-1.614 7.962 7.962 0 0 1-2.766-2.581c-.707-1.106-1.06-2.52-1.06-4.24 0-1.66.43-3.181 1.29-4.564.892-1.413 2.244-2.535 4.057-3.365 1.843-.86 4.179-1.29 7.006-1.29 1.874 0 3.733.245 5.577.737 1.844.492 3.442 1.198 4.794 2.12l-1.521 3.688a14.385 14.385 0 0 0-4.379-1.982c-1.536-.43-3.027-.645-4.471-.645-1.813 0-3.304.23-4.471.691-1.168.46-2.028 1.075-2.581 1.844a4.482 4.482 0 0 0-.784 2.581c0 1.137.353 2.044 1.06 2.72.738.675 1.675 1.213 2.812 1.613 1.168.4 2.443.768 3.826 1.106a68.01 68.01 0 0 1 4.148 1.06c1.414.4 2.689.922 3.826 1.567a7.843 7.843 0 0 1 2.812 2.582c.706 1.075 1.06 2.458 1.06 4.148 0 1.629-.446 3.15-1.337 4.563-.891 1.383-2.274 2.505-4.148 3.365-1.844.83-4.18 1.245-7.007 1.245ZM99.27 90.41V72.485h7.093c1.895 0 3.56.384 4.994 1.152 1.434.768 2.543 1.827 3.329 3.175.802 1.35 1.203 2.894 1.203 4.636 0 1.74-.401 3.286-1.203 4.635-.786 1.348-1.895 2.407-3.329 3.175-1.434.768-3.099 1.152-4.994 1.152H99.27Zm1.306-1.178h5.685c1.69 0 3.158-.333 4.404-.998 1.247-.666 2.211-1.58 2.894-2.74.683-1.178 1.024-2.527 1.024-4.046 0-1.52-.341-2.86-1.024-4.02-.683-1.179-1.647-2.1-2.894-2.767-1.246-.665-2.714-.998-4.404-.998h-5.685v15.57Zm35.087-8.501h9.705v1.152h-9.705V80.73Zm.154 8.501h11.062v1.178h-12.368V72.485h11.984v1.178h-10.678v15.57Zm29.908 1.178V72.485h6.427c1.503 0 2.792.239 3.867.717 1.076.478 1.904 1.17 2.484 2.074.581.888.871 1.972.871 3.252 0 1.246-.29 2.322-.871 3.227-.58.888-1.408 1.579-2.484 2.074-1.075.478-2.364.717-3.867.717h-5.71l.589-.615v6.48h-1.306Zm12.445 0-4.66-6.504h1.485l4.66 6.504h-1.485Zm-11.139-6.402-.589-.614h5.71c1.93 0 3.389-.427 4.379-1.28 1.008-.854 1.511-2.05 1.511-3.586 0-1.553-.503-2.748-1.511-3.585-.99-.853-2.449-1.28-4.379-1.28h-5.71l.589-.64v10.985Zm31.209 6.402V72.485h6.427c1.502 0 2.791.239 3.867.717 1.075.478 1.903 1.17 2.484 2.074.58.888.871 1.972.871 3.252 0 1.246-.291 2.322-.871 3.227-.581.888-1.409 1.579-2.484 2.074-1.076.478-2.365.717-3.867.717h-5.71l.589-.615v6.48h-1.306Zm12.445 0-4.661-6.504h1.486l4.66 6.504h-1.485Zm-11.139-6.402-.589-.614h5.71c1.929 0 3.389-.427 4.379-1.28 1.007-.854 1.511-2.05 1.511-3.586 0-1.553-.504-2.748-1.511-3.585-.99-.853-2.45-1.28-4.379-1.28h-5.71l.589-.64v10.985Zm35.184 6.402v-6.504l.307.845-7.529-12.266h1.434l6.838 11.14h-.718l6.838-11.14h1.357l-7.529 12.266.308-.845v6.504h-1.306Zm50.519 0-6.094-17.925h1.383l5.787 17.131h-.692l5.967-17.131h1.255l5.915 17.131h-.666l5.839-17.131h1.28l-6.069 17.925h-1.383l-5.736-16.568h.333l-5.736 16.568h-1.383Zm34.277 0 8.245-17.925h1.306l8.246 17.925h-1.408l-7.785-17.106h.563l-7.759 17.106h-1.408Zm3.022-5.045.435-1.1h10.729l.436 1.1h-11.6Zm34.645 5.045V73.663h-6.453v-1.178h14.212v1.178h-6.453V90.41h-1.306Zm26.209-4.532-.052-1.64 11.421-11.753h1.588l-7.99 8.271-.742.794-4.225 4.328Zm-1.127 4.532V72.485h1.306V90.41h-1.306Zm13.034 0-8.066-9.219.896-.947 8.758 10.166h-1.588Zm19.055 0V72.485h1.306V90.41h-1.306Zm21.637 0V72.485h1.101l12.778 16.312h-.589V72.485h1.306V90.41h-1.075l-12.804-16.312h.589V90.41h-1.306Zm39.652.128c-1.331 0-2.595-.222-3.79-.666-1.178-.46-2.091-1.05-2.74-1.766l.589-.974c.615.632 1.451 1.17 2.51 1.614a9.148 9.148 0 0 0 3.406.64c1.195 0 2.168-.154 2.919-.461.768-.325 1.331-.751 1.69-1.28a2.98 2.98 0 0 0 .563-1.767c0-.769-.205-1.383-.614-1.844-.41-.461-.948-.828-1.614-1.101a14.782 14.782 0 0 0-2.176-.692 164.74 164.74 0 0 1-2.382-.589 11.59 11.59 0 0 1-2.202-.845 4.38 4.38 0 0 1-1.613-1.383c-.393-.597-.589-1.365-.589-2.304 0-.854.222-1.64.666-2.356.443-.717 1.135-1.298 2.074-1.742.939-.443 2.142-.665 3.611-.665.99 0 1.963.145 2.919.435.973.29 1.801.683 2.484 1.178l-.487 1.05a8.09 8.09 0 0 0-2.433-1.127 8.619 8.619 0 0 0-2.483-.384c-1.144 0-2.092.162-2.843.487-.751.324-1.306.76-1.664 1.306a3.12 3.12 0 0 0-.538 1.792c0 .768.196 1.383.589 1.844.409.46.947.828 1.613 1.101s1.4.504 2.202.692c.803.187 1.597.392 2.382.614a10.62 10.62 0 0 1 2.176.82 4.39 4.39 0 0 1 1.614 1.382c.409.58.614 1.332.614 2.254 0 .836-.23 1.622-.691 2.356-.461.717-1.169 1.297-2.126 1.741-.938.427-2.151.64-3.636.64Z" fill="#26665A"/><defs><clipPath id="a"><path fill="#fff" transform="translate(14 17)" d="M0 0h62.227v69.139H0z"/></clipPath></defs></svg>